G04 (created by PCBNEW-RS274X (2010-03-13)-final) date Wednesday 20 March 2013 09:27:51 AM IST*
G01*
G70*
G90*
%MOIN*%
G04 Gerber Fmt 3.4, Leading zero omitted, Abs format*
%FSLAX34Y34*%
G04 APERTURE LIST*
%ADD10C,0.001000*%
%ADD11C,0.010000*%
%ADD12C,0.015000*%
G04 APERTURE END LIST*
G54D10*
G54D11*
X61160Y-39601D02*
X61160Y-39487D01*
X61122Y-39430D01*
X61084Y-39401D01*
X60970Y-39344D01*
X60817Y-39315D01*
X60513Y-39315D01*
X60436Y-39344D01*
X60398Y-39372D01*
X60360Y-39430D01*
X60360Y-39544D01*
X60398Y-39601D01*
X60436Y-39630D01*
X60513Y-39658D01*
X60703Y-39658D01*
X60779Y-39630D01*
X60817Y-39601D01*
X60855Y-39544D01*
X60855Y-39430D01*
X60817Y-39372D01*
X60779Y-39344D01*
X60703Y-39315D01*
X60436Y-39915D02*
X60398Y-39943D01*
X60360Y-39915D01*
X60398Y-39886D01*
X60436Y-39915D01*
X60360Y-39915D01*
X61160Y-40315D02*
X61160Y-40372D01*
X61122Y-40429D01*
X61084Y-40458D01*
X61008Y-40487D01*
X60855Y-40515D01*
X60665Y-40515D01*
X60513Y-40487D01*
X60436Y-40458D01*
X60398Y-40429D01*
X60360Y-40372D01*
X60360Y-40315D01*
X60398Y-40258D01*
X60436Y-40229D01*
X60513Y-40201D01*
X60665Y-40172D01*
X60855Y-40172D01*
X61008Y-40201D01*
X61084Y-40229D01*
X61122Y-40258D01*
X61160Y-40315D01*
X61160Y-40886D02*
X61160Y-40943D01*
X61122Y-41000D01*
X61084Y-41029D01*
X61008Y-41058D01*
X60855Y-41086D01*
X60665Y-41086D01*
X60513Y-41058D01*
X60436Y-41029D01*
X60398Y-41000D01*
X60360Y-40943D01*
X60360Y-40886D01*
X60398Y-40829D01*
X60436Y-40800D01*
X60513Y-40772D01*
X60665Y-40743D01*
X60855Y-40743D01*
X61008Y-40772D01*
X61084Y-40800D01*
X61122Y-40829D01*
X61160Y-40886D01*
X61160Y-41457D02*
X61160Y-41514D01*
X61122Y-41571D01*
X61084Y-41600D01*
X61008Y-41629D01*
X60855Y-41657D01*
X60665Y-41657D01*
X60513Y-41629D01*
X60436Y-41600D01*
X60398Y-41571D01*
X60360Y-41514D01*
X60360Y-41457D01*
X60398Y-41400D01*
X60436Y-41371D01*
X60513Y-41343D01*
X60665Y-41314D01*
X60855Y-41314D01*
X61008Y-41343D01*
X61084Y-41371D01*
X61122Y-41400D01*
X61160Y-41457D01*
X61160Y-42028D02*
X61160Y-42085D01*
X61122Y-42142D01*
X61084Y-42171D01*
X61008Y-42200D01*
X60855Y-42228D01*
X60665Y-42228D01*
X60513Y-42200D01*
X60436Y-42171D01*
X60398Y-42142D01*
X60360Y-42085D01*
X60360Y-42028D01*
X60398Y-41971D01*
X60436Y-41942D01*
X60513Y-41914D01*
X60665Y-41885D01*
X60855Y-41885D01*
X61008Y-41914D01*
X61084Y-41942D01*
X61122Y-41971D01*
X61160Y-42028D01*
G54D12*
X59999Y-11000D02*
X59999Y-71000D01*
X59000Y-11000D02*
X61369Y-11000D01*
X59000Y-71000D02*
X61369Y-71000D01*
X59999Y-71000D02*
X59769Y-70557D01*
X59999Y-71000D02*
X60229Y-70557D01*
X59999Y-11000D02*
X59769Y-11443D01*
X59999Y-11000D02*
X60229Y-11443D01*
G54D11*
X35601Y-09106D02*
X35601Y-09640D01*
X35458Y-08802D02*
X35315Y-09373D01*
X35687Y-09373D01*
X35915Y-09564D02*
X35943Y-09602D01*
X35915Y-09640D01*
X35886Y-09602D01*
X35915Y-09564D01*
X35915Y-09640D01*
X36458Y-09106D02*
X36458Y-09640D01*
X36315Y-08802D02*
X36172Y-09373D01*
X36544Y-09373D01*
X36886Y-08840D02*
X36943Y-08840D01*
X37000Y-08878D01*
X37029Y-08916D01*
X37058Y-08992D01*
X37086Y-09145D01*
X37086Y-09335D01*
X37058Y-09487D01*
X37029Y-09564D01*
X37000Y-09602D01*
X36943Y-09640D01*
X36886Y-09640D01*
X36829Y-09602D01*
X36800Y-09564D01*
X36772Y-09487D01*
X36743Y-09335D01*
X36743Y-09145D01*
X36772Y-08992D01*
X36800Y-08916D01*
X36829Y-08878D01*
X36886Y-08840D01*
X37457Y-08840D02*
X37514Y-08840D01*
X37571Y-08878D01*
X37600Y-08916D01*
X37629Y-08992D01*
X37657Y-09145D01*
X37657Y-09335D01*
X37629Y-09487D01*
X37600Y-09564D01*
X37571Y-09602D01*
X37514Y-09640D01*
X37457Y-09640D01*
X37400Y-09602D01*
X37371Y-09564D01*
X37343Y-09487D01*
X37314Y-09335D01*
X37314Y-09145D01*
X37343Y-08992D01*
X37371Y-08916D01*
X37400Y-08878D01*
X37457Y-08840D01*
X38028Y-08840D02*
X38085Y-08840D01*
X38142Y-08878D01*
X38171Y-08916D01*
X38200Y-08992D01*
X38228Y-09145D01*
X38228Y-09335D01*
X38200Y-09487D01*
X38171Y-09564D01*
X38142Y-09602D01*
X38085Y-09640D01*
X38028Y-09640D01*
X37971Y-09602D01*
X37942Y-09564D01*
X37914Y-09487D01*
X37885Y-09335D01*
X37885Y-09145D01*
X37914Y-08992D01*
X37942Y-08916D01*
X37971Y-08878D01*
X38028Y-08840D01*
G54D12*
X15000Y-10001D02*
X59000Y-10001D01*
X15000Y-11000D02*
X15000Y-08631D01*
X59000Y-11000D02*
X59000Y-08631D01*
X59000Y-10001D02*
X58557Y-10231D01*
X59000Y-10001D02*
X58557Y-09771D01*
X15000Y-10001D02*
X15443Y-10231D01*
X15000Y-10001D02*
X15443Y-09771D01*
X15000Y-71000D02*
X15000Y-11000D01*
X59000Y-71000D02*
X15000Y-71000D01*
X59000Y-11000D02*
X59000Y-71000D01*
X15000Y-11000D02*
X59000Y-11000D01*
G54D10*
X54005Y-22255D02*
X54005Y-25745D01*
X57495Y-25745D01*
X57495Y-22255D01*
X54005Y-22255D01*
M02*
