G04 (created by PCBNEW (2010-03-13)-final) date Wednesday 20 March 2013 09:28:48 AM IST*
G01*
G70*
G90*
%MOIN*%
G04 Gerber Fmt 3.4, Leading zero omitted, Abs format*
%FSLAX34Y34*%
G04 APERTURE LIST*
%ADD10C,0.001000*%
%ADD11C,0.010000*%
%ADD12C,0.015000*%
%ADD13C,0.008000*%
G04 APERTURE END LIST*
G54D10*
G54D11*
X61160Y-39601D02*
X61160Y-39487D01*
X61122Y-39430D01*
X61084Y-39401D01*
X60970Y-39344D01*
X60817Y-39315D01*
X60513Y-39315D01*
X60436Y-39344D01*
X60398Y-39372D01*
X60360Y-39430D01*
X60360Y-39544D01*
X60398Y-39601D01*
X60436Y-39630D01*
X60513Y-39658D01*
X60703Y-39658D01*
X60779Y-39630D01*
X60817Y-39601D01*
X60855Y-39544D01*
X60855Y-39430D01*
X60817Y-39372D01*
X60779Y-39344D01*
X60703Y-39315D01*
X60436Y-39915D02*
X60398Y-39943D01*
X60360Y-39915D01*
X60398Y-39886D01*
X60436Y-39915D01*
X60360Y-39915D01*
X61160Y-40315D02*
X61160Y-40372D01*
X61122Y-40429D01*
X61084Y-40458D01*
X61008Y-40487D01*
X60855Y-40515D01*
X60665Y-40515D01*
X60513Y-40487D01*
X60436Y-40458D01*
X60398Y-40429D01*
X60360Y-40372D01*
X60360Y-40315D01*
X60398Y-40258D01*
X60436Y-40229D01*
X60513Y-40201D01*
X60665Y-40172D01*
X60855Y-40172D01*
X61008Y-40201D01*
X61084Y-40229D01*
X61122Y-40258D01*
X61160Y-40315D01*
X61160Y-40886D02*
X61160Y-40943D01*
X61122Y-41000D01*
X61084Y-41029D01*
X61008Y-41058D01*
X60855Y-41086D01*
X60665Y-41086D01*
X60513Y-41058D01*
X60436Y-41029D01*
X60398Y-41000D01*
X60360Y-40943D01*
X60360Y-40886D01*
X60398Y-40829D01*
X60436Y-40800D01*
X60513Y-40772D01*
X60665Y-40743D01*
X60855Y-40743D01*
X61008Y-40772D01*
X61084Y-40800D01*
X61122Y-40829D01*
X61160Y-40886D01*
X61160Y-41457D02*
X61160Y-41514D01*
X61122Y-41571D01*
X61084Y-41600D01*
X61008Y-41629D01*
X60855Y-41657D01*
X60665Y-41657D01*
X60513Y-41629D01*
X60436Y-41600D01*
X60398Y-41571D01*
X60360Y-41514D01*
X60360Y-41457D01*
X60398Y-41400D01*
X60436Y-41371D01*
X60513Y-41343D01*
X60665Y-41314D01*
X60855Y-41314D01*
X61008Y-41343D01*
X61084Y-41371D01*
X61122Y-41400D01*
X61160Y-41457D01*
X61160Y-42028D02*
X61160Y-42085D01*
X61122Y-42142D01*
X61084Y-42171D01*
X61008Y-42200D01*
X60855Y-42228D01*
X60665Y-42228D01*
X60513Y-42200D01*
X60436Y-42171D01*
X60398Y-42142D01*
X60360Y-42085D01*
X60360Y-42028D01*
X60398Y-41971D01*
X60436Y-41942D01*
X60513Y-41914D01*
X60665Y-41885D01*
X60855Y-41885D01*
X61008Y-41914D01*
X61084Y-41942D01*
X61122Y-41971D01*
X61160Y-42028D01*
G54D12*
X59999Y-11000D02*
X59999Y-71000D01*
X59000Y-11000D02*
X61369Y-11000D01*
X59000Y-71000D02*
X61369Y-71000D01*
X59999Y-71000D02*
X59769Y-70557D01*
X59999Y-71000D02*
X60229Y-70557D01*
X59999Y-11000D02*
X59769Y-11443D01*
X59999Y-11000D02*
X60229Y-11443D01*
G54D11*
X35601Y-09106D02*
X35601Y-09640D01*
X35458Y-08802D02*
X35315Y-09373D01*
X35687Y-09373D01*
X35915Y-09564D02*
X35943Y-09602D01*
X35915Y-09640D01*
X35886Y-09602D01*
X35915Y-09564D01*
X35915Y-09640D01*
X36458Y-09106D02*
X36458Y-09640D01*
X36315Y-08802D02*
X36172Y-09373D01*
X36544Y-09373D01*
X36886Y-08840D02*
X36943Y-08840D01*
X37000Y-08878D01*
X37029Y-08916D01*
X37058Y-08992D01*
X37086Y-09145D01*
X37086Y-09335D01*
X37058Y-09487D01*
X37029Y-09564D01*
X37000Y-09602D01*
X36943Y-09640D01*
X36886Y-09640D01*
X36829Y-09602D01*
X36800Y-09564D01*
X36772Y-09487D01*
X36743Y-09335D01*
X36743Y-09145D01*
X36772Y-08992D01*
X36800Y-08916D01*
X36829Y-08878D01*
X36886Y-08840D01*
X37457Y-08840D02*
X37514Y-08840D01*
X37571Y-08878D01*
X37600Y-08916D01*
X37629Y-08992D01*
X37657Y-09145D01*
X37657Y-09335D01*
X37629Y-09487D01*
X37600Y-09564D01*
X37571Y-09602D01*
X37514Y-09640D01*
X37457Y-09640D01*
X37400Y-09602D01*
X37371Y-09564D01*
X37343Y-09487D01*
X37314Y-09335D01*
X37314Y-09145D01*
X37343Y-08992D01*
X37371Y-08916D01*
X37400Y-08878D01*
X37457Y-08840D01*
X38028Y-08840D02*
X38085Y-08840D01*
X38142Y-08878D01*
X38171Y-08916D01*
X38200Y-08992D01*
X38228Y-09145D01*
X38228Y-09335D01*
X38200Y-09487D01*
X38171Y-09564D01*
X38142Y-09602D01*
X38085Y-09640D01*
X38028Y-09640D01*
X37971Y-09602D01*
X37942Y-09564D01*
X37914Y-09487D01*
X37885Y-09335D01*
X37885Y-09145D01*
X37914Y-08992D01*
X37942Y-08916D01*
X37971Y-08878D01*
X38028Y-08840D01*
G54D12*
X15000Y-10001D02*
X59000Y-10001D01*
X15000Y-11000D02*
X15000Y-08631D01*
X59000Y-11000D02*
X59000Y-08631D01*
X59000Y-10001D02*
X58557Y-10231D01*
X59000Y-10001D02*
X58557Y-09771D01*
X15000Y-10001D02*
X15443Y-10231D01*
X15000Y-10001D02*
X15443Y-09771D01*
X15000Y-71000D02*
X15000Y-11000D01*
X59000Y-71000D02*
X15000Y-71000D01*
X59000Y-11000D02*
X59000Y-71000D01*
X15000Y-11000D02*
X59000Y-11000D01*
G54D10*
X39935Y-42650D02*
X40135Y-42850D01*
X40135Y-42650D02*
X39935Y-42850D01*
X40365Y-42650D02*
X40565Y-42850D01*
X40565Y-42650D02*
X40365Y-42850D01*
X21375Y-60250D02*
X21372Y-60274D01*
X21365Y-60297D01*
X21354Y-60319D01*
X21338Y-60338D01*
X21319Y-60353D01*
X21298Y-60365D01*
X21275Y-60372D01*
X21250Y-60374D01*
X21227Y-60372D01*
X21204Y-60365D01*
X21182Y-60354D01*
X21163Y-60339D01*
X21147Y-60320D01*
X21136Y-60299D01*
X21128Y-60275D01*
X21126Y-60251D01*
X21128Y-60228D01*
X21134Y-60204D01*
X21145Y-60183D01*
X21161Y-60164D01*
X21179Y-60148D01*
X21200Y-60136D01*
X21224Y-60128D01*
X21248Y-60126D01*
X21271Y-60127D01*
X21295Y-60134D01*
X21316Y-60145D01*
X21336Y-60160D01*
X21352Y-60178D01*
X21364Y-60200D01*
X21371Y-60223D01*
X21374Y-60247D01*
X21375Y-60250D01*
X22625Y-58250D02*
X22622Y-58274D01*
X22615Y-58297D01*
X22604Y-58319D01*
X22588Y-58338D01*
X22569Y-58353D01*
X22548Y-58365D01*
X22525Y-58372D01*
X22500Y-58374D01*
X22477Y-58372D01*
X22454Y-58365D01*
X22432Y-58354D01*
X22413Y-58339D01*
X22397Y-58320D01*
X22386Y-58299D01*
X22378Y-58275D01*
X22376Y-58251D01*
X22378Y-58228D01*
X22384Y-58204D01*
X22395Y-58183D01*
X22411Y-58164D01*
X22429Y-58148D01*
X22450Y-58136D01*
X22474Y-58128D01*
X22498Y-58126D01*
X22521Y-58127D01*
X22545Y-58134D01*
X22566Y-58145D01*
X22586Y-58160D01*
X22602Y-58178D01*
X22614Y-58200D01*
X22621Y-58223D01*
X22624Y-58247D01*
X22625Y-58250D01*
X22925Y-40050D02*
X22922Y-40074D01*
X22915Y-40097D01*
X22904Y-40119D01*
X22888Y-40138D01*
X22869Y-40153D01*
X22848Y-40165D01*
X22825Y-40172D01*
X22800Y-40174D01*
X22777Y-40172D01*
X22754Y-40165D01*
X22732Y-40154D01*
X22713Y-40139D01*
X22697Y-40120D01*
X22686Y-40099D01*
X22678Y-40075D01*
X22676Y-40051D01*
X22678Y-40028D01*
X22684Y-40004D01*
X22695Y-39983D01*
X22711Y-39964D01*
X22729Y-39948D01*
X22750Y-39936D01*
X22774Y-39928D01*
X22798Y-39926D01*
X22821Y-39927D01*
X22845Y-39934D01*
X22866Y-39945D01*
X22886Y-39960D01*
X22902Y-39978D01*
X22914Y-40000D01*
X22921Y-40023D01*
X22924Y-40047D01*
X22925Y-40050D01*
X23075Y-38400D02*
X23072Y-38424D01*
X23065Y-38447D01*
X23054Y-38469D01*
X23038Y-38488D01*
X23019Y-38503D01*
X22998Y-38515D01*
X22975Y-38522D01*
X22950Y-38524D01*
X22927Y-38522D01*
X22904Y-38515D01*
X22882Y-38504D01*
X22863Y-38489D01*
X22847Y-38470D01*
X22836Y-38449D01*
X22828Y-38425D01*
X22826Y-38401D01*
X22828Y-38378D01*
X22834Y-38354D01*
X22845Y-38333D01*
X22861Y-38314D01*
X22879Y-38298D01*
X22900Y-38286D01*
X22924Y-38278D01*
X22948Y-38276D01*
X22971Y-38277D01*
X22995Y-38284D01*
X23016Y-38295D01*
X23036Y-38310D01*
X23052Y-38328D01*
X23064Y-38350D01*
X23071Y-38373D01*
X23074Y-38397D01*
X23075Y-38400D01*
X23925Y-40250D02*
X23922Y-40274D01*
X23915Y-40297D01*
X23904Y-40319D01*
X23888Y-40338D01*
X23869Y-40353D01*
X23848Y-40365D01*
X23825Y-40372D01*
X23800Y-40374D01*
X23777Y-40372D01*
X23754Y-40365D01*
X23732Y-40354D01*
X23713Y-40339D01*
X23697Y-40320D01*
X23686Y-40299D01*
X23678Y-40275D01*
X23676Y-40251D01*
X23678Y-40228D01*
X23684Y-40204D01*
X23695Y-40183D01*
X23711Y-40164D01*
X23729Y-40148D01*
X23750Y-40136D01*
X23774Y-40128D01*
X23798Y-40126D01*
X23821Y-40127D01*
X23845Y-40134D01*
X23866Y-40145D01*
X23886Y-40160D01*
X23902Y-40178D01*
X23914Y-40200D01*
X23921Y-40223D01*
X23924Y-40247D01*
X23925Y-40250D01*
X26525Y-49460D02*
X26522Y-49484D01*
X26515Y-49507D01*
X26504Y-49529D01*
X26488Y-49548D01*
X26469Y-49563D01*
X26448Y-49575D01*
X26425Y-49582D01*
X26400Y-49584D01*
X26377Y-49582D01*
X26354Y-49575D01*
X26332Y-49564D01*
X26313Y-49549D01*
X26297Y-49530D01*
X26286Y-49509D01*
X26278Y-49485D01*
X26276Y-49461D01*
X26278Y-49438D01*
X26284Y-49414D01*
X26295Y-49393D01*
X26311Y-49374D01*
X26329Y-49358D01*
X26350Y-49346D01*
X26374Y-49338D01*
X26398Y-49336D01*
X26421Y-49337D01*
X26445Y-49344D01*
X26466Y-49355D01*
X26486Y-49370D01*
X26502Y-49388D01*
X26514Y-49410D01*
X26521Y-49433D01*
X26524Y-49457D01*
X26525Y-49460D01*
X27975Y-49950D02*
X27972Y-49974D01*
X27965Y-49997D01*
X27954Y-50019D01*
X27938Y-50038D01*
X27919Y-50053D01*
X27898Y-50065D01*
X27875Y-50072D01*
X27850Y-50074D01*
X27827Y-50072D01*
X27804Y-50065D01*
X27782Y-50054D01*
X27763Y-50039D01*
X27747Y-50020D01*
X27736Y-49999D01*
X27728Y-49975D01*
X27726Y-49951D01*
X27728Y-49928D01*
X27734Y-49904D01*
X27745Y-49883D01*
X27761Y-49864D01*
X27779Y-49848D01*
X27800Y-49836D01*
X27824Y-49828D01*
X27848Y-49826D01*
X27871Y-49827D01*
X27895Y-49834D01*
X27916Y-49845D01*
X27936Y-49860D01*
X27952Y-49878D01*
X27964Y-49900D01*
X27971Y-49923D01*
X27974Y-49947D01*
X27975Y-49950D01*
X28525Y-51450D02*
X28522Y-51474D01*
X28515Y-51497D01*
X28504Y-51519D01*
X28488Y-51538D01*
X28469Y-51553D01*
X28448Y-51565D01*
X28425Y-51572D01*
X28400Y-51574D01*
X28377Y-51572D01*
X28354Y-51565D01*
X28332Y-51554D01*
X28313Y-51539D01*
X28297Y-51520D01*
X28286Y-51499D01*
X28278Y-51475D01*
X28276Y-51451D01*
X28278Y-51428D01*
X28284Y-51404D01*
X28295Y-51383D01*
X28311Y-51364D01*
X28329Y-51348D01*
X28350Y-51336D01*
X28374Y-51328D01*
X28398Y-51326D01*
X28421Y-51327D01*
X28445Y-51334D01*
X28466Y-51345D01*
X28486Y-51360D01*
X28502Y-51378D01*
X28514Y-51400D01*
X28521Y-51423D01*
X28524Y-51447D01*
X28525Y-51450D01*
X29125Y-53450D02*
X29122Y-53474D01*
X29115Y-53497D01*
X29104Y-53519D01*
X29088Y-53538D01*
X29069Y-53553D01*
X29048Y-53565D01*
X29025Y-53572D01*
X29000Y-53574D01*
X28977Y-53572D01*
X28954Y-53565D01*
X28932Y-53554D01*
X28913Y-53539D01*
X28897Y-53520D01*
X28886Y-53499D01*
X28878Y-53475D01*
X28876Y-53451D01*
X28878Y-53428D01*
X28884Y-53404D01*
X28895Y-53383D01*
X28911Y-53364D01*
X28929Y-53348D01*
X28950Y-53336D01*
X28974Y-53328D01*
X28998Y-53326D01*
X29021Y-53327D01*
X29045Y-53334D01*
X29066Y-53345D01*
X29086Y-53360D01*
X29102Y-53378D01*
X29114Y-53400D01*
X29121Y-53423D01*
X29124Y-53447D01*
X29125Y-53450D01*
X30975Y-53650D02*
X30972Y-53674D01*
X30965Y-53697D01*
X30954Y-53719D01*
X30938Y-53738D01*
X30919Y-53753D01*
X30898Y-53765D01*
X30875Y-53772D01*
X30850Y-53774D01*
X30827Y-53772D01*
X30804Y-53765D01*
X30782Y-53754D01*
X30763Y-53739D01*
X30747Y-53720D01*
X30736Y-53699D01*
X30728Y-53675D01*
X30726Y-53651D01*
X30728Y-53628D01*
X30734Y-53604D01*
X30745Y-53583D01*
X30761Y-53564D01*
X30779Y-53548D01*
X30800Y-53536D01*
X30824Y-53528D01*
X30848Y-53526D01*
X30871Y-53527D01*
X30895Y-53534D01*
X30916Y-53545D01*
X30936Y-53560D01*
X30952Y-53578D01*
X30964Y-53600D01*
X30971Y-53623D01*
X30974Y-53647D01*
X30975Y-53650D01*
X32375Y-56750D02*
X32372Y-56774D01*
X32365Y-56797D01*
X32354Y-56819D01*
X32338Y-56838D01*
X32319Y-56853D01*
X32298Y-56865D01*
X32275Y-56872D01*
X32250Y-56874D01*
X32227Y-56872D01*
X32204Y-56865D01*
X32182Y-56854D01*
X32163Y-56839D01*
X32147Y-56820D01*
X32136Y-56799D01*
X32128Y-56775D01*
X32126Y-56751D01*
X32128Y-56728D01*
X32134Y-56704D01*
X32145Y-56683D01*
X32161Y-56664D01*
X32179Y-56648D01*
X32200Y-56636D01*
X32224Y-56628D01*
X32248Y-56626D01*
X32271Y-56627D01*
X32295Y-56634D01*
X32316Y-56645D01*
X32336Y-56660D01*
X32352Y-56678D01*
X32364Y-56700D01*
X32371Y-56723D01*
X32374Y-56747D01*
X32375Y-56750D01*
X35875Y-57750D02*
X35872Y-57774D01*
X35865Y-57797D01*
X35854Y-57819D01*
X35838Y-57838D01*
X35819Y-57853D01*
X35798Y-57865D01*
X35775Y-57872D01*
X35750Y-57874D01*
X35727Y-57872D01*
X35704Y-57865D01*
X35682Y-57854D01*
X35663Y-57839D01*
X35647Y-57820D01*
X35636Y-57799D01*
X35628Y-57775D01*
X35626Y-57751D01*
X35628Y-57728D01*
X35634Y-57704D01*
X35645Y-57683D01*
X35661Y-57664D01*
X35679Y-57648D01*
X35700Y-57636D01*
X35724Y-57628D01*
X35748Y-57626D01*
X35771Y-57627D01*
X35795Y-57634D01*
X35816Y-57645D01*
X35836Y-57660D01*
X35852Y-57678D01*
X35864Y-57700D01*
X35871Y-57723D01*
X35874Y-57747D01*
X35875Y-57750D01*
X41625Y-68250D02*
X41622Y-68274D01*
X41615Y-68297D01*
X41604Y-68319D01*
X41588Y-68338D01*
X41569Y-68353D01*
X41548Y-68365D01*
X41525Y-68372D01*
X41500Y-68374D01*
X41477Y-68372D01*
X41454Y-68365D01*
X41432Y-68354D01*
X41413Y-68339D01*
X41397Y-68320D01*
X41386Y-68299D01*
X41378Y-68275D01*
X41376Y-68251D01*
X41378Y-68228D01*
X41384Y-68204D01*
X41395Y-68183D01*
X41411Y-68164D01*
X41429Y-68148D01*
X41450Y-68136D01*
X41474Y-68128D01*
X41498Y-68126D01*
X41521Y-68127D01*
X41545Y-68134D01*
X41566Y-68145D01*
X41586Y-68160D01*
X41602Y-68178D01*
X41614Y-68200D01*
X41621Y-68223D01*
X41624Y-68247D01*
X41625Y-68250D01*
X42525Y-68100D02*
X42522Y-68124D01*
X42515Y-68147D01*
X42504Y-68169D01*
X42488Y-68188D01*
X42469Y-68203D01*
X42448Y-68215D01*
X42425Y-68222D01*
X42400Y-68224D01*
X42377Y-68222D01*
X42354Y-68215D01*
X42332Y-68204D01*
X42313Y-68189D01*
X42297Y-68170D01*
X42286Y-68149D01*
X42278Y-68125D01*
X42276Y-68101D01*
X42278Y-68078D01*
X42284Y-68054D01*
X42295Y-68033D01*
X42311Y-68014D01*
X42329Y-67998D01*
X42350Y-67986D01*
X42374Y-67978D01*
X42398Y-67976D01*
X42421Y-67977D01*
X42445Y-67984D01*
X42466Y-67995D01*
X42486Y-68010D01*
X42502Y-68028D01*
X42514Y-68050D01*
X42521Y-68073D01*
X42524Y-68097D01*
X42525Y-68100D01*
X43425Y-67950D02*
X43422Y-67974D01*
X43415Y-67997D01*
X43404Y-68019D01*
X43388Y-68038D01*
X43369Y-68053D01*
X43348Y-68065D01*
X43325Y-68072D01*
X43300Y-68074D01*
X43277Y-68072D01*
X43254Y-68065D01*
X43232Y-68054D01*
X43213Y-68039D01*
X43197Y-68020D01*
X43186Y-67999D01*
X43178Y-67975D01*
X43176Y-67951D01*
X43178Y-67928D01*
X43184Y-67904D01*
X43195Y-67883D01*
X43211Y-67864D01*
X43229Y-67848D01*
X43250Y-67836D01*
X43274Y-67828D01*
X43298Y-67826D01*
X43321Y-67827D01*
X43345Y-67834D01*
X43366Y-67845D01*
X43386Y-67860D01*
X43402Y-67878D01*
X43414Y-67900D01*
X43421Y-67923D01*
X43424Y-67947D01*
X43425Y-67950D01*
X43625Y-58500D02*
X43622Y-58524D01*
X43615Y-58547D01*
X43604Y-58569D01*
X43588Y-58588D01*
X43569Y-58603D01*
X43548Y-58615D01*
X43525Y-58622D01*
X43500Y-58624D01*
X43477Y-58622D01*
X43454Y-58615D01*
X43432Y-58604D01*
X43413Y-58589D01*
X43397Y-58570D01*
X43386Y-58549D01*
X43378Y-58525D01*
X43376Y-58501D01*
X43378Y-58478D01*
X43384Y-58454D01*
X43395Y-58433D01*
X43411Y-58414D01*
X43429Y-58398D01*
X43450Y-58386D01*
X43474Y-58378D01*
X43498Y-58376D01*
X43521Y-58377D01*
X43545Y-58384D01*
X43566Y-58395D01*
X43586Y-58410D01*
X43602Y-58428D01*
X43614Y-58450D01*
X43621Y-58473D01*
X43624Y-58497D01*
X43625Y-58500D01*
X44875Y-56750D02*
X44872Y-56774D01*
X44865Y-56797D01*
X44854Y-56819D01*
X44838Y-56838D01*
X44819Y-56853D01*
X44798Y-56865D01*
X44775Y-56872D01*
X44750Y-56874D01*
X44727Y-56872D01*
X44704Y-56865D01*
X44682Y-56854D01*
X44663Y-56839D01*
X44647Y-56820D01*
X44636Y-56799D01*
X44628Y-56775D01*
X44626Y-56751D01*
X44628Y-56728D01*
X44634Y-56704D01*
X44645Y-56683D01*
X44661Y-56664D01*
X44679Y-56648D01*
X44700Y-56636D01*
X44724Y-56628D01*
X44748Y-56626D01*
X44771Y-56627D01*
X44795Y-56634D01*
X44816Y-56645D01*
X44836Y-56660D01*
X44852Y-56678D01*
X44864Y-56700D01*
X44871Y-56723D01*
X44874Y-56747D01*
X44875Y-56750D01*
X45425Y-57550D02*
X45422Y-57574D01*
X45415Y-57597D01*
X45404Y-57619D01*
X45388Y-57638D01*
X45369Y-57653D01*
X45348Y-57665D01*
X45325Y-57672D01*
X45300Y-57674D01*
X45277Y-57672D01*
X45254Y-57665D01*
X45232Y-57654D01*
X45213Y-57639D01*
X45197Y-57620D01*
X45186Y-57599D01*
X45178Y-57575D01*
X45176Y-57551D01*
X45178Y-57528D01*
X45184Y-57504D01*
X45195Y-57483D01*
X45211Y-57464D01*
X45229Y-57448D01*
X45250Y-57436D01*
X45274Y-57428D01*
X45298Y-57426D01*
X45321Y-57427D01*
X45345Y-57434D01*
X45366Y-57445D01*
X45386Y-57460D01*
X45402Y-57478D01*
X45414Y-57500D01*
X45421Y-57523D01*
X45424Y-57547D01*
X45425Y-57550D01*
X50125Y-41500D02*
X50122Y-41524D01*
X50115Y-41547D01*
X50104Y-41569D01*
X50088Y-41588D01*
X50069Y-41603D01*
X50048Y-41615D01*
X50025Y-41622D01*
X50000Y-41624D01*
X49977Y-41622D01*
X49954Y-41615D01*
X49932Y-41604D01*
X49913Y-41589D01*
X49897Y-41570D01*
X49886Y-41549D01*
X49878Y-41525D01*
X49876Y-41501D01*
X49878Y-41478D01*
X49884Y-41454D01*
X49895Y-41433D01*
X49911Y-41414D01*
X49929Y-41398D01*
X49950Y-41386D01*
X49974Y-41378D01*
X49998Y-41376D01*
X50021Y-41377D01*
X50045Y-41384D01*
X50066Y-41395D01*
X50086Y-41410D01*
X50102Y-41428D01*
X50114Y-41450D01*
X50121Y-41473D01*
X50124Y-41497D01*
X50125Y-41500D01*
X54125Y-53750D02*
X54122Y-53774D01*
X54115Y-53797D01*
X54104Y-53819D01*
X54088Y-53838D01*
X54069Y-53853D01*
X54048Y-53865D01*
X54025Y-53872D01*
X54000Y-53874D01*
X53977Y-53872D01*
X53954Y-53865D01*
X53932Y-53854D01*
X53913Y-53839D01*
X53897Y-53820D01*
X53886Y-53799D01*
X53878Y-53775D01*
X53876Y-53751D01*
X53878Y-53728D01*
X53884Y-53704D01*
X53895Y-53683D01*
X53911Y-53664D01*
X53929Y-53648D01*
X53950Y-53636D01*
X53974Y-53628D01*
X53998Y-53626D01*
X54021Y-53627D01*
X54045Y-53634D01*
X54066Y-53645D01*
X54086Y-53660D01*
X54102Y-53678D01*
X54114Y-53700D01*
X54121Y-53723D01*
X54124Y-53747D01*
X54125Y-53750D01*
X17250Y-16840D02*
X17250Y-17160D01*
X17410Y-17000D02*
X17090Y-17000D01*
X17250Y-22340D02*
X17250Y-22660D01*
X17410Y-22500D02*
X17090Y-22500D01*
X17250Y-27840D02*
X17250Y-28160D01*
X17410Y-28000D02*
X17090Y-28000D01*
X17250Y-28840D02*
X17250Y-29160D01*
X17410Y-29000D02*
X17090Y-29000D01*
X17250Y-30840D02*
X17250Y-31160D01*
X17410Y-31000D02*
X17090Y-31000D01*
X17250Y-35840D02*
X17250Y-36160D01*
X17410Y-36000D02*
X17090Y-36000D01*
X17850Y-58590D02*
X17850Y-58910D01*
X18010Y-58750D02*
X17690Y-58750D01*
X17850Y-63590D02*
X17850Y-63910D01*
X18010Y-63750D02*
X17690Y-63750D01*
X18250Y-17840D02*
X18250Y-18160D01*
X18410Y-18000D02*
X18090Y-18000D01*
X18250Y-23340D02*
X18250Y-23660D01*
X18410Y-23500D02*
X18090Y-23500D01*
X18500Y-41090D02*
X18500Y-41410D01*
X18660Y-41250D02*
X18340Y-41250D01*
X18500Y-42090D02*
X18500Y-42410D01*
X18660Y-42250D02*
X18340Y-42250D01*
X19250Y-16840D02*
X19250Y-17160D01*
X19410Y-17000D02*
X19090Y-17000D01*
X19250Y-22340D02*
X19250Y-22660D01*
X19410Y-22500D02*
X19090Y-22500D01*
X19750Y-27840D02*
X19750Y-28160D01*
X19910Y-28000D02*
X19590Y-28000D01*
X19750Y-28840D02*
X19750Y-29160D01*
X19910Y-29000D02*
X19590Y-29000D01*
X19750Y-30840D02*
X19750Y-31160D01*
X19910Y-31000D02*
X19590Y-31000D01*
X19750Y-35840D02*
X19750Y-36160D01*
X19910Y-36000D02*
X19590Y-36000D01*
X19750Y-42090D02*
X19750Y-42410D01*
X19910Y-42250D02*
X19590Y-42250D01*
X20850Y-58590D02*
X20850Y-58910D01*
X21010Y-58750D02*
X20690Y-58750D01*
X20850Y-63590D02*
X20850Y-63910D01*
X21010Y-63750D02*
X20690Y-63750D01*
X22250Y-27840D02*
X22250Y-28160D01*
X22410Y-28000D02*
X22090Y-28000D01*
X22250Y-28840D02*
X22250Y-29160D01*
X22410Y-29000D02*
X22090Y-29000D01*
X22250Y-30840D02*
X22250Y-31160D01*
X22410Y-31000D02*
X22090Y-31000D01*
X22250Y-35840D02*
X22250Y-36160D01*
X22410Y-36000D02*
X22090Y-36000D01*
X24750Y-27840D02*
X24750Y-28160D01*
X24910Y-28000D02*
X24590Y-28000D01*
X24750Y-28840D02*
X24750Y-29160D01*
X24910Y-29000D02*
X24590Y-29000D01*
X24750Y-30840D02*
X24750Y-31160D01*
X24910Y-31000D02*
X24590Y-31000D01*
X24750Y-35840D02*
X24750Y-36160D01*
X24910Y-36000D02*
X24590Y-36000D01*
X24750Y-42090D02*
X24750Y-42410D01*
X24910Y-42250D02*
X24590Y-42250D01*
X24850Y-55090D02*
X24850Y-55410D01*
X25010Y-55250D02*
X24690Y-55250D01*
X24850Y-61090D02*
X24850Y-61410D01*
X25010Y-61250D02*
X24690Y-61250D01*
X25850Y-55090D02*
X25850Y-55410D01*
X26010Y-55250D02*
X25690Y-55250D01*
X25850Y-61090D02*
X25850Y-61410D01*
X26010Y-61250D02*
X25690Y-61250D01*
X26000Y-30840D02*
X26000Y-31160D01*
X26160Y-31000D02*
X25840Y-31000D01*
X26000Y-35840D02*
X26000Y-36160D01*
X26160Y-36000D02*
X25840Y-36000D01*
X26850Y-55090D02*
X26850Y-55410D01*
X27010Y-55250D02*
X26690Y-55250D01*
X26850Y-61090D02*
X26850Y-61410D01*
X27010Y-61250D02*
X26690Y-61250D01*
X27000Y-37840D02*
X27000Y-38160D01*
X27160Y-38000D02*
X26840Y-38000D01*
X27000Y-40840D02*
X27000Y-41160D01*
X27160Y-41000D02*
X26840Y-41000D01*
X27250Y-27840D02*
X27250Y-28160D01*
X27410Y-28000D02*
X27090Y-28000D01*
X27250Y-28840D02*
X27250Y-29160D01*
X27410Y-29000D02*
X27090Y-29000D01*
X27250Y-30840D02*
X27250Y-31160D01*
X27410Y-31000D02*
X27090Y-31000D01*
X27250Y-35840D02*
X27250Y-36160D01*
X27410Y-36000D02*
X27090Y-36000D01*
X27850Y-55090D02*
X27850Y-55410D01*
X28010Y-55250D02*
X27690Y-55250D01*
X27850Y-61090D02*
X27850Y-61410D01*
X28010Y-61250D02*
X27690Y-61250D01*
X28000Y-37840D02*
X28000Y-38160D01*
X28160Y-38000D02*
X27840Y-38000D01*
X28000Y-40840D02*
X28000Y-41160D01*
X28160Y-41000D02*
X27840Y-41000D01*
X28850Y-55090D02*
X28850Y-55410D01*
X29010Y-55250D02*
X28690Y-55250D01*
X28850Y-61090D02*
X28850Y-61410D01*
X29010Y-61250D02*
X28690Y-61250D01*
X29000Y-37840D02*
X29000Y-38160D01*
X29160Y-38000D02*
X28840Y-38000D01*
X29000Y-40840D02*
X29000Y-41160D01*
X29160Y-41000D02*
X28840Y-41000D01*
X29750Y-27840D02*
X29750Y-28160D01*
X29910Y-28000D02*
X29590Y-28000D01*
X29750Y-28840D02*
X29750Y-29160D01*
X29910Y-29000D02*
X29590Y-29000D01*
X29750Y-30840D02*
X29750Y-31160D01*
X29910Y-31000D02*
X29590Y-31000D01*
X29750Y-35840D02*
X29750Y-36160D01*
X29910Y-36000D02*
X29590Y-36000D01*
X29850Y-49840D02*
X29850Y-50160D01*
X30010Y-50000D02*
X29690Y-50000D01*
X29850Y-50840D02*
X29850Y-51160D01*
X30010Y-51000D02*
X29690Y-51000D01*
X29850Y-51840D02*
X29850Y-52160D01*
X30010Y-52000D02*
X29690Y-52000D01*
X29850Y-52840D02*
X29850Y-53160D01*
X30010Y-53000D02*
X29690Y-53000D01*
X29850Y-55090D02*
X29850Y-55410D01*
X30010Y-55250D02*
X29690Y-55250D01*
X29850Y-61090D02*
X29850Y-61410D01*
X30010Y-61250D02*
X29690Y-61250D01*
X30000Y-37840D02*
X30000Y-38160D01*
X30160Y-38000D02*
X29840Y-38000D01*
X30000Y-40840D02*
X30000Y-41160D01*
X30160Y-41000D02*
X29840Y-41000D01*
X30850Y-55090D02*
X30850Y-55410D01*
X31010Y-55250D02*
X30690Y-55250D01*
X30850Y-61090D02*
X30850Y-61410D01*
X31010Y-61250D02*
X30690Y-61250D01*
X31000Y-37840D02*
X31000Y-38160D01*
X31160Y-38000D02*
X30840Y-38000D01*
X31000Y-40840D02*
X31000Y-41160D01*
X31160Y-41000D02*
X30840Y-41000D01*
X31850Y-55090D02*
X31850Y-55410D01*
X32010Y-55250D02*
X31690Y-55250D01*
X31850Y-61090D02*
X31850Y-61410D01*
X32010Y-61250D02*
X31690Y-61250D01*
X32000Y-37840D02*
X32000Y-38160D01*
X32160Y-38000D02*
X31840Y-38000D01*
X32000Y-40840D02*
X32000Y-41160D01*
X32160Y-41000D02*
X31840Y-41000D01*
X32250Y-27840D02*
X32250Y-28160D01*
X32410Y-28000D02*
X32090Y-28000D01*
X32250Y-28840D02*
X32250Y-29160D01*
X32410Y-29000D02*
X32090Y-29000D01*
X32250Y-30840D02*
X32250Y-31160D01*
X32410Y-31000D02*
X32090Y-31000D01*
X32250Y-35840D02*
X32250Y-36160D01*
X32410Y-36000D02*
X32090Y-36000D01*
X32850Y-52340D02*
X32850Y-52660D01*
X33010Y-52500D02*
X32690Y-52500D01*
X32850Y-53340D02*
X32850Y-53660D01*
X33010Y-53500D02*
X32690Y-53500D01*
X32850Y-55090D02*
X32850Y-55410D01*
X33010Y-55250D02*
X32690Y-55250D01*
X32850Y-61090D02*
X32850Y-61410D01*
X33010Y-61250D02*
X32690Y-61250D01*
X33000Y-37840D02*
X33000Y-38160D01*
X33160Y-38000D02*
X32840Y-38000D01*
X33000Y-40840D02*
X33000Y-41160D01*
X33160Y-41000D02*
X32840Y-41000D01*
X33850Y-53340D02*
X33850Y-53660D01*
X34010Y-53500D02*
X33690Y-53500D01*
X33850Y-55090D02*
X33850Y-55410D01*
X34010Y-55250D02*
X33690Y-55250D01*
X33850Y-61090D02*
X33850Y-61410D01*
X34010Y-61250D02*
X33690Y-61250D01*
X33850Y-62840D02*
X33850Y-63160D01*
X34010Y-63000D02*
X33690Y-63000D01*
X34000Y-37840D02*
X34000Y-38160D01*
X34160Y-38000D02*
X33840Y-38000D01*
X34000Y-40840D02*
X34000Y-41160D01*
X34160Y-41000D02*
X33840Y-41000D01*
X34750Y-27840D02*
X34750Y-28160D01*
X34910Y-28000D02*
X34590Y-28000D01*
X34750Y-28840D02*
X34750Y-29160D01*
X34910Y-29000D02*
X34590Y-29000D01*
X34750Y-30840D02*
X34750Y-31160D01*
X34910Y-31000D02*
X34590Y-31000D01*
X34750Y-35840D02*
X34750Y-36160D01*
X34910Y-36000D02*
X34590Y-36000D01*
X34850Y-49840D02*
X34850Y-50160D01*
X35010Y-50000D02*
X34690Y-50000D01*
X34850Y-50840D02*
X34850Y-51160D01*
X35010Y-51000D02*
X34690Y-51000D01*
X34850Y-53340D02*
X34850Y-53660D01*
X35010Y-53500D02*
X34690Y-53500D01*
X34850Y-55090D02*
X34850Y-55410D01*
X35010Y-55250D02*
X34690Y-55250D01*
X34850Y-61090D02*
X34850Y-61410D01*
X35010Y-61250D02*
X34690Y-61250D01*
X34850Y-62840D02*
X34850Y-63160D01*
X35010Y-63000D02*
X34690Y-63000D01*
X35850Y-55090D02*
X35850Y-55410D01*
X36010Y-55250D02*
X35690Y-55250D01*
X35850Y-61090D02*
X35850Y-61410D01*
X36010Y-61250D02*
X35690Y-61250D01*
X36850Y-55090D02*
X36850Y-55410D01*
X37010Y-55250D02*
X36690Y-55250D01*
X36850Y-61090D02*
X36850Y-61410D01*
X37010Y-61250D02*
X36690Y-61250D01*
X36850Y-63090D02*
X36850Y-63410D01*
X37010Y-63250D02*
X36690Y-63250D01*
X36850Y-64690D02*
X36850Y-65010D01*
X37010Y-64850D02*
X36690Y-64850D01*
X36850Y-65690D02*
X36850Y-66010D01*
X37010Y-65850D02*
X36690Y-65850D01*
X37750Y-33190D02*
X37750Y-33510D01*
X37910Y-33350D02*
X37590Y-33350D01*
X37750Y-34990D02*
X37750Y-35310D01*
X37910Y-35150D02*
X37590Y-35150D01*
X37750Y-38190D02*
X37750Y-38510D01*
X37910Y-38350D02*
X37590Y-38350D01*
X37750Y-39990D02*
X37750Y-40310D01*
X37910Y-40150D02*
X37590Y-40150D01*
X37850Y-55090D02*
X37850Y-55410D01*
X38010Y-55250D02*
X37690Y-55250D01*
X37850Y-61090D02*
X37850Y-61410D01*
X38010Y-61250D02*
X37690Y-61250D01*
X38500Y-30340D02*
X38500Y-30660D01*
X38660Y-30500D02*
X38340Y-30500D01*
X38850Y-55090D02*
X38850Y-55410D01*
X39010Y-55250D02*
X38690Y-55250D01*
X38850Y-61090D02*
X38850Y-61410D01*
X39010Y-61250D02*
X38690Y-61250D01*
X38850Y-63090D02*
X38850Y-63410D01*
X39010Y-63250D02*
X38690Y-63250D01*
X38850Y-64690D02*
X38850Y-65010D01*
X39010Y-64850D02*
X38690Y-64850D01*
X38850Y-65690D02*
X38850Y-66010D01*
X39010Y-65850D02*
X38690Y-65850D01*
X39500Y-30340D02*
X39500Y-30660D01*
X39660Y-30500D02*
X39340Y-30500D01*
X39850Y-55090D02*
X39850Y-55410D01*
X40010Y-55250D02*
X39690Y-55250D01*
X39850Y-61090D02*
X39850Y-61410D01*
X40010Y-61250D02*
X39690Y-61250D01*
X40250Y-33190D02*
X40250Y-33510D01*
X40410Y-33350D02*
X40090Y-33350D01*
X40250Y-34990D02*
X40250Y-35310D01*
X40410Y-35150D02*
X40090Y-35150D01*
X40250Y-38190D02*
X40250Y-38510D01*
X40410Y-38350D02*
X40090Y-38350D01*
X40250Y-39990D02*
X40250Y-40310D01*
X40410Y-40150D02*
X40090Y-40150D01*
X40850Y-55090D02*
X40850Y-55410D01*
X41010Y-55250D02*
X40690Y-55250D01*
X40850Y-61090D02*
X40850Y-61410D01*
X41010Y-61250D02*
X40690Y-61250D01*
X41850Y-55090D02*
X41850Y-55410D01*
X42010Y-55250D02*
X41690Y-55250D01*
X41850Y-61090D02*
X41850Y-61410D01*
X42010Y-61250D02*
X41690Y-61250D01*
X42000Y-42590D02*
X42000Y-42910D01*
X42160Y-42750D02*
X41840Y-42750D01*
X42000Y-43590D02*
X42000Y-43910D01*
X42160Y-43750D02*
X41840Y-43750D01*
X42000Y-44590D02*
X42000Y-44910D01*
X42160Y-44750D02*
X41840Y-44750D01*
X42000Y-45590D02*
X42000Y-45910D01*
X42160Y-45750D02*
X41840Y-45750D01*
X42850Y-55090D02*
X42850Y-55410D01*
X43010Y-55250D02*
X42690Y-55250D01*
X42850Y-61090D02*
X42850Y-61410D01*
X43010Y-61250D02*
X42690Y-61250D01*
X43000Y-30340D02*
X43000Y-30660D01*
X43160Y-30500D02*
X42840Y-30500D01*
X43000Y-35340D02*
X43000Y-35660D01*
X43160Y-35500D02*
X42840Y-35500D01*
X43250Y-38190D02*
X43250Y-38510D01*
X43410Y-38350D02*
X43090Y-38350D01*
X43250Y-39990D02*
X43250Y-40310D01*
X43410Y-40150D02*
X43090Y-40150D01*
X43850Y-55090D02*
X43850Y-55410D01*
X44010Y-55250D02*
X43690Y-55250D01*
X43850Y-61090D02*
X43850Y-61410D01*
X44010Y-61250D02*
X43690Y-61250D01*
X45000Y-42590D02*
X45000Y-42910D01*
X45160Y-42750D02*
X44840Y-42750D01*
X45000Y-43590D02*
X45000Y-43910D01*
X45160Y-43750D02*
X44840Y-43750D01*
X45000Y-44590D02*
X45000Y-44910D01*
X45160Y-44750D02*
X44840Y-44750D01*
X45000Y-45590D02*
X45000Y-45910D01*
X45160Y-45750D02*
X44840Y-45750D01*
X45750Y-28840D02*
X45750Y-29160D01*
X45910Y-29000D02*
X45590Y-29000D01*
X45750Y-31340D02*
X45750Y-31660D01*
X45910Y-31500D02*
X45590Y-31500D01*
X45750Y-33590D02*
X45750Y-33910D01*
X45910Y-33750D02*
X45590Y-33750D01*
X45750Y-38190D02*
X45750Y-38510D01*
X45910Y-38350D02*
X45590Y-38350D01*
X45750Y-39990D02*
X45750Y-40310D01*
X45910Y-40150D02*
X45590Y-40150D01*
X46500Y-48965D02*
X46500Y-49285D01*
X46660Y-49125D02*
X46340Y-49125D01*
X46500Y-49590D02*
X46500Y-49910D01*
X46660Y-49750D02*
X46340Y-49750D01*
X48000Y-38090D02*
X48000Y-38410D01*
X48160Y-38250D02*
X47840Y-38250D01*
X48250Y-42590D02*
X48250Y-42910D01*
X48410Y-42750D02*
X48090Y-42750D01*
X48250Y-43590D02*
X48250Y-43910D01*
X48410Y-43750D02*
X48090Y-43750D01*
X48250Y-44590D02*
X48250Y-44910D01*
X48410Y-44750D02*
X48090Y-44750D01*
X48250Y-45590D02*
X48250Y-45910D01*
X48410Y-45750D02*
X48090Y-45750D01*
X48250Y-46590D02*
X48250Y-46910D01*
X48410Y-46750D02*
X48090Y-46750D01*
X48250Y-47590D02*
X48250Y-47910D01*
X48410Y-47750D02*
X48090Y-47750D01*
X48250Y-48590D02*
X48250Y-48910D01*
X48410Y-48750D02*
X48090Y-48750D01*
X48250Y-49590D02*
X48250Y-49910D01*
X48410Y-49750D02*
X48090Y-49750D01*
X50750Y-28840D02*
X50750Y-29160D01*
X50910Y-29000D02*
X50590Y-29000D01*
X50750Y-31340D02*
X50750Y-31660D01*
X50910Y-31500D02*
X50590Y-31500D01*
X50750Y-33590D02*
X50750Y-33910D01*
X50910Y-33750D02*
X50590Y-33750D01*
X51250Y-42590D02*
X51250Y-42910D01*
X51410Y-42750D02*
X51090Y-42750D01*
X51250Y-43590D02*
X51250Y-43910D01*
X51410Y-43750D02*
X51090Y-43750D01*
X51250Y-44590D02*
X51250Y-44910D01*
X51410Y-44750D02*
X51090Y-44750D01*
X51250Y-45590D02*
X51250Y-45910D01*
X51410Y-45750D02*
X51090Y-45750D01*
X51250Y-46590D02*
X51250Y-46910D01*
X51410Y-46750D02*
X51090Y-46750D01*
X51250Y-47590D02*
X51250Y-47910D01*
X51410Y-47750D02*
X51090Y-47750D01*
X51250Y-48590D02*
X51250Y-48910D01*
X51410Y-48750D02*
X51090Y-48750D01*
X51250Y-49590D02*
X51250Y-49910D01*
X51410Y-49750D02*
X51090Y-49750D01*
X52000Y-28840D02*
X52000Y-29160D01*
X52160Y-29000D02*
X51840Y-29000D01*
X52625Y-44340D02*
X52625Y-44660D01*
X52785Y-44500D02*
X52465Y-44500D01*
X53000Y-28840D02*
X53000Y-29160D01*
X53160Y-29000D02*
X52840Y-29000D01*
X53000Y-38090D02*
X53000Y-38410D01*
X53160Y-38250D02*
X52840Y-38250D01*
X53000Y-45715D02*
X53000Y-46035D01*
X53160Y-45875D02*
X52840Y-45875D01*
X53000Y-46340D02*
X53000Y-46660D01*
X53160Y-46500D02*
X52840Y-46500D01*
X53000Y-47590D02*
X53000Y-47910D01*
X53160Y-47750D02*
X52840Y-47750D01*
X53000Y-48215D02*
X53000Y-48535D01*
X53160Y-48375D02*
X52840Y-48375D01*
X53000Y-49215D02*
X53000Y-49535D01*
X53160Y-49375D02*
X52840Y-49375D01*
X53000Y-49840D02*
X53000Y-50160D01*
X53160Y-50000D02*
X52840Y-50000D01*
X53250Y-44340D02*
X53250Y-44660D01*
X53410Y-44500D02*
X53090Y-44500D01*
X54750Y-27340D02*
X54750Y-27660D01*
X54910Y-27500D02*
X54590Y-27500D01*
X54750Y-28340D02*
X54750Y-28660D01*
X54910Y-28500D02*
X54590Y-28500D01*
X54750Y-29340D02*
X54750Y-29660D01*
X54910Y-29500D02*
X54590Y-29500D01*
X56750Y-27340D02*
X56750Y-27660D01*
X56910Y-27500D02*
X56590Y-27500D01*
X56750Y-28340D02*
X56750Y-28660D01*
X56910Y-28500D02*
X56590Y-28500D01*
X56750Y-29340D02*
X56750Y-29660D01*
X56910Y-29500D02*
X56590Y-29500D01*
X53177Y-33758D02*
X53173Y-33792D01*
X53163Y-33825D01*
X53147Y-33855D01*
X53125Y-33882D01*
X53098Y-33904D01*
X53068Y-33921D01*
X53035Y-33931D01*
X53001Y-33934D01*
X52967Y-33931D01*
X52934Y-33922D01*
X52904Y-33906D01*
X52877Y-33884D01*
X52854Y-33857D01*
X52838Y-33827D01*
X52827Y-33794D01*
X52824Y-33760D01*
X52826Y-33727D01*
X52836Y-33693D01*
X52852Y-33663D01*
X52873Y-33636D01*
X52899Y-33613D01*
X52930Y-33596D01*
X52962Y-33586D01*
X52997Y-33582D01*
X53030Y-33584D01*
X53064Y-33593D01*
X53094Y-33609D01*
X53122Y-33630D01*
X53144Y-33656D01*
X53161Y-33687D01*
X53172Y-33719D01*
X53176Y-33754D01*
X53177Y-33758D01*
X52823Y-33581D02*
X53177Y-33935D01*
X53177Y-33581D02*
X52823Y-33935D01*
X53177Y-34742D02*
X53173Y-34776D01*
X53163Y-34809D01*
X53147Y-34839D01*
X53125Y-34866D01*
X53098Y-34888D01*
X53068Y-34905D01*
X53035Y-34915D01*
X53001Y-34918D01*
X52967Y-34915D01*
X52934Y-34906D01*
X52904Y-34890D01*
X52877Y-34868D01*
X52854Y-34841D01*
X52838Y-34811D01*
X52827Y-34778D01*
X52824Y-34744D01*
X52826Y-34711D01*
X52836Y-34677D01*
X52852Y-34647D01*
X52873Y-34620D01*
X52899Y-34597D01*
X52930Y-34580D01*
X52962Y-34570D01*
X52997Y-34566D01*
X53030Y-34568D01*
X53064Y-34577D01*
X53094Y-34593D01*
X53122Y-34614D01*
X53144Y-34640D01*
X53161Y-34671D01*
X53172Y-34703D01*
X53176Y-34738D01*
X53177Y-34742D01*
X52823Y-34565D02*
X53177Y-34919D01*
X53177Y-34565D02*
X52823Y-34919D01*
X53967Y-33758D02*
X53963Y-33792D01*
X53953Y-33825D01*
X53937Y-33855D01*
X53915Y-33882D01*
X53888Y-33904D01*
X53858Y-33921D01*
X53825Y-33931D01*
X53791Y-33934D01*
X53757Y-33931D01*
X53724Y-33922D01*
X53694Y-33906D01*
X53667Y-33884D01*
X53644Y-33857D01*
X53628Y-33827D01*
X53617Y-33794D01*
X53614Y-33760D01*
X53616Y-33727D01*
X53626Y-33693D01*
X53642Y-33663D01*
X53663Y-33636D01*
X53689Y-33613D01*
X53720Y-33596D01*
X53752Y-33586D01*
X53787Y-33582D01*
X53820Y-33584D01*
X53854Y-33593D01*
X53884Y-33609D01*
X53912Y-33630D01*
X53934Y-33656D01*
X53951Y-33687D01*
X53962Y-33719D01*
X53966Y-33754D01*
X53967Y-33758D01*
X53613Y-33581D02*
X53967Y-33935D01*
X53967Y-33581D02*
X53613Y-33935D01*
X53967Y-34742D02*
X53963Y-34776D01*
X53953Y-34809D01*
X53937Y-34839D01*
X53915Y-34866D01*
X53888Y-34888D01*
X53858Y-34905D01*
X53825Y-34915D01*
X53791Y-34918D01*
X53757Y-34915D01*
X53724Y-34906D01*
X53694Y-34890D01*
X53667Y-34868D01*
X53644Y-34841D01*
X53628Y-34811D01*
X53617Y-34778D01*
X53614Y-34744D01*
X53616Y-34711D01*
X53626Y-34677D01*
X53642Y-34647D01*
X53663Y-34620D01*
X53689Y-34597D01*
X53720Y-34580D01*
X53752Y-34570D01*
X53787Y-34566D01*
X53820Y-34568D01*
X53854Y-34577D01*
X53884Y-34593D01*
X53912Y-34614D01*
X53934Y-34640D01*
X53951Y-34671D01*
X53962Y-34703D01*
X53966Y-34738D01*
X53967Y-34742D01*
X53613Y-34565D02*
X53967Y-34919D01*
X53967Y-34565D02*
X53613Y-34919D01*
X24446Y-13000D02*
X24442Y-13038D01*
X24431Y-13074D01*
X24413Y-13108D01*
X24389Y-13138D01*
X24359Y-13162D01*
X24325Y-13180D01*
X24289Y-13191D01*
X24251Y-13195D01*
X24214Y-13192D01*
X24177Y-13181D01*
X24143Y-13164D01*
X24113Y-13140D01*
X24089Y-13110D01*
X24070Y-13077D01*
X24059Y-13040D01*
X24055Y-13002D01*
X24058Y-12965D01*
X24068Y-12928D01*
X24086Y-12894D01*
X24110Y-12864D01*
X24139Y-12840D01*
X24172Y-12821D01*
X24208Y-12809D01*
X24246Y-12805D01*
X24284Y-12807D01*
X24320Y-12818D01*
X24355Y-12835D01*
X24385Y-12859D01*
X24410Y-12888D01*
X24429Y-12921D01*
X24441Y-12957D01*
X24445Y-12995D01*
X24446Y-13000D01*
X24054Y-13000D02*
X24446Y-13000D01*
X25446Y-13000D02*
X25442Y-13038D01*
X25431Y-13074D01*
X25413Y-13108D01*
X25389Y-13138D01*
X25359Y-13162D01*
X25325Y-13180D01*
X25289Y-13191D01*
X25251Y-13195D01*
X25214Y-13192D01*
X25177Y-13181D01*
X25143Y-13164D01*
X25113Y-13140D01*
X25089Y-13110D01*
X25070Y-13077D01*
X25059Y-13040D01*
X25055Y-13002D01*
X25058Y-12965D01*
X25068Y-12928D01*
X25086Y-12894D01*
X25110Y-12864D01*
X25139Y-12840D01*
X25172Y-12821D01*
X25208Y-12809D01*
X25246Y-12805D01*
X25284Y-12807D01*
X25320Y-12818D01*
X25355Y-12835D01*
X25385Y-12859D01*
X25410Y-12888D01*
X25429Y-12921D01*
X25441Y-12957D01*
X25445Y-12995D01*
X25446Y-13000D01*
X25054Y-13000D02*
X25446Y-13000D01*
X26446Y-13000D02*
X26442Y-13038D01*
X26431Y-13074D01*
X26413Y-13108D01*
X26389Y-13138D01*
X26359Y-13162D01*
X26325Y-13180D01*
X26289Y-13191D01*
X26251Y-13195D01*
X26214Y-13192D01*
X26177Y-13181D01*
X26143Y-13164D01*
X26113Y-13140D01*
X26089Y-13110D01*
X26070Y-13077D01*
X26059Y-13040D01*
X26055Y-13002D01*
X26058Y-12965D01*
X26068Y-12928D01*
X26086Y-12894D01*
X26110Y-12864D01*
X26139Y-12840D01*
X26172Y-12821D01*
X26208Y-12809D01*
X26246Y-12805D01*
X26284Y-12807D01*
X26320Y-12818D01*
X26355Y-12835D01*
X26385Y-12859D01*
X26410Y-12888D01*
X26429Y-12921D01*
X26441Y-12957D01*
X26445Y-12995D01*
X26446Y-13000D01*
X26054Y-13000D02*
X26446Y-13000D01*
X27446Y-13000D02*
X27442Y-13038D01*
X27431Y-13074D01*
X27413Y-13108D01*
X27389Y-13138D01*
X27359Y-13162D01*
X27325Y-13180D01*
X27289Y-13191D01*
X27251Y-13195D01*
X27214Y-13192D01*
X27177Y-13181D01*
X27143Y-13164D01*
X27113Y-13140D01*
X27089Y-13110D01*
X27070Y-13077D01*
X27059Y-13040D01*
X27055Y-13002D01*
X27058Y-12965D01*
X27068Y-12928D01*
X27086Y-12894D01*
X27110Y-12864D01*
X27139Y-12840D01*
X27172Y-12821D01*
X27208Y-12809D01*
X27246Y-12805D01*
X27284Y-12807D01*
X27320Y-12818D01*
X27355Y-12835D01*
X27385Y-12859D01*
X27410Y-12888D01*
X27429Y-12921D01*
X27441Y-12957D01*
X27445Y-12995D01*
X27446Y-13000D01*
X27054Y-13000D02*
X27446Y-13000D01*
X28446Y-13000D02*
X28442Y-13038D01*
X28431Y-13074D01*
X28413Y-13108D01*
X28389Y-13138D01*
X28359Y-13162D01*
X28325Y-13180D01*
X28289Y-13191D01*
X28251Y-13195D01*
X28214Y-13192D01*
X28177Y-13181D01*
X28143Y-13164D01*
X28113Y-13140D01*
X28089Y-13110D01*
X28070Y-13077D01*
X28059Y-13040D01*
X28055Y-13002D01*
X28058Y-12965D01*
X28068Y-12928D01*
X28086Y-12894D01*
X28110Y-12864D01*
X28139Y-12840D01*
X28172Y-12821D01*
X28208Y-12809D01*
X28246Y-12805D01*
X28284Y-12807D01*
X28320Y-12818D01*
X28355Y-12835D01*
X28385Y-12859D01*
X28410Y-12888D01*
X28429Y-12921D01*
X28441Y-12957D01*
X28445Y-12995D01*
X28446Y-13000D01*
X28054Y-13000D02*
X28446Y-13000D01*
X29446Y-13000D02*
X29442Y-13038D01*
X29431Y-13074D01*
X29413Y-13108D01*
X29389Y-13138D01*
X29359Y-13162D01*
X29325Y-13180D01*
X29289Y-13191D01*
X29251Y-13195D01*
X29214Y-13192D01*
X29177Y-13181D01*
X29143Y-13164D01*
X29113Y-13140D01*
X29089Y-13110D01*
X29070Y-13077D01*
X29059Y-13040D01*
X29055Y-13002D01*
X29058Y-12965D01*
X29068Y-12928D01*
X29086Y-12894D01*
X29110Y-12864D01*
X29139Y-12840D01*
X29172Y-12821D01*
X29208Y-12809D01*
X29246Y-12805D01*
X29284Y-12807D01*
X29320Y-12818D01*
X29355Y-12835D01*
X29385Y-12859D01*
X29410Y-12888D01*
X29429Y-12921D01*
X29441Y-12957D01*
X29445Y-12995D01*
X29446Y-13000D01*
X29054Y-13000D02*
X29446Y-13000D01*
X30446Y-13000D02*
X30442Y-13038D01*
X30431Y-13074D01*
X30413Y-13108D01*
X30389Y-13138D01*
X30359Y-13162D01*
X30325Y-13180D01*
X30289Y-13191D01*
X30251Y-13195D01*
X30214Y-13192D01*
X30177Y-13181D01*
X30143Y-13164D01*
X30113Y-13140D01*
X30089Y-13110D01*
X30070Y-13077D01*
X30059Y-13040D01*
X30055Y-13002D01*
X30058Y-12965D01*
X30068Y-12928D01*
X30086Y-12894D01*
X30110Y-12864D01*
X30139Y-12840D01*
X30172Y-12821D01*
X30208Y-12809D01*
X30246Y-12805D01*
X30284Y-12807D01*
X30320Y-12818D01*
X30355Y-12835D01*
X30385Y-12859D01*
X30410Y-12888D01*
X30429Y-12921D01*
X30441Y-12957D01*
X30445Y-12995D01*
X30446Y-13000D01*
X30054Y-13000D02*
X30446Y-13000D01*
X31446Y-13000D02*
X31442Y-13038D01*
X31431Y-13074D01*
X31413Y-13108D01*
X31389Y-13138D01*
X31359Y-13162D01*
X31325Y-13180D01*
X31289Y-13191D01*
X31251Y-13195D01*
X31214Y-13192D01*
X31177Y-13181D01*
X31143Y-13164D01*
X31113Y-13140D01*
X31089Y-13110D01*
X31070Y-13077D01*
X31059Y-13040D01*
X31055Y-13002D01*
X31058Y-12965D01*
X31068Y-12928D01*
X31086Y-12894D01*
X31110Y-12864D01*
X31139Y-12840D01*
X31172Y-12821D01*
X31208Y-12809D01*
X31246Y-12805D01*
X31284Y-12807D01*
X31320Y-12818D01*
X31355Y-12835D01*
X31385Y-12859D01*
X31410Y-12888D01*
X31429Y-12921D01*
X31441Y-12957D01*
X31445Y-12995D01*
X31446Y-13000D01*
X31054Y-13000D02*
X31446Y-13000D01*
X32446Y-13000D02*
X32442Y-13038D01*
X32431Y-13074D01*
X32413Y-13108D01*
X32389Y-13138D01*
X32359Y-13162D01*
X32325Y-13180D01*
X32289Y-13191D01*
X32251Y-13195D01*
X32214Y-13192D01*
X32177Y-13181D01*
X32143Y-13164D01*
X32113Y-13140D01*
X32089Y-13110D01*
X32070Y-13077D01*
X32059Y-13040D01*
X32055Y-13002D01*
X32058Y-12965D01*
X32068Y-12928D01*
X32086Y-12894D01*
X32110Y-12864D01*
X32139Y-12840D01*
X32172Y-12821D01*
X32208Y-12809D01*
X32246Y-12805D01*
X32284Y-12807D01*
X32320Y-12818D01*
X32355Y-12835D01*
X32385Y-12859D01*
X32410Y-12888D01*
X32429Y-12921D01*
X32441Y-12957D01*
X32445Y-12995D01*
X32446Y-13000D01*
X32054Y-13000D02*
X32446Y-13000D01*
X33446Y-13000D02*
X33442Y-13038D01*
X33431Y-13074D01*
X33413Y-13108D01*
X33389Y-13138D01*
X33359Y-13162D01*
X33325Y-13180D01*
X33289Y-13191D01*
X33251Y-13195D01*
X33214Y-13192D01*
X33177Y-13181D01*
X33143Y-13164D01*
X33113Y-13140D01*
X33089Y-13110D01*
X33070Y-13077D01*
X33059Y-13040D01*
X33055Y-13002D01*
X33058Y-12965D01*
X33068Y-12928D01*
X33086Y-12894D01*
X33110Y-12864D01*
X33139Y-12840D01*
X33172Y-12821D01*
X33208Y-12809D01*
X33246Y-12805D01*
X33284Y-12807D01*
X33320Y-12818D01*
X33355Y-12835D01*
X33385Y-12859D01*
X33410Y-12888D01*
X33429Y-12921D01*
X33441Y-12957D01*
X33445Y-12995D01*
X33446Y-13000D01*
X33054Y-13000D02*
X33446Y-13000D01*
X34446Y-13000D02*
X34442Y-13038D01*
X34431Y-13074D01*
X34413Y-13108D01*
X34389Y-13138D01*
X34359Y-13162D01*
X34325Y-13180D01*
X34289Y-13191D01*
X34251Y-13195D01*
X34214Y-13192D01*
X34177Y-13181D01*
X34143Y-13164D01*
X34113Y-13140D01*
X34089Y-13110D01*
X34070Y-13077D01*
X34059Y-13040D01*
X34055Y-13002D01*
X34058Y-12965D01*
X34068Y-12928D01*
X34086Y-12894D01*
X34110Y-12864D01*
X34139Y-12840D01*
X34172Y-12821D01*
X34208Y-12809D01*
X34246Y-12805D01*
X34284Y-12807D01*
X34320Y-12818D01*
X34355Y-12835D01*
X34385Y-12859D01*
X34410Y-12888D01*
X34429Y-12921D01*
X34441Y-12957D01*
X34445Y-12995D01*
X34446Y-13000D01*
X34054Y-13000D02*
X34446Y-13000D01*
X35446Y-13000D02*
X35442Y-13038D01*
X35431Y-13074D01*
X35413Y-13108D01*
X35389Y-13138D01*
X35359Y-13162D01*
X35325Y-13180D01*
X35289Y-13191D01*
X35251Y-13195D01*
X35214Y-13192D01*
X35177Y-13181D01*
X35143Y-13164D01*
X35113Y-13140D01*
X35089Y-13110D01*
X35070Y-13077D01*
X35059Y-13040D01*
X35055Y-13002D01*
X35058Y-12965D01*
X35068Y-12928D01*
X35086Y-12894D01*
X35110Y-12864D01*
X35139Y-12840D01*
X35172Y-12821D01*
X35208Y-12809D01*
X35246Y-12805D01*
X35284Y-12807D01*
X35320Y-12818D01*
X35355Y-12835D01*
X35385Y-12859D01*
X35410Y-12888D01*
X35429Y-12921D01*
X35441Y-12957D01*
X35445Y-12995D01*
X35446Y-13000D01*
X35054Y-13000D02*
X35446Y-13000D01*
X36446Y-13000D02*
X36442Y-13038D01*
X36431Y-13074D01*
X36413Y-13108D01*
X36389Y-13138D01*
X36359Y-13162D01*
X36325Y-13180D01*
X36289Y-13191D01*
X36251Y-13195D01*
X36214Y-13192D01*
X36177Y-13181D01*
X36143Y-13164D01*
X36113Y-13140D01*
X36089Y-13110D01*
X36070Y-13077D01*
X36059Y-13040D01*
X36055Y-13002D01*
X36058Y-12965D01*
X36068Y-12928D01*
X36086Y-12894D01*
X36110Y-12864D01*
X36139Y-12840D01*
X36172Y-12821D01*
X36208Y-12809D01*
X36246Y-12805D01*
X36284Y-12807D01*
X36320Y-12818D01*
X36355Y-12835D01*
X36385Y-12859D01*
X36410Y-12888D01*
X36429Y-12921D01*
X36441Y-12957D01*
X36445Y-12995D01*
X36446Y-13000D01*
X36054Y-13000D02*
X36446Y-13000D01*
X37446Y-13000D02*
X37442Y-13038D01*
X37431Y-13074D01*
X37413Y-13108D01*
X37389Y-13138D01*
X37359Y-13162D01*
X37325Y-13180D01*
X37289Y-13191D01*
X37251Y-13195D01*
X37214Y-13192D01*
X37177Y-13181D01*
X37143Y-13164D01*
X37113Y-13140D01*
X37089Y-13110D01*
X37070Y-13077D01*
X37059Y-13040D01*
X37055Y-13002D01*
X37058Y-12965D01*
X37068Y-12928D01*
X37086Y-12894D01*
X37110Y-12864D01*
X37139Y-12840D01*
X37172Y-12821D01*
X37208Y-12809D01*
X37246Y-12805D01*
X37284Y-12807D01*
X37320Y-12818D01*
X37355Y-12835D01*
X37385Y-12859D01*
X37410Y-12888D01*
X37429Y-12921D01*
X37441Y-12957D01*
X37445Y-12995D01*
X37446Y-13000D01*
X37054Y-13000D02*
X37446Y-13000D01*
X38446Y-13000D02*
X38442Y-13038D01*
X38431Y-13074D01*
X38413Y-13108D01*
X38389Y-13138D01*
X38359Y-13162D01*
X38325Y-13180D01*
X38289Y-13191D01*
X38251Y-13195D01*
X38214Y-13192D01*
X38177Y-13181D01*
X38143Y-13164D01*
X38113Y-13140D01*
X38089Y-13110D01*
X38070Y-13077D01*
X38059Y-13040D01*
X38055Y-13002D01*
X38058Y-12965D01*
X38068Y-12928D01*
X38086Y-12894D01*
X38110Y-12864D01*
X38139Y-12840D01*
X38172Y-12821D01*
X38208Y-12809D01*
X38246Y-12805D01*
X38284Y-12807D01*
X38320Y-12818D01*
X38355Y-12835D01*
X38385Y-12859D01*
X38410Y-12888D01*
X38429Y-12921D01*
X38441Y-12957D01*
X38445Y-12995D01*
X38446Y-13000D01*
X38054Y-13000D02*
X38446Y-13000D01*
X39446Y-13000D02*
X39442Y-13038D01*
X39431Y-13074D01*
X39413Y-13108D01*
X39389Y-13138D01*
X39359Y-13162D01*
X39325Y-13180D01*
X39289Y-13191D01*
X39251Y-13195D01*
X39214Y-13192D01*
X39177Y-13181D01*
X39143Y-13164D01*
X39113Y-13140D01*
X39089Y-13110D01*
X39070Y-13077D01*
X39059Y-13040D01*
X39055Y-13002D01*
X39058Y-12965D01*
X39068Y-12928D01*
X39086Y-12894D01*
X39110Y-12864D01*
X39139Y-12840D01*
X39172Y-12821D01*
X39208Y-12809D01*
X39246Y-12805D01*
X39284Y-12807D01*
X39320Y-12818D01*
X39355Y-12835D01*
X39385Y-12859D01*
X39410Y-12888D01*
X39429Y-12921D01*
X39441Y-12957D01*
X39445Y-12995D01*
X39446Y-13000D01*
X39054Y-13000D02*
X39446Y-13000D01*
X18050Y-48750D02*
X18046Y-48788D01*
X18034Y-48826D01*
X18016Y-48860D01*
X17991Y-48890D01*
X17961Y-48915D01*
X17927Y-48934D01*
X17890Y-48945D01*
X17851Y-48949D01*
X17813Y-48946D01*
X17776Y-48935D01*
X17741Y-48917D01*
X17711Y-48892D01*
X17685Y-48862D01*
X17667Y-48828D01*
X17655Y-48791D01*
X17651Y-48752D01*
X17654Y-48714D01*
X17665Y-48677D01*
X17682Y-48642D01*
X17707Y-48612D01*
X17736Y-48586D01*
X17770Y-48567D01*
X17808Y-48555D01*
X17846Y-48551D01*
X17884Y-48554D01*
X17922Y-48564D01*
X17957Y-48582D01*
X17987Y-48606D01*
X18013Y-48635D01*
X18032Y-48669D01*
X18045Y-48706D01*
X18049Y-48745D01*
X18050Y-48750D01*
X17850Y-48550D02*
X17850Y-48950D01*
X18700Y-38000D02*
X18696Y-38038D01*
X18684Y-38076D01*
X18666Y-38110D01*
X18641Y-38140D01*
X18611Y-38165D01*
X18577Y-38184D01*
X18540Y-38195D01*
X18501Y-38199D01*
X18463Y-38196D01*
X18426Y-38185D01*
X18391Y-38167D01*
X18361Y-38142D01*
X18335Y-38112D01*
X18317Y-38078D01*
X18305Y-38041D01*
X18301Y-38002D01*
X18304Y-37964D01*
X18315Y-37927D01*
X18332Y-37892D01*
X18357Y-37862D01*
X18386Y-37836D01*
X18420Y-37817D01*
X18458Y-37805D01*
X18496Y-37801D01*
X18534Y-37804D01*
X18572Y-37814D01*
X18607Y-37832D01*
X18637Y-37856D01*
X18663Y-37885D01*
X18682Y-37919D01*
X18695Y-37956D01*
X18699Y-37995D01*
X18700Y-38000D01*
X18500Y-37800D02*
X18500Y-38200D01*
X18700Y-39000D02*
X18696Y-39038D01*
X18684Y-39076D01*
X18666Y-39110D01*
X18641Y-39140D01*
X18611Y-39165D01*
X18577Y-39184D01*
X18540Y-39195D01*
X18501Y-39199D01*
X18463Y-39196D01*
X18426Y-39185D01*
X18391Y-39167D01*
X18361Y-39142D01*
X18335Y-39112D01*
X18317Y-39078D01*
X18305Y-39041D01*
X18301Y-39002D01*
X18304Y-38964D01*
X18315Y-38927D01*
X18332Y-38892D01*
X18357Y-38862D01*
X18386Y-38836D01*
X18420Y-38817D01*
X18458Y-38805D01*
X18496Y-38801D01*
X18534Y-38804D01*
X18572Y-38814D01*
X18607Y-38832D01*
X18637Y-38856D01*
X18663Y-38885D01*
X18682Y-38919D01*
X18695Y-38956D01*
X18699Y-38995D01*
X18700Y-39000D01*
X18500Y-38800D02*
X18500Y-39200D01*
X18700Y-45000D02*
X18696Y-45038D01*
X18684Y-45076D01*
X18666Y-45110D01*
X18641Y-45140D01*
X18611Y-45165D01*
X18577Y-45184D01*
X18540Y-45195D01*
X18501Y-45199D01*
X18463Y-45196D01*
X18426Y-45185D01*
X18391Y-45167D01*
X18361Y-45142D01*
X18335Y-45112D01*
X18317Y-45078D01*
X18305Y-45041D01*
X18301Y-45002D01*
X18304Y-44964D01*
X18315Y-44927D01*
X18332Y-44892D01*
X18357Y-44862D01*
X18386Y-44836D01*
X18420Y-44817D01*
X18458Y-44805D01*
X18496Y-44801D01*
X18534Y-44804D01*
X18572Y-44814D01*
X18607Y-44832D01*
X18637Y-44856D01*
X18663Y-44885D01*
X18682Y-44919D01*
X18695Y-44956D01*
X18699Y-44995D01*
X18700Y-45000D01*
X18500Y-44800D02*
X18500Y-45200D01*
X19050Y-48750D02*
X19046Y-48788D01*
X19034Y-48826D01*
X19016Y-48860D01*
X18991Y-48890D01*
X18961Y-48915D01*
X18927Y-48934D01*
X18890Y-48945D01*
X18851Y-48949D01*
X18813Y-48946D01*
X18776Y-48935D01*
X18741Y-48917D01*
X18711Y-48892D01*
X18685Y-48862D01*
X18667Y-48828D01*
X18655Y-48791D01*
X18651Y-48752D01*
X18654Y-48714D01*
X18665Y-48677D01*
X18682Y-48642D01*
X18707Y-48612D01*
X18736Y-48586D01*
X18770Y-48567D01*
X18808Y-48555D01*
X18846Y-48551D01*
X18884Y-48554D01*
X18922Y-48564D01*
X18957Y-48582D01*
X18987Y-48606D01*
X19013Y-48635D01*
X19032Y-48669D01*
X19045Y-48706D01*
X19049Y-48745D01*
X19050Y-48750D01*
X18850Y-48550D02*
X18850Y-48950D01*
X19050Y-57750D02*
X19046Y-57788D01*
X19034Y-57826D01*
X19016Y-57860D01*
X18991Y-57890D01*
X18961Y-57915D01*
X18927Y-57934D01*
X18890Y-57945D01*
X18851Y-57949D01*
X18813Y-57946D01*
X18776Y-57935D01*
X18741Y-57917D01*
X18711Y-57892D01*
X18685Y-57862D01*
X18667Y-57828D01*
X18655Y-57791D01*
X18651Y-57752D01*
X18654Y-57714D01*
X18665Y-57677D01*
X18682Y-57642D01*
X18707Y-57612D01*
X18736Y-57586D01*
X18770Y-57567D01*
X18808Y-57555D01*
X18846Y-57551D01*
X18884Y-57554D01*
X18922Y-57564D01*
X18957Y-57582D01*
X18987Y-57606D01*
X19013Y-57635D01*
X19032Y-57669D01*
X19045Y-57706D01*
X19049Y-57745D01*
X19050Y-57750D01*
X18850Y-57550D02*
X18850Y-57950D01*
X19050Y-58750D02*
X19046Y-58788D01*
X19034Y-58826D01*
X19016Y-58860D01*
X18991Y-58890D01*
X18961Y-58915D01*
X18927Y-58934D01*
X18890Y-58945D01*
X18851Y-58949D01*
X18813Y-58946D01*
X18776Y-58935D01*
X18741Y-58917D01*
X18711Y-58892D01*
X18685Y-58862D01*
X18667Y-58828D01*
X18655Y-58791D01*
X18651Y-58752D01*
X18654Y-58714D01*
X18665Y-58677D01*
X18682Y-58642D01*
X18707Y-58612D01*
X18736Y-58586D01*
X18770Y-58567D01*
X18808Y-58555D01*
X18846Y-58551D01*
X18884Y-58554D01*
X18922Y-58564D01*
X18957Y-58582D01*
X18987Y-58606D01*
X19013Y-58635D01*
X19032Y-58669D01*
X19045Y-58706D01*
X19049Y-58745D01*
X19050Y-58750D01*
X18850Y-58550D02*
X18850Y-58950D01*
X19050Y-59750D02*
X19046Y-59788D01*
X19034Y-59826D01*
X19016Y-59860D01*
X18991Y-59890D01*
X18961Y-59915D01*
X18927Y-59934D01*
X18890Y-59945D01*
X18851Y-59949D01*
X18813Y-59946D01*
X18776Y-59935D01*
X18741Y-59917D01*
X18711Y-59892D01*
X18685Y-59862D01*
X18667Y-59828D01*
X18655Y-59791D01*
X18651Y-59752D01*
X18654Y-59714D01*
X18665Y-59677D01*
X18682Y-59642D01*
X18707Y-59612D01*
X18736Y-59586D01*
X18770Y-59567D01*
X18808Y-59555D01*
X18846Y-59551D01*
X18884Y-59554D01*
X18922Y-59564D01*
X18957Y-59582D01*
X18987Y-59606D01*
X19013Y-59635D01*
X19032Y-59669D01*
X19045Y-59706D01*
X19049Y-59745D01*
X19050Y-59750D01*
X18850Y-59550D02*
X18850Y-59950D01*
X19700Y-38000D02*
X19696Y-38038D01*
X19684Y-38076D01*
X19666Y-38110D01*
X19641Y-38140D01*
X19611Y-38165D01*
X19577Y-38184D01*
X19540Y-38195D01*
X19501Y-38199D01*
X19463Y-38196D01*
X19426Y-38185D01*
X19391Y-38167D01*
X19361Y-38142D01*
X19335Y-38112D01*
X19317Y-38078D01*
X19305Y-38041D01*
X19301Y-38002D01*
X19304Y-37964D01*
X19315Y-37927D01*
X19332Y-37892D01*
X19357Y-37862D01*
X19386Y-37836D01*
X19420Y-37817D01*
X19458Y-37805D01*
X19496Y-37801D01*
X19534Y-37804D01*
X19572Y-37814D01*
X19607Y-37832D01*
X19637Y-37856D01*
X19663Y-37885D01*
X19682Y-37919D01*
X19695Y-37956D01*
X19699Y-37995D01*
X19700Y-38000D01*
X19500Y-37800D02*
X19500Y-38200D01*
X19700Y-39000D02*
X19696Y-39038D01*
X19684Y-39076D01*
X19666Y-39110D01*
X19641Y-39140D01*
X19611Y-39165D01*
X19577Y-39184D01*
X19540Y-39195D01*
X19501Y-39199D01*
X19463Y-39196D01*
X19426Y-39185D01*
X19391Y-39167D01*
X19361Y-39142D01*
X19335Y-39112D01*
X19317Y-39078D01*
X19305Y-39041D01*
X19301Y-39002D01*
X19304Y-38964D01*
X19315Y-38927D01*
X19332Y-38892D01*
X19357Y-38862D01*
X19386Y-38836D01*
X19420Y-38817D01*
X19458Y-38805D01*
X19496Y-38801D01*
X19534Y-38804D01*
X19572Y-38814D01*
X19607Y-38832D01*
X19637Y-38856D01*
X19663Y-38885D01*
X19682Y-38919D01*
X19695Y-38956D01*
X19699Y-38995D01*
X19700Y-39000D01*
X19500Y-38800D02*
X19500Y-39200D01*
X19700Y-45000D02*
X19696Y-45038D01*
X19684Y-45076D01*
X19666Y-45110D01*
X19641Y-45140D01*
X19611Y-45165D01*
X19577Y-45184D01*
X19540Y-45195D01*
X19501Y-45199D01*
X19463Y-45196D01*
X19426Y-45185D01*
X19391Y-45167D01*
X19361Y-45142D01*
X19335Y-45112D01*
X19317Y-45078D01*
X19305Y-45041D01*
X19301Y-45002D01*
X19304Y-44964D01*
X19315Y-44927D01*
X19332Y-44892D01*
X19357Y-44862D01*
X19386Y-44836D01*
X19420Y-44817D01*
X19458Y-44805D01*
X19496Y-44801D01*
X19534Y-44804D01*
X19572Y-44814D01*
X19607Y-44832D01*
X19637Y-44856D01*
X19663Y-44885D01*
X19682Y-44919D01*
X19695Y-44956D01*
X19699Y-44995D01*
X19700Y-45000D01*
X19500Y-44800D02*
X19500Y-45200D01*
X20050Y-48750D02*
X20046Y-48788D01*
X20034Y-48826D01*
X20016Y-48860D01*
X19991Y-48890D01*
X19961Y-48915D01*
X19927Y-48934D01*
X19890Y-48945D01*
X19851Y-48949D01*
X19813Y-48946D01*
X19776Y-48935D01*
X19741Y-48917D01*
X19711Y-48892D01*
X19685Y-48862D01*
X19667Y-48828D01*
X19655Y-48791D01*
X19651Y-48752D01*
X19654Y-48714D01*
X19665Y-48677D01*
X19682Y-48642D01*
X19707Y-48612D01*
X19736Y-48586D01*
X19770Y-48567D01*
X19808Y-48555D01*
X19846Y-48551D01*
X19884Y-48554D01*
X19922Y-48564D01*
X19957Y-48582D01*
X19987Y-48606D01*
X20013Y-48635D01*
X20032Y-48669D01*
X20045Y-48706D01*
X20049Y-48745D01*
X20050Y-48750D01*
X19850Y-48550D02*
X19850Y-48950D01*
X20050Y-57750D02*
X20046Y-57788D01*
X20034Y-57826D01*
X20016Y-57860D01*
X19991Y-57890D01*
X19961Y-57915D01*
X19927Y-57934D01*
X19890Y-57945D01*
X19851Y-57949D01*
X19813Y-57946D01*
X19776Y-57935D01*
X19741Y-57917D01*
X19711Y-57892D01*
X19685Y-57862D01*
X19667Y-57828D01*
X19655Y-57791D01*
X19651Y-57752D01*
X19654Y-57714D01*
X19665Y-57677D01*
X19682Y-57642D01*
X19707Y-57612D01*
X19736Y-57586D01*
X19770Y-57567D01*
X19808Y-57555D01*
X19846Y-57551D01*
X19884Y-57554D01*
X19922Y-57564D01*
X19957Y-57582D01*
X19987Y-57606D01*
X20013Y-57635D01*
X20032Y-57669D01*
X20045Y-57706D01*
X20049Y-57745D01*
X20050Y-57750D01*
X19850Y-57550D02*
X19850Y-57950D01*
X20050Y-58750D02*
X20046Y-58788D01*
X20034Y-58826D01*
X20016Y-58860D01*
X19991Y-58890D01*
X19961Y-58915D01*
X19927Y-58934D01*
X19890Y-58945D01*
X19851Y-58949D01*
X19813Y-58946D01*
X19776Y-58935D01*
X19741Y-58917D01*
X19711Y-58892D01*
X19685Y-58862D01*
X19667Y-58828D01*
X19655Y-58791D01*
X19651Y-58752D01*
X19654Y-58714D01*
X19665Y-58677D01*
X19682Y-58642D01*
X19707Y-58612D01*
X19736Y-58586D01*
X19770Y-58567D01*
X19808Y-58555D01*
X19846Y-58551D01*
X19884Y-58554D01*
X19922Y-58564D01*
X19957Y-58582D01*
X19987Y-58606D01*
X20013Y-58635D01*
X20032Y-58669D01*
X20045Y-58706D01*
X20049Y-58745D01*
X20050Y-58750D01*
X19850Y-58550D02*
X19850Y-58950D01*
X20050Y-59750D02*
X20046Y-59788D01*
X20034Y-59826D01*
X20016Y-59860D01*
X19991Y-59890D01*
X19961Y-59915D01*
X19927Y-59934D01*
X19890Y-59945D01*
X19851Y-59949D01*
X19813Y-59946D01*
X19776Y-59935D01*
X19741Y-59917D01*
X19711Y-59892D01*
X19685Y-59862D01*
X19667Y-59828D01*
X19655Y-59791D01*
X19651Y-59752D01*
X19654Y-59714D01*
X19665Y-59677D01*
X19682Y-59642D01*
X19707Y-59612D01*
X19736Y-59586D01*
X19770Y-59567D01*
X19808Y-59555D01*
X19846Y-59551D01*
X19884Y-59554D01*
X19922Y-59564D01*
X19957Y-59582D01*
X19987Y-59606D01*
X20013Y-59635D01*
X20032Y-59669D01*
X20045Y-59706D01*
X20049Y-59745D01*
X20050Y-59750D01*
X19850Y-59550D02*
X19850Y-59950D01*
X20050Y-67750D02*
X20046Y-67788D01*
X20034Y-67826D01*
X20016Y-67860D01*
X19991Y-67890D01*
X19961Y-67915D01*
X19927Y-67934D01*
X19890Y-67945D01*
X19851Y-67949D01*
X19813Y-67946D01*
X19776Y-67935D01*
X19741Y-67917D01*
X19711Y-67892D01*
X19685Y-67862D01*
X19667Y-67828D01*
X19655Y-67791D01*
X19651Y-67752D01*
X19654Y-67714D01*
X19665Y-67677D01*
X19682Y-67642D01*
X19707Y-67612D01*
X19736Y-67586D01*
X19770Y-67567D01*
X19808Y-67555D01*
X19846Y-67551D01*
X19884Y-67554D01*
X19922Y-67564D01*
X19957Y-67582D01*
X19987Y-67606D01*
X20013Y-67635D01*
X20032Y-67669D01*
X20045Y-67706D01*
X20049Y-67745D01*
X20050Y-67750D01*
X19850Y-67550D02*
X19850Y-67950D01*
X20700Y-38000D02*
X20696Y-38038D01*
X20684Y-38076D01*
X20666Y-38110D01*
X20641Y-38140D01*
X20611Y-38165D01*
X20577Y-38184D01*
X20540Y-38195D01*
X20501Y-38199D01*
X20463Y-38196D01*
X20426Y-38185D01*
X20391Y-38167D01*
X20361Y-38142D01*
X20335Y-38112D01*
X20317Y-38078D01*
X20305Y-38041D01*
X20301Y-38002D01*
X20304Y-37964D01*
X20315Y-37927D01*
X20332Y-37892D01*
X20357Y-37862D01*
X20386Y-37836D01*
X20420Y-37817D01*
X20458Y-37805D01*
X20496Y-37801D01*
X20534Y-37804D01*
X20572Y-37814D01*
X20607Y-37832D01*
X20637Y-37856D01*
X20663Y-37885D01*
X20682Y-37919D01*
X20695Y-37956D01*
X20699Y-37995D01*
X20700Y-38000D01*
X20500Y-37800D02*
X20500Y-38200D01*
X20700Y-39000D02*
X20696Y-39038D01*
X20684Y-39076D01*
X20666Y-39110D01*
X20641Y-39140D01*
X20611Y-39165D01*
X20577Y-39184D01*
X20540Y-39195D01*
X20501Y-39199D01*
X20463Y-39196D01*
X20426Y-39185D01*
X20391Y-39167D01*
X20361Y-39142D01*
X20335Y-39112D01*
X20317Y-39078D01*
X20305Y-39041D01*
X20301Y-39002D01*
X20304Y-38964D01*
X20315Y-38927D01*
X20332Y-38892D01*
X20357Y-38862D01*
X20386Y-38836D01*
X20420Y-38817D01*
X20458Y-38805D01*
X20496Y-38801D01*
X20534Y-38804D01*
X20572Y-38814D01*
X20607Y-38832D01*
X20637Y-38856D01*
X20663Y-38885D01*
X20682Y-38919D01*
X20695Y-38956D01*
X20699Y-38995D01*
X20700Y-39000D01*
X20500Y-38800D02*
X20500Y-39200D01*
X20700Y-45000D02*
X20696Y-45038D01*
X20684Y-45076D01*
X20666Y-45110D01*
X20641Y-45140D01*
X20611Y-45165D01*
X20577Y-45184D01*
X20540Y-45195D01*
X20501Y-45199D01*
X20463Y-45196D01*
X20426Y-45185D01*
X20391Y-45167D01*
X20361Y-45142D01*
X20335Y-45112D01*
X20317Y-45078D01*
X20305Y-45041D01*
X20301Y-45002D01*
X20304Y-44964D01*
X20315Y-44927D01*
X20332Y-44892D01*
X20357Y-44862D01*
X20386Y-44836D01*
X20420Y-44817D01*
X20458Y-44805D01*
X20496Y-44801D01*
X20534Y-44804D01*
X20572Y-44814D01*
X20607Y-44832D01*
X20637Y-44856D01*
X20663Y-44885D01*
X20682Y-44919D01*
X20695Y-44956D01*
X20699Y-44995D01*
X20700Y-45000D01*
X20500Y-44800D02*
X20500Y-45200D01*
X21050Y-48750D02*
X21046Y-48788D01*
X21034Y-48826D01*
X21016Y-48860D01*
X20991Y-48890D01*
X20961Y-48915D01*
X20927Y-48934D01*
X20890Y-48945D01*
X20851Y-48949D01*
X20813Y-48946D01*
X20776Y-48935D01*
X20741Y-48917D01*
X20711Y-48892D01*
X20685Y-48862D01*
X20667Y-48828D01*
X20655Y-48791D01*
X20651Y-48752D01*
X20654Y-48714D01*
X20665Y-48677D01*
X20682Y-48642D01*
X20707Y-48612D01*
X20736Y-48586D01*
X20770Y-48567D01*
X20808Y-48555D01*
X20846Y-48551D01*
X20884Y-48554D01*
X20922Y-48564D01*
X20957Y-48582D01*
X20987Y-48606D01*
X21013Y-48635D01*
X21032Y-48669D01*
X21045Y-48706D01*
X21049Y-48745D01*
X21050Y-48750D01*
X20850Y-48550D02*
X20850Y-48950D01*
X21050Y-67750D02*
X21046Y-67788D01*
X21034Y-67826D01*
X21016Y-67860D01*
X20991Y-67890D01*
X20961Y-67915D01*
X20927Y-67934D01*
X20890Y-67945D01*
X20851Y-67949D01*
X20813Y-67946D01*
X20776Y-67935D01*
X20741Y-67917D01*
X20711Y-67892D01*
X20685Y-67862D01*
X20667Y-67828D01*
X20655Y-67791D01*
X20651Y-67752D01*
X20654Y-67714D01*
X20665Y-67677D01*
X20682Y-67642D01*
X20707Y-67612D01*
X20736Y-67586D01*
X20770Y-67567D01*
X20808Y-67555D01*
X20846Y-67551D01*
X20884Y-67554D01*
X20922Y-67564D01*
X20957Y-67582D01*
X20987Y-67606D01*
X21013Y-67635D01*
X21032Y-67669D01*
X21045Y-67706D01*
X21049Y-67745D01*
X21050Y-67750D01*
X20850Y-67550D02*
X20850Y-67950D01*
X21700Y-38000D02*
X21696Y-38038D01*
X21684Y-38076D01*
X21666Y-38110D01*
X21641Y-38140D01*
X21611Y-38165D01*
X21577Y-38184D01*
X21540Y-38195D01*
X21501Y-38199D01*
X21463Y-38196D01*
X21426Y-38185D01*
X21391Y-38167D01*
X21361Y-38142D01*
X21335Y-38112D01*
X21317Y-38078D01*
X21305Y-38041D01*
X21301Y-38002D01*
X21304Y-37964D01*
X21315Y-37927D01*
X21332Y-37892D01*
X21357Y-37862D01*
X21386Y-37836D01*
X21420Y-37817D01*
X21458Y-37805D01*
X21496Y-37801D01*
X21534Y-37804D01*
X21572Y-37814D01*
X21607Y-37832D01*
X21637Y-37856D01*
X21663Y-37885D01*
X21682Y-37919D01*
X21695Y-37956D01*
X21699Y-37995D01*
X21700Y-38000D01*
X21500Y-37800D02*
X21500Y-38200D01*
X21700Y-39000D02*
X21696Y-39038D01*
X21684Y-39076D01*
X21666Y-39110D01*
X21641Y-39140D01*
X21611Y-39165D01*
X21577Y-39184D01*
X21540Y-39195D01*
X21501Y-39199D01*
X21463Y-39196D01*
X21426Y-39185D01*
X21391Y-39167D01*
X21361Y-39142D01*
X21335Y-39112D01*
X21317Y-39078D01*
X21305Y-39041D01*
X21301Y-39002D01*
X21304Y-38964D01*
X21315Y-38927D01*
X21332Y-38892D01*
X21357Y-38862D01*
X21386Y-38836D01*
X21420Y-38817D01*
X21458Y-38805D01*
X21496Y-38801D01*
X21534Y-38804D01*
X21572Y-38814D01*
X21607Y-38832D01*
X21637Y-38856D01*
X21663Y-38885D01*
X21682Y-38919D01*
X21695Y-38956D01*
X21699Y-38995D01*
X21700Y-39000D01*
X21500Y-38800D02*
X21500Y-39200D01*
X21700Y-45000D02*
X21696Y-45038D01*
X21684Y-45076D01*
X21666Y-45110D01*
X21641Y-45140D01*
X21611Y-45165D01*
X21577Y-45184D01*
X21540Y-45195D01*
X21501Y-45199D01*
X21463Y-45196D01*
X21426Y-45185D01*
X21391Y-45167D01*
X21361Y-45142D01*
X21335Y-45112D01*
X21317Y-45078D01*
X21305Y-45041D01*
X21301Y-45002D01*
X21304Y-44964D01*
X21315Y-44927D01*
X21332Y-44892D01*
X21357Y-44862D01*
X21386Y-44836D01*
X21420Y-44817D01*
X21458Y-44805D01*
X21496Y-44801D01*
X21534Y-44804D01*
X21572Y-44814D01*
X21607Y-44832D01*
X21637Y-44856D01*
X21663Y-44885D01*
X21682Y-44919D01*
X21695Y-44956D01*
X21699Y-44995D01*
X21700Y-45000D01*
X21500Y-44800D02*
X21500Y-45200D01*
X22050Y-48750D02*
X22046Y-48788D01*
X22034Y-48826D01*
X22016Y-48860D01*
X21991Y-48890D01*
X21961Y-48915D01*
X21927Y-48934D01*
X21890Y-48945D01*
X21851Y-48949D01*
X21813Y-48946D01*
X21776Y-48935D01*
X21741Y-48917D01*
X21711Y-48892D01*
X21685Y-48862D01*
X21667Y-48828D01*
X21655Y-48791D01*
X21651Y-48752D01*
X21654Y-48714D01*
X21665Y-48677D01*
X21682Y-48642D01*
X21707Y-48612D01*
X21736Y-48586D01*
X21770Y-48567D01*
X21808Y-48555D01*
X21846Y-48551D01*
X21884Y-48554D01*
X21922Y-48564D01*
X21957Y-48582D01*
X21987Y-48606D01*
X22013Y-48635D01*
X22032Y-48669D01*
X22045Y-48706D01*
X22049Y-48745D01*
X22050Y-48750D01*
X21850Y-48550D02*
X21850Y-48950D01*
X22050Y-67750D02*
X22046Y-67788D01*
X22034Y-67826D01*
X22016Y-67860D01*
X21991Y-67890D01*
X21961Y-67915D01*
X21927Y-67934D01*
X21890Y-67945D01*
X21851Y-67949D01*
X21813Y-67946D01*
X21776Y-67935D01*
X21741Y-67917D01*
X21711Y-67892D01*
X21685Y-67862D01*
X21667Y-67828D01*
X21655Y-67791D01*
X21651Y-67752D01*
X21654Y-67714D01*
X21665Y-67677D01*
X21682Y-67642D01*
X21707Y-67612D01*
X21736Y-67586D01*
X21770Y-67567D01*
X21808Y-67555D01*
X21846Y-67551D01*
X21884Y-67554D01*
X21922Y-67564D01*
X21957Y-67582D01*
X21987Y-67606D01*
X22013Y-67635D01*
X22032Y-67669D01*
X22045Y-67706D01*
X22049Y-67745D01*
X22050Y-67750D01*
X21850Y-67550D02*
X21850Y-67950D01*
X23050Y-48750D02*
X23046Y-48788D01*
X23034Y-48826D01*
X23016Y-48860D01*
X22991Y-48890D01*
X22961Y-48915D01*
X22927Y-48934D01*
X22890Y-48945D01*
X22851Y-48949D01*
X22813Y-48946D01*
X22776Y-48935D01*
X22741Y-48917D01*
X22711Y-48892D01*
X22685Y-48862D01*
X22667Y-48828D01*
X22655Y-48791D01*
X22651Y-48752D01*
X22654Y-48714D01*
X22665Y-48677D01*
X22682Y-48642D01*
X22707Y-48612D01*
X22736Y-48586D01*
X22770Y-48567D01*
X22808Y-48555D01*
X22846Y-48551D01*
X22884Y-48554D01*
X22922Y-48564D01*
X22957Y-48582D01*
X22987Y-48606D01*
X23013Y-48635D01*
X23032Y-48669D01*
X23045Y-48706D01*
X23049Y-48745D01*
X23050Y-48750D01*
X22850Y-48550D02*
X22850Y-48950D01*
X23050Y-67750D02*
X23046Y-67788D01*
X23034Y-67826D01*
X23016Y-67860D01*
X22991Y-67890D01*
X22961Y-67915D01*
X22927Y-67934D01*
X22890Y-67945D01*
X22851Y-67949D01*
X22813Y-67946D01*
X22776Y-67935D01*
X22741Y-67917D01*
X22711Y-67892D01*
X22685Y-67862D01*
X22667Y-67828D01*
X22655Y-67791D01*
X22651Y-67752D01*
X22654Y-67714D01*
X22665Y-67677D01*
X22682Y-67642D01*
X22707Y-67612D01*
X22736Y-67586D01*
X22770Y-67567D01*
X22808Y-67555D01*
X22846Y-67551D01*
X22884Y-67554D01*
X22922Y-67564D01*
X22957Y-67582D01*
X22987Y-67606D01*
X23013Y-67635D01*
X23032Y-67669D01*
X23045Y-67706D01*
X23049Y-67745D01*
X23050Y-67750D01*
X22850Y-67550D02*
X22850Y-67950D01*
X24050Y-48750D02*
X24046Y-48788D01*
X24034Y-48826D01*
X24016Y-48860D01*
X23991Y-48890D01*
X23961Y-48915D01*
X23927Y-48934D01*
X23890Y-48945D01*
X23851Y-48949D01*
X23813Y-48946D01*
X23776Y-48935D01*
X23741Y-48917D01*
X23711Y-48892D01*
X23685Y-48862D01*
X23667Y-48828D01*
X23655Y-48791D01*
X23651Y-48752D01*
X23654Y-48714D01*
X23665Y-48677D01*
X23682Y-48642D01*
X23707Y-48612D01*
X23736Y-48586D01*
X23770Y-48567D01*
X23808Y-48555D01*
X23846Y-48551D01*
X23884Y-48554D01*
X23922Y-48564D01*
X23957Y-48582D01*
X23987Y-48606D01*
X24013Y-48635D01*
X24032Y-48669D01*
X24045Y-48706D01*
X24049Y-48745D01*
X24050Y-48750D01*
X23850Y-48550D02*
X23850Y-48950D01*
X24050Y-67750D02*
X24046Y-67788D01*
X24034Y-67826D01*
X24016Y-67860D01*
X23991Y-67890D01*
X23961Y-67915D01*
X23927Y-67934D01*
X23890Y-67945D01*
X23851Y-67949D01*
X23813Y-67946D01*
X23776Y-67935D01*
X23741Y-67917D01*
X23711Y-67892D01*
X23685Y-67862D01*
X23667Y-67828D01*
X23655Y-67791D01*
X23651Y-67752D01*
X23654Y-67714D01*
X23665Y-67677D01*
X23682Y-67642D01*
X23707Y-67612D01*
X23736Y-67586D01*
X23770Y-67567D01*
X23808Y-67555D01*
X23846Y-67551D01*
X23884Y-67554D01*
X23922Y-67564D01*
X23957Y-67582D01*
X23987Y-67606D01*
X24013Y-67635D01*
X24032Y-67669D01*
X24045Y-67706D01*
X24049Y-67745D01*
X24050Y-67750D01*
X23850Y-67550D02*
X23850Y-67950D01*
X25050Y-48750D02*
X25046Y-48788D01*
X25034Y-48826D01*
X25016Y-48860D01*
X24991Y-48890D01*
X24961Y-48915D01*
X24927Y-48934D01*
X24890Y-48945D01*
X24851Y-48949D01*
X24813Y-48946D01*
X24776Y-48935D01*
X24741Y-48917D01*
X24711Y-48892D01*
X24685Y-48862D01*
X24667Y-48828D01*
X24655Y-48791D01*
X24651Y-48752D01*
X24654Y-48714D01*
X24665Y-48677D01*
X24682Y-48642D01*
X24707Y-48612D01*
X24736Y-48586D01*
X24770Y-48567D01*
X24808Y-48555D01*
X24846Y-48551D01*
X24884Y-48554D01*
X24922Y-48564D01*
X24957Y-48582D01*
X24987Y-48606D01*
X25013Y-48635D01*
X25032Y-48669D01*
X25045Y-48706D01*
X25049Y-48745D01*
X25050Y-48750D01*
X24850Y-48550D02*
X24850Y-48950D01*
X25050Y-64500D02*
X25046Y-64538D01*
X25034Y-64576D01*
X25016Y-64610D01*
X24991Y-64640D01*
X24961Y-64665D01*
X24927Y-64684D01*
X24890Y-64695D01*
X24851Y-64699D01*
X24813Y-64696D01*
X24776Y-64685D01*
X24741Y-64667D01*
X24711Y-64642D01*
X24685Y-64612D01*
X24667Y-64578D01*
X24655Y-64541D01*
X24651Y-64502D01*
X24654Y-64464D01*
X24665Y-64427D01*
X24682Y-64392D01*
X24707Y-64362D01*
X24736Y-64336D01*
X24770Y-64317D01*
X24808Y-64305D01*
X24846Y-64301D01*
X24884Y-64304D01*
X24922Y-64314D01*
X24957Y-64332D01*
X24987Y-64356D01*
X25013Y-64385D01*
X25032Y-64419D01*
X25045Y-64456D01*
X25049Y-64495D01*
X25050Y-64500D01*
X24850Y-64300D02*
X24850Y-64700D01*
X25050Y-67750D02*
X25046Y-67788D01*
X25034Y-67826D01*
X25016Y-67860D01*
X24991Y-67890D01*
X24961Y-67915D01*
X24927Y-67934D01*
X24890Y-67945D01*
X24851Y-67949D01*
X24813Y-67946D01*
X24776Y-67935D01*
X24741Y-67917D01*
X24711Y-67892D01*
X24685Y-67862D01*
X24667Y-67828D01*
X24655Y-67791D01*
X24651Y-67752D01*
X24654Y-67714D01*
X24665Y-67677D01*
X24682Y-67642D01*
X24707Y-67612D01*
X24736Y-67586D01*
X24770Y-67567D01*
X24808Y-67555D01*
X24846Y-67551D01*
X24884Y-67554D01*
X24922Y-67564D01*
X24957Y-67582D01*
X24987Y-67606D01*
X25013Y-67635D01*
X25032Y-67669D01*
X25045Y-67706D01*
X25049Y-67745D01*
X25050Y-67750D01*
X24850Y-67550D02*
X24850Y-67950D01*
X26050Y-64500D02*
X26046Y-64538D01*
X26034Y-64576D01*
X26016Y-64610D01*
X25991Y-64640D01*
X25961Y-64665D01*
X25927Y-64684D01*
X25890Y-64695D01*
X25851Y-64699D01*
X25813Y-64696D01*
X25776Y-64685D01*
X25741Y-64667D01*
X25711Y-64642D01*
X25685Y-64612D01*
X25667Y-64578D01*
X25655Y-64541D01*
X25651Y-64502D01*
X25654Y-64464D01*
X25665Y-64427D01*
X25682Y-64392D01*
X25707Y-64362D01*
X25736Y-64336D01*
X25770Y-64317D01*
X25808Y-64305D01*
X25846Y-64301D01*
X25884Y-64304D01*
X25922Y-64314D01*
X25957Y-64332D01*
X25987Y-64356D01*
X26013Y-64385D01*
X26032Y-64419D01*
X26045Y-64456D01*
X26049Y-64495D01*
X26050Y-64500D01*
X25850Y-64300D02*
X25850Y-64700D01*
X26050Y-67750D02*
X26046Y-67788D01*
X26034Y-67826D01*
X26016Y-67860D01*
X25991Y-67890D01*
X25961Y-67915D01*
X25927Y-67934D01*
X25890Y-67945D01*
X25851Y-67949D01*
X25813Y-67946D01*
X25776Y-67935D01*
X25741Y-67917D01*
X25711Y-67892D01*
X25685Y-67862D01*
X25667Y-67828D01*
X25655Y-67791D01*
X25651Y-67752D01*
X25654Y-67714D01*
X25665Y-67677D01*
X25682Y-67642D01*
X25707Y-67612D01*
X25736Y-67586D01*
X25770Y-67567D01*
X25808Y-67555D01*
X25846Y-67551D01*
X25884Y-67554D01*
X25922Y-67564D01*
X25957Y-67582D01*
X25987Y-67606D01*
X26013Y-67635D01*
X26032Y-67669D01*
X26045Y-67706D01*
X26049Y-67745D01*
X26050Y-67750D01*
X25850Y-67550D02*
X25850Y-67950D01*
X27050Y-48750D02*
X27046Y-48788D01*
X27034Y-48826D01*
X27016Y-48860D01*
X26991Y-48890D01*
X26961Y-48915D01*
X26927Y-48934D01*
X26890Y-48945D01*
X26851Y-48949D01*
X26813Y-48946D01*
X26776Y-48935D01*
X26741Y-48917D01*
X26711Y-48892D01*
X26685Y-48862D01*
X26667Y-48828D01*
X26655Y-48791D01*
X26651Y-48752D01*
X26654Y-48714D01*
X26665Y-48677D01*
X26682Y-48642D01*
X26707Y-48612D01*
X26736Y-48586D01*
X26770Y-48567D01*
X26808Y-48555D01*
X26846Y-48551D01*
X26884Y-48554D01*
X26922Y-48564D01*
X26957Y-48582D01*
X26987Y-48606D01*
X27013Y-48635D01*
X27032Y-48669D01*
X27045Y-48706D01*
X27049Y-48745D01*
X27050Y-48750D01*
X26850Y-48550D02*
X26850Y-48950D01*
X27050Y-64500D02*
X27046Y-64538D01*
X27034Y-64576D01*
X27016Y-64610D01*
X26991Y-64640D01*
X26961Y-64665D01*
X26927Y-64684D01*
X26890Y-64695D01*
X26851Y-64699D01*
X26813Y-64696D01*
X26776Y-64685D01*
X26741Y-64667D01*
X26711Y-64642D01*
X26685Y-64612D01*
X26667Y-64578D01*
X26655Y-64541D01*
X26651Y-64502D01*
X26654Y-64464D01*
X26665Y-64427D01*
X26682Y-64392D01*
X26707Y-64362D01*
X26736Y-64336D01*
X26770Y-64317D01*
X26808Y-64305D01*
X26846Y-64301D01*
X26884Y-64304D01*
X26922Y-64314D01*
X26957Y-64332D01*
X26987Y-64356D01*
X27013Y-64385D01*
X27032Y-64419D01*
X27045Y-64456D01*
X27049Y-64495D01*
X27050Y-64500D01*
X26850Y-64300D02*
X26850Y-64700D01*
X27050Y-67750D02*
X27046Y-67788D01*
X27034Y-67826D01*
X27016Y-67860D01*
X26991Y-67890D01*
X26961Y-67915D01*
X26927Y-67934D01*
X26890Y-67945D01*
X26851Y-67949D01*
X26813Y-67946D01*
X26776Y-67935D01*
X26741Y-67917D01*
X26711Y-67892D01*
X26685Y-67862D01*
X26667Y-67828D01*
X26655Y-67791D01*
X26651Y-67752D01*
X26654Y-67714D01*
X26665Y-67677D01*
X26682Y-67642D01*
X26707Y-67612D01*
X26736Y-67586D01*
X26770Y-67567D01*
X26808Y-67555D01*
X26846Y-67551D01*
X26884Y-67554D01*
X26922Y-67564D01*
X26957Y-67582D01*
X26987Y-67606D01*
X27013Y-67635D01*
X27032Y-67669D01*
X27045Y-67706D01*
X27049Y-67745D01*
X27050Y-67750D01*
X26850Y-67550D02*
X26850Y-67950D01*
X28050Y-48750D02*
X28046Y-48788D01*
X28034Y-48826D01*
X28016Y-48860D01*
X27991Y-48890D01*
X27961Y-48915D01*
X27927Y-48934D01*
X27890Y-48945D01*
X27851Y-48949D01*
X27813Y-48946D01*
X27776Y-48935D01*
X27741Y-48917D01*
X27711Y-48892D01*
X27685Y-48862D01*
X27667Y-48828D01*
X27655Y-48791D01*
X27651Y-48752D01*
X27654Y-48714D01*
X27665Y-48677D01*
X27682Y-48642D01*
X27707Y-48612D01*
X27736Y-48586D01*
X27770Y-48567D01*
X27808Y-48555D01*
X27846Y-48551D01*
X27884Y-48554D01*
X27922Y-48564D01*
X27957Y-48582D01*
X27987Y-48606D01*
X28013Y-48635D01*
X28032Y-48669D01*
X28045Y-48706D01*
X28049Y-48745D01*
X28050Y-48750D01*
X27850Y-48550D02*
X27850Y-48950D01*
X28050Y-64500D02*
X28046Y-64538D01*
X28034Y-64576D01*
X28016Y-64610D01*
X27991Y-64640D01*
X27961Y-64665D01*
X27927Y-64684D01*
X27890Y-64695D01*
X27851Y-64699D01*
X27813Y-64696D01*
X27776Y-64685D01*
X27741Y-64667D01*
X27711Y-64642D01*
X27685Y-64612D01*
X27667Y-64578D01*
X27655Y-64541D01*
X27651Y-64502D01*
X27654Y-64464D01*
X27665Y-64427D01*
X27682Y-64392D01*
X27707Y-64362D01*
X27736Y-64336D01*
X27770Y-64317D01*
X27808Y-64305D01*
X27846Y-64301D01*
X27884Y-64304D01*
X27922Y-64314D01*
X27957Y-64332D01*
X27987Y-64356D01*
X28013Y-64385D01*
X28032Y-64419D01*
X28045Y-64456D01*
X28049Y-64495D01*
X28050Y-64500D01*
X27850Y-64300D02*
X27850Y-64700D01*
X28650Y-67750D02*
X28646Y-67788D01*
X28634Y-67826D01*
X28616Y-67860D01*
X28591Y-67890D01*
X28561Y-67915D01*
X28527Y-67934D01*
X28490Y-67945D01*
X28451Y-67949D01*
X28413Y-67946D01*
X28376Y-67935D01*
X28341Y-67917D01*
X28311Y-67892D01*
X28285Y-67862D01*
X28267Y-67828D01*
X28255Y-67791D01*
X28251Y-67752D01*
X28254Y-67714D01*
X28265Y-67677D01*
X28282Y-67642D01*
X28307Y-67612D01*
X28336Y-67586D01*
X28370Y-67567D01*
X28408Y-67555D01*
X28446Y-67551D01*
X28484Y-67554D01*
X28522Y-67564D01*
X28557Y-67582D01*
X28587Y-67606D01*
X28613Y-67635D01*
X28632Y-67669D01*
X28645Y-67706D01*
X28649Y-67745D01*
X28650Y-67750D01*
X28450Y-67550D02*
X28450Y-67950D01*
X29050Y-48750D02*
X29046Y-48788D01*
X29034Y-48826D01*
X29016Y-48860D01*
X28991Y-48890D01*
X28961Y-48915D01*
X28927Y-48934D01*
X28890Y-48945D01*
X28851Y-48949D01*
X28813Y-48946D01*
X28776Y-48935D01*
X28741Y-48917D01*
X28711Y-48892D01*
X28685Y-48862D01*
X28667Y-48828D01*
X28655Y-48791D01*
X28651Y-48752D01*
X28654Y-48714D01*
X28665Y-48677D01*
X28682Y-48642D01*
X28707Y-48612D01*
X28736Y-48586D01*
X28770Y-48567D01*
X28808Y-48555D01*
X28846Y-48551D01*
X28884Y-48554D01*
X28922Y-48564D01*
X28957Y-48582D01*
X28987Y-48606D01*
X29013Y-48635D01*
X29032Y-48669D01*
X29045Y-48706D01*
X29049Y-48745D01*
X29050Y-48750D01*
X28850Y-48550D02*
X28850Y-48950D01*
X29050Y-64500D02*
X29046Y-64538D01*
X29034Y-64576D01*
X29016Y-64610D01*
X28991Y-64640D01*
X28961Y-64665D01*
X28927Y-64684D01*
X28890Y-64695D01*
X28851Y-64699D01*
X28813Y-64696D01*
X28776Y-64685D01*
X28741Y-64667D01*
X28711Y-64642D01*
X28685Y-64612D01*
X28667Y-64578D01*
X28655Y-64541D01*
X28651Y-64502D01*
X28654Y-64464D01*
X28665Y-64427D01*
X28682Y-64392D01*
X28707Y-64362D01*
X28736Y-64336D01*
X28770Y-64317D01*
X28808Y-64305D01*
X28846Y-64301D01*
X28884Y-64304D01*
X28922Y-64314D01*
X28957Y-64332D01*
X28987Y-64356D01*
X29013Y-64385D01*
X29032Y-64419D01*
X29045Y-64456D01*
X29049Y-64495D01*
X29050Y-64500D01*
X28850Y-64300D02*
X28850Y-64700D01*
X29650Y-67750D02*
X29646Y-67788D01*
X29634Y-67826D01*
X29616Y-67860D01*
X29591Y-67890D01*
X29561Y-67915D01*
X29527Y-67934D01*
X29490Y-67945D01*
X29451Y-67949D01*
X29413Y-67946D01*
X29376Y-67935D01*
X29341Y-67917D01*
X29311Y-67892D01*
X29285Y-67862D01*
X29267Y-67828D01*
X29255Y-67791D01*
X29251Y-67752D01*
X29254Y-67714D01*
X29265Y-67677D01*
X29282Y-67642D01*
X29307Y-67612D01*
X29336Y-67586D01*
X29370Y-67567D01*
X29408Y-67555D01*
X29446Y-67551D01*
X29484Y-67554D01*
X29522Y-67564D01*
X29557Y-67582D01*
X29587Y-67606D01*
X29613Y-67635D01*
X29632Y-67669D01*
X29645Y-67706D01*
X29649Y-67745D01*
X29650Y-67750D01*
X29450Y-67550D02*
X29450Y-67950D01*
X30050Y-48750D02*
X30046Y-48788D01*
X30034Y-48826D01*
X30016Y-48860D01*
X29991Y-48890D01*
X29961Y-48915D01*
X29927Y-48934D01*
X29890Y-48945D01*
X29851Y-48949D01*
X29813Y-48946D01*
X29776Y-48935D01*
X29741Y-48917D01*
X29711Y-48892D01*
X29685Y-48862D01*
X29667Y-48828D01*
X29655Y-48791D01*
X29651Y-48752D01*
X29654Y-48714D01*
X29665Y-48677D01*
X29682Y-48642D01*
X29707Y-48612D01*
X29736Y-48586D01*
X29770Y-48567D01*
X29808Y-48555D01*
X29846Y-48551D01*
X29884Y-48554D01*
X29922Y-48564D01*
X29957Y-48582D01*
X29987Y-48606D01*
X30013Y-48635D01*
X30032Y-48669D01*
X30045Y-48706D01*
X30049Y-48745D01*
X30050Y-48750D01*
X29850Y-48550D02*
X29850Y-48950D01*
X30050Y-64500D02*
X30046Y-64538D01*
X30034Y-64576D01*
X30016Y-64610D01*
X29991Y-64640D01*
X29961Y-64665D01*
X29927Y-64684D01*
X29890Y-64695D01*
X29851Y-64699D01*
X29813Y-64696D01*
X29776Y-64685D01*
X29741Y-64667D01*
X29711Y-64642D01*
X29685Y-64612D01*
X29667Y-64578D01*
X29655Y-64541D01*
X29651Y-64502D01*
X29654Y-64464D01*
X29665Y-64427D01*
X29682Y-64392D01*
X29707Y-64362D01*
X29736Y-64336D01*
X29770Y-64317D01*
X29808Y-64305D01*
X29846Y-64301D01*
X29884Y-64304D01*
X29922Y-64314D01*
X29957Y-64332D01*
X29987Y-64356D01*
X30013Y-64385D01*
X30032Y-64419D01*
X30045Y-64456D01*
X30049Y-64495D01*
X30050Y-64500D01*
X29850Y-64300D02*
X29850Y-64700D01*
X30650Y-67750D02*
X30646Y-67788D01*
X30634Y-67826D01*
X30616Y-67860D01*
X30591Y-67890D01*
X30561Y-67915D01*
X30527Y-67934D01*
X30490Y-67945D01*
X30451Y-67949D01*
X30413Y-67946D01*
X30376Y-67935D01*
X30341Y-67917D01*
X30311Y-67892D01*
X30285Y-67862D01*
X30267Y-67828D01*
X30255Y-67791D01*
X30251Y-67752D01*
X30254Y-67714D01*
X30265Y-67677D01*
X30282Y-67642D01*
X30307Y-67612D01*
X30336Y-67586D01*
X30370Y-67567D01*
X30408Y-67555D01*
X30446Y-67551D01*
X30484Y-67554D01*
X30522Y-67564D01*
X30557Y-67582D01*
X30587Y-67606D01*
X30613Y-67635D01*
X30632Y-67669D01*
X30645Y-67706D01*
X30649Y-67745D01*
X30650Y-67750D01*
X30450Y-67550D02*
X30450Y-67950D01*
X31050Y-48750D02*
X31046Y-48788D01*
X31034Y-48826D01*
X31016Y-48860D01*
X30991Y-48890D01*
X30961Y-48915D01*
X30927Y-48934D01*
X30890Y-48945D01*
X30851Y-48949D01*
X30813Y-48946D01*
X30776Y-48935D01*
X30741Y-48917D01*
X30711Y-48892D01*
X30685Y-48862D01*
X30667Y-48828D01*
X30655Y-48791D01*
X30651Y-48752D01*
X30654Y-48714D01*
X30665Y-48677D01*
X30682Y-48642D01*
X30707Y-48612D01*
X30736Y-48586D01*
X30770Y-48567D01*
X30808Y-48555D01*
X30846Y-48551D01*
X30884Y-48554D01*
X30922Y-48564D01*
X30957Y-48582D01*
X30987Y-48606D01*
X31013Y-48635D01*
X31032Y-48669D01*
X31045Y-48706D01*
X31049Y-48745D01*
X31050Y-48750D01*
X30850Y-48550D02*
X30850Y-48950D01*
X31050Y-64500D02*
X31046Y-64538D01*
X31034Y-64576D01*
X31016Y-64610D01*
X30991Y-64640D01*
X30961Y-64665D01*
X30927Y-64684D01*
X30890Y-64695D01*
X30851Y-64699D01*
X30813Y-64696D01*
X30776Y-64685D01*
X30741Y-64667D01*
X30711Y-64642D01*
X30685Y-64612D01*
X30667Y-64578D01*
X30655Y-64541D01*
X30651Y-64502D01*
X30654Y-64464D01*
X30665Y-64427D01*
X30682Y-64392D01*
X30707Y-64362D01*
X30736Y-64336D01*
X30770Y-64317D01*
X30808Y-64305D01*
X30846Y-64301D01*
X30884Y-64304D01*
X30922Y-64314D01*
X30957Y-64332D01*
X30987Y-64356D01*
X31013Y-64385D01*
X31032Y-64419D01*
X31045Y-64456D01*
X31049Y-64495D01*
X31050Y-64500D01*
X30850Y-64300D02*
X30850Y-64700D01*
X31650Y-67750D02*
X31646Y-67788D01*
X31634Y-67826D01*
X31616Y-67860D01*
X31591Y-67890D01*
X31561Y-67915D01*
X31527Y-67934D01*
X31490Y-67945D01*
X31451Y-67949D01*
X31413Y-67946D01*
X31376Y-67935D01*
X31341Y-67917D01*
X31311Y-67892D01*
X31285Y-67862D01*
X31267Y-67828D01*
X31255Y-67791D01*
X31251Y-67752D01*
X31254Y-67714D01*
X31265Y-67677D01*
X31282Y-67642D01*
X31307Y-67612D01*
X31336Y-67586D01*
X31370Y-67567D01*
X31408Y-67555D01*
X31446Y-67551D01*
X31484Y-67554D01*
X31522Y-67564D01*
X31557Y-67582D01*
X31587Y-67606D01*
X31613Y-67635D01*
X31632Y-67669D01*
X31645Y-67706D01*
X31649Y-67745D01*
X31650Y-67750D01*
X31450Y-67550D02*
X31450Y-67950D01*
X32050Y-48750D02*
X32046Y-48788D01*
X32034Y-48826D01*
X32016Y-48860D01*
X31991Y-48890D01*
X31961Y-48915D01*
X31927Y-48934D01*
X31890Y-48945D01*
X31851Y-48949D01*
X31813Y-48946D01*
X31776Y-48935D01*
X31741Y-48917D01*
X31711Y-48892D01*
X31685Y-48862D01*
X31667Y-48828D01*
X31655Y-48791D01*
X31651Y-48752D01*
X31654Y-48714D01*
X31665Y-48677D01*
X31682Y-48642D01*
X31707Y-48612D01*
X31736Y-48586D01*
X31770Y-48567D01*
X31808Y-48555D01*
X31846Y-48551D01*
X31884Y-48554D01*
X31922Y-48564D01*
X31957Y-48582D01*
X31987Y-48606D01*
X32013Y-48635D01*
X32032Y-48669D01*
X32045Y-48706D01*
X32049Y-48745D01*
X32050Y-48750D01*
X31850Y-48550D02*
X31850Y-48950D01*
X32050Y-64500D02*
X32046Y-64538D01*
X32034Y-64576D01*
X32016Y-64610D01*
X31991Y-64640D01*
X31961Y-64665D01*
X31927Y-64684D01*
X31890Y-64695D01*
X31851Y-64699D01*
X31813Y-64696D01*
X31776Y-64685D01*
X31741Y-64667D01*
X31711Y-64642D01*
X31685Y-64612D01*
X31667Y-64578D01*
X31655Y-64541D01*
X31651Y-64502D01*
X31654Y-64464D01*
X31665Y-64427D01*
X31682Y-64392D01*
X31707Y-64362D01*
X31736Y-64336D01*
X31770Y-64317D01*
X31808Y-64305D01*
X31846Y-64301D01*
X31884Y-64304D01*
X31922Y-64314D01*
X31957Y-64332D01*
X31987Y-64356D01*
X32013Y-64385D01*
X32032Y-64419D01*
X32045Y-64456D01*
X32049Y-64495D01*
X32050Y-64500D01*
X31850Y-64300D02*
X31850Y-64700D01*
X32650Y-67750D02*
X32646Y-67788D01*
X32634Y-67826D01*
X32616Y-67860D01*
X32591Y-67890D01*
X32561Y-67915D01*
X32527Y-67934D01*
X32490Y-67945D01*
X32451Y-67949D01*
X32413Y-67946D01*
X32376Y-67935D01*
X32341Y-67917D01*
X32311Y-67892D01*
X32285Y-67862D01*
X32267Y-67828D01*
X32255Y-67791D01*
X32251Y-67752D01*
X32254Y-67714D01*
X32265Y-67677D01*
X32282Y-67642D01*
X32307Y-67612D01*
X32336Y-67586D01*
X32370Y-67567D01*
X32408Y-67555D01*
X32446Y-67551D01*
X32484Y-67554D01*
X32522Y-67564D01*
X32557Y-67582D01*
X32587Y-67606D01*
X32613Y-67635D01*
X32632Y-67669D01*
X32645Y-67706D01*
X32649Y-67745D01*
X32650Y-67750D01*
X32450Y-67550D02*
X32450Y-67950D01*
X33050Y-48750D02*
X33046Y-48788D01*
X33034Y-48826D01*
X33016Y-48860D01*
X32991Y-48890D01*
X32961Y-48915D01*
X32927Y-48934D01*
X32890Y-48945D01*
X32851Y-48949D01*
X32813Y-48946D01*
X32776Y-48935D01*
X32741Y-48917D01*
X32711Y-48892D01*
X32685Y-48862D01*
X32667Y-48828D01*
X32655Y-48791D01*
X32651Y-48752D01*
X32654Y-48714D01*
X32665Y-48677D01*
X32682Y-48642D01*
X32707Y-48612D01*
X32736Y-48586D01*
X32770Y-48567D01*
X32808Y-48555D01*
X32846Y-48551D01*
X32884Y-48554D01*
X32922Y-48564D01*
X32957Y-48582D01*
X32987Y-48606D01*
X33013Y-48635D01*
X33032Y-48669D01*
X33045Y-48706D01*
X33049Y-48745D01*
X33050Y-48750D01*
X32850Y-48550D02*
X32850Y-48950D01*
X33650Y-67750D02*
X33646Y-67788D01*
X33634Y-67826D01*
X33616Y-67860D01*
X33591Y-67890D01*
X33561Y-67915D01*
X33527Y-67934D01*
X33490Y-67945D01*
X33451Y-67949D01*
X33413Y-67946D01*
X33376Y-67935D01*
X33341Y-67917D01*
X33311Y-67892D01*
X33285Y-67862D01*
X33267Y-67828D01*
X33255Y-67791D01*
X33251Y-67752D01*
X33254Y-67714D01*
X33265Y-67677D01*
X33282Y-67642D01*
X33307Y-67612D01*
X33336Y-67586D01*
X33370Y-67567D01*
X33408Y-67555D01*
X33446Y-67551D01*
X33484Y-67554D01*
X33522Y-67564D01*
X33557Y-67582D01*
X33587Y-67606D01*
X33613Y-67635D01*
X33632Y-67669D01*
X33645Y-67706D01*
X33649Y-67745D01*
X33650Y-67750D01*
X33450Y-67550D02*
X33450Y-67950D01*
X34050Y-48750D02*
X34046Y-48788D01*
X34034Y-48826D01*
X34016Y-48860D01*
X33991Y-48890D01*
X33961Y-48915D01*
X33927Y-48934D01*
X33890Y-48945D01*
X33851Y-48949D01*
X33813Y-48946D01*
X33776Y-48935D01*
X33741Y-48917D01*
X33711Y-48892D01*
X33685Y-48862D01*
X33667Y-48828D01*
X33655Y-48791D01*
X33651Y-48752D01*
X33654Y-48714D01*
X33665Y-48677D01*
X33682Y-48642D01*
X33707Y-48612D01*
X33736Y-48586D01*
X33770Y-48567D01*
X33808Y-48555D01*
X33846Y-48551D01*
X33884Y-48554D01*
X33922Y-48564D01*
X33957Y-48582D01*
X33987Y-48606D01*
X34013Y-48635D01*
X34032Y-48669D01*
X34045Y-48706D01*
X34049Y-48745D01*
X34050Y-48750D01*
X33850Y-48550D02*
X33850Y-48950D01*
X34650Y-67750D02*
X34646Y-67788D01*
X34634Y-67826D01*
X34616Y-67860D01*
X34591Y-67890D01*
X34561Y-67915D01*
X34527Y-67934D01*
X34490Y-67945D01*
X34451Y-67949D01*
X34413Y-67946D01*
X34376Y-67935D01*
X34341Y-67917D01*
X34311Y-67892D01*
X34285Y-67862D01*
X34267Y-67828D01*
X34255Y-67791D01*
X34251Y-67752D01*
X34254Y-67714D01*
X34265Y-67677D01*
X34282Y-67642D01*
X34307Y-67612D01*
X34336Y-67586D01*
X34370Y-67567D01*
X34408Y-67555D01*
X34446Y-67551D01*
X34484Y-67554D01*
X34522Y-67564D01*
X34557Y-67582D01*
X34587Y-67606D01*
X34613Y-67635D01*
X34632Y-67669D01*
X34645Y-67706D01*
X34649Y-67745D01*
X34650Y-67750D01*
X34450Y-67550D02*
X34450Y-67950D01*
X35650Y-67750D02*
X35646Y-67788D01*
X35634Y-67826D01*
X35616Y-67860D01*
X35591Y-67890D01*
X35561Y-67915D01*
X35527Y-67934D01*
X35490Y-67945D01*
X35451Y-67949D01*
X35413Y-67946D01*
X35376Y-67935D01*
X35341Y-67917D01*
X35311Y-67892D01*
X35285Y-67862D01*
X35267Y-67828D01*
X35255Y-67791D01*
X35251Y-67752D01*
X35254Y-67714D01*
X35265Y-67677D01*
X35282Y-67642D01*
X35307Y-67612D01*
X35336Y-67586D01*
X35370Y-67567D01*
X35408Y-67555D01*
X35446Y-67551D01*
X35484Y-67554D01*
X35522Y-67564D01*
X35557Y-67582D01*
X35587Y-67606D01*
X35613Y-67635D01*
X35632Y-67669D01*
X35645Y-67706D01*
X35649Y-67745D01*
X35650Y-67750D01*
X35450Y-67550D02*
X35450Y-67950D01*
X36050Y-48750D02*
X36046Y-48788D01*
X36034Y-48826D01*
X36016Y-48860D01*
X35991Y-48890D01*
X35961Y-48915D01*
X35927Y-48934D01*
X35890Y-48945D01*
X35851Y-48949D01*
X35813Y-48946D01*
X35776Y-48935D01*
X35741Y-48917D01*
X35711Y-48892D01*
X35685Y-48862D01*
X35667Y-48828D01*
X35655Y-48791D01*
X35651Y-48752D01*
X35654Y-48714D01*
X35665Y-48677D01*
X35682Y-48642D01*
X35707Y-48612D01*
X35736Y-48586D01*
X35770Y-48567D01*
X35808Y-48555D01*
X35846Y-48551D01*
X35884Y-48554D01*
X35922Y-48564D01*
X35957Y-48582D01*
X35987Y-48606D01*
X36013Y-48635D01*
X36032Y-48669D01*
X36045Y-48706D01*
X36049Y-48745D01*
X36050Y-48750D01*
X35850Y-48550D02*
X35850Y-48950D01*
X36650Y-67750D02*
X36646Y-67788D01*
X36634Y-67826D01*
X36616Y-67860D01*
X36591Y-67890D01*
X36561Y-67915D01*
X36527Y-67934D01*
X36490Y-67945D01*
X36451Y-67949D01*
X36413Y-67946D01*
X36376Y-67935D01*
X36341Y-67917D01*
X36311Y-67892D01*
X36285Y-67862D01*
X36267Y-67828D01*
X36255Y-67791D01*
X36251Y-67752D01*
X36254Y-67714D01*
X36265Y-67677D01*
X36282Y-67642D01*
X36307Y-67612D01*
X36336Y-67586D01*
X36370Y-67567D01*
X36408Y-67555D01*
X36446Y-67551D01*
X36484Y-67554D01*
X36522Y-67564D01*
X36557Y-67582D01*
X36587Y-67606D01*
X36613Y-67635D01*
X36632Y-67669D01*
X36645Y-67706D01*
X36649Y-67745D01*
X36650Y-67750D01*
X36450Y-67550D02*
X36450Y-67950D01*
X37050Y-48750D02*
X37046Y-48788D01*
X37034Y-48826D01*
X37016Y-48860D01*
X36991Y-48890D01*
X36961Y-48915D01*
X36927Y-48934D01*
X36890Y-48945D01*
X36851Y-48949D01*
X36813Y-48946D01*
X36776Y-48935D01*
X36741Y-48917D01*
X36711Y-48892D01*
X36685Y-48862D01*
X36667Y-48828D01*
X36655Y-48791D01*
X36651Y-48752D01*
X36654Y-48714D01*
X36665Y-48677D01*
X36682Y-48642D01*
X36707Y-48612D01*
X36736Y-48586D01*
X36770Y-48567D01*
X36808Y-48555D01*
X36846Y-48551D01*
X36884Y-48554D01*
X36922Y-48564D01*
X36957Y-48582D01*
X36987Y-48606D01*
X37013Y-48635D01*
X37032Y-48669D01*
X37045Y-48706D01*
X37049Y-48745D01*
X37050Y-48750D01*
X36850Y-48550D02*
X36850Y-48950D01*
X37650Y-67750D02*
X37646Y-67788D01*
X37634Y-67826D01*
X37616Y-67860D01*
X37591Y-67890D01*
X37561Y-67915D01*
X37527Y-67934D01*
X37490Y-67945D01*
X37451Y-67949D01*
X37413Y-67946D01*
X37376Y-67935D01*
X37341Y-67917D01*
X37311Y-67892D01*
X37285Y-67862D01*
X37267Y-67828D01*
X37255Y-67791D01*
X37251Y-67752D01*
X37254Y-67714D01*
X37265Y-67677D01*
X37282Y-67642D01*
X37307Y-67612D01*
X37336Y-67586D01*
X37370Y-67567D01*
X37408Y-67555D01*
X37446Y-67551D01*
X37484Y-67554D01*
X37522Y-67564D01*
X37557Y-67582D01*
X37587Y-67606D01*
X37613Y-67635D01*
X37632Y-67669D01*
X37645Y-67706D01*
X37649Y-67745D01*
X37650Y-67750D01*
X37450Y-67550D02*
X37450Y-67950D01*
X38050Y-48750D02*
X38046Y-48788D01*
X38034Y-48826D01*
X38016Y-48860D01*
X37991Y-48890D01*
X37961Y-48915D01*
X37927Y-48934D01*
X37890Y-48945D01*
X37851Y-48949D01*
X37813Y-48946D01*
X37776Y-48935D01*
X37741Y-48917D01*
X37711Y-48892D01*
X37685Y-48862D01*
X37667Y-48828D01*
X37655Y-48791D01*
X37651Y-48752D01*
X37654Y-48714D01*
X37665Y-48677D01*
X37682Y-48642D01*
X37707Y-48612D01*
X37736Y-48586D01*
X37770Y-48567D01*
X37808Y-48555D01*
X37846Y-48551D01*
X37884Y-48554D01*
X37922Y-48564D01*
X37957Y-48582D01*
X37987Y-48606D01*
X38013Y-48635D01*
X38032Y-48669D01*
X38045Y-48706D01*
X38049Y-48745D01*
X38050Y-48750D01*
X37850Y-48550D02*
X37850Y-48950D01*
X39050Y-48750D02*
X39046Y-48788D01*
X39034Y-48826D01*
X39016Y-48860D01*
X38991Y-48890D01*
X38961Y-48915D01*
X38927Y-48934D01*
X38890Y-48945D01*
X38851Y-48949D01*
X38813Y-48946D01*
X38776Y-48935D01*
X38741Y-48917D01*
X38711Y-48892D01*
X38685Y-48862D01*
X38667Y-48828D01*
X38655Y-48791D01*
X38651Y-48752D01*
X38654Y-48714D01*
X38665Y-48677D01*
X38682Y-48642D01*
X38707Y-48612D01*
X38736Y-48586D01*
X38770Y-48567D01*
X38808Y-48555D01*
X38846Y-48551D01*
X38884Y-48554D01*
X38922Y-48564D01*
X38957Y-48582D01*
X38987Y-48606D01*
X39013Y-48635D01*
X39032Y-48669D01*
X39045Y-48706D01*
X39049Y-48745D01*
X39050Y-48750D01*
X38850Y-48550D02*
X38850Y-48950D01*
X40050Y-48750D02*
X40046Y-48788D01*
X40034Y-48826D01*
X40016Y-48860D01*
X39991Y-48890D01*
X39961Y-48915D01*
X39927Y-48934D01*
X39890Y-48945D01*
X39851Y-48949D01*
X39813Y-48946D01*
X39776Y-48935D01*
X39741Y-48917D01*
X39711Y-48892D01*
X39685Y-48862D01*
X39667Y-48828D01*
X39655Y-48791D01*
X39651Y-48752D01*
X39654Y-48714D01*
X39665Y-48677D01*
X39682Y-48642D01*
X39707Y-48612D01*
X39736Y-48586D01*
X39770Y-48567D01*
X39808Y-48555D01*
X39846Y-48551D01*
X39884Y-48554D01*
X39922Y-48564D01*
X39957Y-48582D01*
X39987Y-48606D01*
X40013Y-48635D01*
X40032Y-48669D01*
X40045Y-48706D01*
X40049Y-48745D01*
X40050Y-48750D01*
X39850Y-48550D02*
X39850Y-48950D01*
X41050Y-48750D02*
X41046Y-48788D01*
X41034Y-48826D01*
X41016Y-48860D01*
X40991Y-48890D01*
X40961Y-48915D01*
X40927Y-48934D01*
X40890Y-48945D01*
X40851Y-48949D01*
X40813Y-48946D01*
X40776Y-48935D01*
X40741Y-48917D01*
X40711Y-48892D01*
X40685Y-48862D01*
X40667Y-48828D01*
X40655Y-48791D01*
X40651Y-48752D01*
X40654Y-48714D01*
X40665Y-48677D01*
X40682Y-48642D01*
X40707Y-48612D01*
X40736Y-48586D01*
X40770Y-48567D01*
X40808Y-48555D01*
X40846Y-48551D01*
X40884Y-48554D01*
X40922Y-48564D01*
X40957Y-48582D01*
X40987Y-48606D01*
X41013Y-48635D01*
X41032Y-48669D01*
X41045Y-48706D01*
X41049Y-48745D01*
X41050Y-48750D01*
X40850Y-48550D02*
X40850Y-48950D01*
X42050Y-48750D02*
X42046Y-48788D01*
X42034Y-48826D01*
X42016Y-48860D01*
X41991Y-48890D01*
X41961Y-48915D01*
X41927Y-48934D01*
X41890Y-48945D01*
X41851Y-48949D01*
X41813Y-48946D01*
X41776Y-48935D01*
X41741Y-48917D01*
X41711Y-48892D01*
X41685Y-48862D01*
X41667Y-48828D01*
X41655Y-48791D01*
X41651Y-48752D01*
X41654Y-48714D01*
X41665Y-48677D01*
X41682Y-48642D01*
X41707Y-48612D01*
X41736Y-48586D01*
X41770Y-48567D01*
X41808Y-48555D01*
X41846Y-48551D01*
X41884Y-48554D01*
X41922Y-48564D01*
X41957Y-48582D01*
X41987Y-48606D01*
X42013Y-48635D01*
X42032Y-48669D01*
X42045Y-48706D01*
X42049Y-48745D01*
X42050Y-48750D01*
X41850Y-48550D02*
X41850Y-48950D01*
X43050Y-48750D02*
X43046Y-48788D01*
X43034Y-48826D01*
X43016Y-48860D01*
X42991Y-48890D01*
X42961Y-48915D01*
X42927Y-48934D01*
X42890Y-48945D01*
X42851Y-48949D01*
X42813Y-48946D01*
X42776Y-48935D01*
X42741Y-48917D01*
X42711Y-48892D01*
X42685Y-48862D01*
X42667Y-48828D01*
X42655Y-48791D01*
X42651Y-48752D01*
X42654Y-48714D01*
X42665Y-48677D01*
X42682Y-48642D01*
X42707Y-48612D01*
X42736Y-48586D01*
X42770Y-48567D01*
X42808Y-48555D01*
X42846Y-48551D01*
X42884Y-48554D01*
X42922Y-48564D01*
X42957Y-48582D01*
X42987Y-48606D01*
X43013Y-48635D01*
X43032Y-48669D01*
X43045Y-48706D01*
X43049Y-48745D01*
X43050Y-48750D01*
X42850Y-48550D02*
X42850Y-48950D01*
X55350Y-42350D02*
X55346Y-42388D01*
X55334Y-42426D01*
X55316Y-42460D01*
X55291Y-42490D01*
X55261Y-42515D01*
X55227Y-42534D01*
X55190Y-42545D01*
X55151Y-42549D01*
X55113Y-42546D01*
X55076Y-42535D01*
X55041Y-42517D01*
X55011Y-42492D01*
X54985Y-42462D01*
X54967Y-42428D01*
X54955Y-42391D01*
X54951Y-42352D01*
X54954Y-42314D01*
X54965Y-42277D01*
X54982Y-42242D01*
X55007Y-42212D01*
X55036Y-42186D01*
X55070Y-42167D01*
X55108Y-42155D01*
X55146Y-42151D01*
X55184Y-42154D01*
X55222Y-42164D01*
X55257Y-42182D01*
X55287Y-42206D01*
X55313Y-42235D01*
X55332Y-42269D01*
X55345Y-42306D01*
X55349Y-42345D01*
X55350Y-42350D01*
X55150Y-42150D02*
X55150Y-42550D01*
X55350Y-43400D02*
X55346Y-43438D01*
X55334Y-43476D01*
X55316Y-43510D01*
X55291Y-43540D01*
X55261Y-43565D01*
X55227Y-43584D01*
X55190Y-43595D01*
X55151Y-43599D01*
X55113Y-43596D01*
X55076Y-43585D01*
X55041Y-43567D01*
X55011Y-43542D01*
X54985Y-43512D01*
X54967Y-43478D01*
X54955Y-43441D01*
X54951Y-43402D01*
X54954Y-43364D01*
X54965Y-43327D01*
X54982Y-43292D01*
X55007Y-43262D01*
X55036Y-43236D01*
X55070Y-43217D01*
X55108Y-43205D01*
X55146Y-43201D01*
X55184Y-43204D01*
X55222Y-43214D01*
X55257Y-43232D01*
X55287Y-43256D01*
X55313Y-43285D01*
X55332Y-43319D01*
X55345Y-43356D01*
X55349Y-43395D01*
X55350Y-43400D01*
X55150Y-43200D02*
X55150Y-43600D01*
X55350Y-44500D02*
X55346Y-44538D01*
X55334Y-44576D01*
X55316Y-44610D01*
X55291Y-44640D01*
X55261Y-44665D01*
X55227Y-44684D01*
X55190Y-44695D01*
X55151Y-44699D01*
X55113Y-44696D01*
X55076Y-44685D01*
X55041Y-44667D01*
X55011Y-44642D01*
X54985Y-44612D01*
X54967Y-44578D01*
X54955Y-44541D01*
X54951Y-44502D01*
X54954Y-44464D01*
X54965Y-44427D01*
X54982Y-44392D01*
X55007Y-44362D01*
X55036Y-44336D01*
X55070Y-44317D01*
X55108Y-44305D01*
X55146Y-44301D01*
X55184Y-44304D01*
X55222Y-44314D01*
X55257Y-44332D01*
X55287Y-44356D01*
X55313Y-44385D01*
X55332Y-44419D01*
X55345Y-44456D01*
X55349Y-44495D01*
X55350Y-44500D01*
X55150Y-44300D02*
X55150Y-44700D01*
X55350Y-45550D02*
X55346Y-45588D01*
X55334Y-45626D01*
X55316Y-45660D01*
X55291Y-45690D01*
X55261Y-45715D01*
X55227Y-45734D01*
X55190Y-45745D01*
X55151Y-45749D01*
X55113Y-45746D01*
X55076Y-45735D01*
X55041Y-45717D01*
X55011Y-45692D01*
X54985Y-45662D01*
X54967Y-45628D01*
X54955Y-45591D01*
X54951Y-45552D01*
X54954Y-45514D01*
X54965Y-45477D01*
X54982Y-45442D01*
X55007Y-45412D01*
X55036Y-45386D01*
X55070Y-45367D01*
X55108Y-45355D01*
X55146Y-45351D01*
X55184Y-45354D01*
X55222Y-45364D01*
X55257Y-45382D01*
X55287Y-45406D01*
X55313Y-45435D01*
X55332Y-45469D01*
X55345Y-45506D01*
X55349Y-45545D01*
X55350Y-45550D01*
X55150Y-45350D02*
X55150Y-45750D01*
X55350Y-46650D02*
X55346Y-46688D01*
X55334Y-46726D01*
X55316Y-46760D01*
X55291Y-46790D01*
X55261Y-46815D01*
X55227Y-46834D01*
X55190Y-46845D01*
X55151Y-46849D01*
X55113Y-46846D01*
X55076Y-46835D01*
X55041Y-46817D01*
X55011Y-46792D01*
X54985Y-46762D01*
X54967Y-46728D01*
X54955Y-46691D01*
X54951Y-46652D01*
X54954Y-46614D01*
X54965Y-46577D01*
X54982Y-46542D01*
X55007Y-46512D01*
X55036Y-46486D01*
X55070Y-46467D01*
X55108Y-46455D01*
X55146Y-46451D01*
X55184Y-46454D01*
X55222Y-46464D01*
X55257Y-46482D01*
X55287Y-46506D01*
X55313Y-46535D01*
X55332Y-46569D01*
X55345Y-46606D01*
X55349Y-46645D01*
X55350Y-46650D01*
X55150Y-46450D02*
X55150Y-46850D01*
X55950Y-15500D02*
X55946Y-15538D01*
X55934Y-15576D01*
X55916Y-15610D01*
X55891Y-15640D01*
X55861Y-15665D01*
X55827Y-15684D01*
X55790Y-15695D01*
X55751Y-15699D01*
X55713Y-15696D01*
X55676Y-15685D01*
X55641Y-15667D01*
X55611Y-15642D01*
X55585Y-15612D01*
X55567Y-15578D01*
X55555Y-15541D01*
X55551Y-15502D01*
X55554Y-15464D01*
X55565Y-15427D01*
X55582Y-15392D01*
X55607Y-15362D01*
X55636Y-15336D01*
X55670Y-15317D01*
X55708Y-15305D01*
X55746Y-15301D01*
X55784Y-15304D01*
X55822Y-15314D01*
X55857Y-15332D01*
X55887Y-15356D01*
X55913Y-15385D01*
X55932Y-15419D01*
X55945Y-15456D01*
X55949Y-15495D01*
X55950Y-15500D01*
X55750Y-15300D02*
X55750Y-15700D01*
X56450Y-42850D02*
X56446Y-42888D01*
X56434Y-42926D01*
X56416Y-42960D01*
X56391Y-42990D01*
X56361Y-43015D01*
X56327Y-43034D01*
X56290Y-43045D01*
X56251Y-43049D01*
X56213Y-43046D01*
X56176Y-43035D01*
X56141Y-43017D01*
X56111Y-42992D01*
X56085Y-42962D01*
X56067Y-42928D01*
X56055Y-42891D01*
X56051Y-42852D01*
X56054Y-42814D01*
X56065Y-42777D01*
X56082Y-42742D01*
X56107Y-42712D01*
X56136Y-42686D01*
X56170Y-42667D01*
X56208Y-42655D01*
X56246Y-42651D01*
X56284Y-42654D01*
X56322Y-42664D01*
X56357Y-42682D01*
X56387Y-42706D01*
X56413Y-42735D01*
X56432Y-42769D01*
X56445Y-42806D01*
X56449Y-42845D01*
X56450Y-42850D01*
X56250Y-42650D02*
X56250Y-43050D01*
X56450Y-43950D02*
X56446Y-43988D01*
X56434Y-44026D01*
X56416Y-44060D01*
X56391Y-44090D01*
X56361Y-44115D01*
X56327Y-44134D01*
X56290Y-44145D01*
X56251Y-44149D01*
X56213Y-44146D01*
X56176Y-44135D01*
X56141Y-44117D01*
X56111Y-44092D01*
X56085Y-44062D01*
X56067Y-44028D01*
X56055Y-43991D01*
X56051Y-43952D01*
X56054Y-43914D01*
X56065Y-43877D01*
X56082Y-43842D01*
X56107Y-43812D01*
X56136Y-43786D01*
X56170Y-43767D01*
X56208Y-43755D01*
X56246Y-43751D01*
X56284Y-43754D01*
X56322Y-43764D01*
X56357Y-43782D01*
X56387Y-43806D01*
X56413Y-43835D01*
X56432Y-43869D01*
X56445Y-43906D01*
X56449Y-43945D01*
X56450Y-43950D01*
X56250Y-43750D02*
X56250Y-44150D01*
X56450Y-45000D02*
X56446Y-45038D01*
X56434Y-45076D01*
X56416Y-45110D01*
X56391Y-45140D01*
X56361Y-45165D01*
X56327Y-45184D01*
X56290Y-45195D01*
X56251Y-45199D01*
X56213Y-45196D01*
X56176Y-45185D01*
X56141Y-45167D01*
X56111Y-45142D01*
X56085Y-45112D01*
X56067Y-45078D01*
X56055Y-45041D01*
X56051Y-45002D01*
X56054Y-44964D01*
X56065Y-44927D01*
X56082Y-44892D01*
X56107Y-44862D01*
X56136Y-44836D01*
X56170Y-44817D01*
X56208Y-44805D01*
X56246Y-44801D01*
X56284Y-44804D01*
X56322Y-44814D01*
X56357Y-44832D01*
X56387Y-44856D01*
X56413Y-44885D01*
X56432Y-44919D01*
X56445Y-44956D01*
X56449Y-44995D01*
X56450Y-45000D01*
X56250Y-44800D02*
X56250Y-45200D01*
X56450Y-46100D02*
X56446Y-46138D01*
X56434Y-46176D01*
X56416Y-46210D01*
X56391Y-46240D01*
X56361Y-46265D01*
X56327Y-46284D01*
X56290Y-46295D01*
X56251Y-46299D01*
X56213Y-46296D01*
X56176Y-46285D01*
X56141Y-46267D01*
X56111Y-46242D01*
X56085Y-46212D01*
X56067Y-46178D01*
X56055Y-46141D01*
X56051Y-46102D01*
X56054Y-46064D01*
X56065Y-46027D01*
X56082Y-45992D01*
X56107Y-45962D01*
X56136Y-45936D01*
X56170Y-45917D01*
X56208Y-45905D01*
X56246Y-45901D01*
X56284Y-45904D01*
X56322Y-45914D01*
X56357Y-45932D01*
X56387Y-45956D01*
X56413Y-45985D01*
X56432Y-46019D01*
X56445Y-46056D01*
X56449Y-46095D01*
X56450Y-46100D01*
X56250Y-45900D02*
X56250Y-46300D01*
X56450Y-55250D02*
X56446Y-55288D01*
X56434Y-55326D01*
X56416Y-55360D01*
X56391Y-55390D01*
X56361Y-55415D01*
X56327Y-55434D01*
X56290Y-55445D01*
X56251Y-55449D01*
X56213Y-55446D01*
X56176Y-55435D01*
X56141Y-55417D01*
X56111Y-55392D01*
X56085Y-55362D01*
X56067Y-55328D01*
X56055Y-55291D01*
X56051Y-55252D01*
X56054Y-55214D01*
X56065Y-55177D01*
X56082Y-55142D01*
X56107Y-55112D01*
X56136Y-55086D01*
X56170Y-55067D01*
X56208Y-55055D01*
X56246Y-55051D01*
X56284Y-55054D01*
X56322Y-55064D01*
X56357Y-55082D01*
X56387Y-55106D01*
X56413Y-55135D01*
X56432Y-55169D01*
X56445Y-55206D01*
X56449Y-55245D01*
X56450Y-55250D01*
X56250Y-55050D02*
X56250Y-55450D01*
X56450Y-56250D02*
X56446Y-56288D01*
X56434Y-56326D01*
X56416Y-56360D01*
X56391Y-56390D01*
X56361Y-56415D01*
X56327Y-56434D01*
X56290Y-56445D01*
X56251Y-56449D01*
X56213Y-56446D01*
X56176Y-56435D01*
X56141Y-56417D01*
X56111Y-56392D01*
X56085Y-56362D01*
X56067Y-56328D01*
X56055Y-56291D01*
X56051Y-56252D01*
X56054Y-56214D01*
X56065Y-56177D01*
X56082Y-56142D01*
X56107Y-56112D01*
X56136Y-56086D01*
X56170Y-56067D01*
X56208Y-56055D01*
X56246Y-56051D01*
X56284Y-56054D01*
X56322Y-56064D01*
X56357Y-56082D01*
X56387Y-56106D01*
X56413Y-56135D01*
X56432Y-56169D01*
X56445Y-56206D01*
X56449Y-56245D01*
X56450Y-56250D01*
X56250Y-56050D02*
X56250Y-56450D01*
X56450Y-57250D02*
X56446Y-57288D01*
X56434Y-57326D01*
X56416Y-57360D01*
X56391Y-57390D01*
X56361Y-57415D01*
X56327Y-57434D01*
X56290Y-57445D01*
X56251Y-57449D01*
X56213Y-57446D01*
X56176Y-57435D01*
X56141Y-57417D01*
X56111Y-57392D01*
X56085Y-57362D01*
X56067Y-57328D01*
X56055Y-57291D01*
X56051Y-57252D01*
X56054Y-57214D01*
X56065Y-57177D01*
X56082Y-57142D01*
X56107Y-57112D01*
X56136Y-57086D01*
X56170Y-57067D01*
X56208Y-57055D01*
X56246Y-57051D01*
X56284Y-57054D01*
X56322Y-57064D01*
X56357Y-57082D01*
X56387Y-57106D01*
X56413Y-57135D01*
X56432Y-57169D01*
X56445Y-57206D01*
X56449Y-57245D01*
X56450Y-57250D01*
X56250Y-57050D02*
X56250Y-57450D01*
X56450Y-58250D02*
X56446Y-58288D01*
X56434Y-58326D01*
X56416Y-58360D01*
X56391Y-58390D01*
X56361Y-58415D01*
X56327Y-58434D01*
X56290Y-58445D01*
X56251Y-58449D01*
X56213Y-58446D01*
X56176Y-58435D01*
X56141Y-58417D01*
X56111Y-58392D01*
X56085Y-58362D01*
X56067Y-58328D01*
X56055Y-58291D01*
X56051Y-58252D01*
X56054Y-58214D01*
X56065Y-58177D01*
X56082Y-58142D01*
X56107Y-58112D01*
X56136Y-58086D01*
X56170Y-58067D01*
X56208Y-58055D01*
X56246Y-58051D01*
X56284Y-58054D01*
X56322Y-58064D01*
X56357Y-58082D01*
X56387Y-58106D01*
X56413Y-58135D01*
X56432Y-58169D01*
X56445Y-58206D01*
X56449Y-58245D01*
X56450Y-58250D01*
X56250Y-58050D02*
X56250Y-58450D01*
X56450Y-59250D02*
X56446Y-59288D01*
X56434Y-59326D01*
X56416Y-59360D01*
X56391Y-59390D01*
X56361Y-59415D01*
X56327Y-59434D01*
X56290Y-59445D01*
X56251Y-59449D01*
X56213Y-59446D01*
X56176Y-59435D01*
X56141Y-59417D01*
X56111Y-59392D01*
X56085Y-59362D01*
X56067Y-59328D01*
X56055Y-59291D01*
X56051Y-59252D01*
X56054Y-59214D01*
X56065Y-59177D01*
X56082Y-59142D01*
X56107Y-59112D01*
X56136Y-59086D01*
X56170Y-59067D01*
X56208Y-59055D01*
X56246Y-59051D01*
X56284Y-59054D01*
X56322Y-59064D01*
X56357Y-59082D01*
X56387Y-59106D01*
X56413Y-59135D01*
X56432Y-59169D01*
X56445Y-59206D01*
X56449Y-59245D01*
X56450Y-59250D01*
X56250Y-59050D02*
X56250Y-59450D01*
X56450Y-60250D02*
X56446Y-60288D01*
X56434Y-60326D01*
X56416Y-60360D01*
X56391Y-60390D01*
X56361Y-60415D01*
X56327Y-60434D01*
X56290Y-60445D01*
X56251Y-60449D01*
X56213Y-60446D01*
X56176Y-60435D01*
X56141Y-60417D01*
X56111Y-60392D01*
X56085Y-60362D01*
X56067Y-60328D01*
X56055Y-60291D01*
X56051Y-60252D01*
X56054Y-60214D01*
X56065Y-60177D01*
X56082Y-60142D01*
X56107Y-60112D01*
X56136Y-60086D01*
X56170Y-60067D01*
X56208Y-60055D01*
X56246Y-60051D01*
X56284Y-60054D01*
X56322Y-60064D01*
X56357Y-60082D01*
X56387Y-60106D01*
X56413Y-60135D01*
X56432Y-60169D01*
X56445Y-60206D01*
X56449Y-60245D01*
X56450Y-60250D01*
X56250Y-60050D02*
X56250Y-60450D01*
X56450Y-61250D02*
X56446Y-61288D01*
X56434Y-61326D01*
X56416Y-61360D01*
X56391Y-61390D01*
X56361Y-61415D01*
X56327Y-61434D01*
X56290Y-61445D01*
X56251Y-61449D01*
X56213Y-61446D01*
X56176Y-61435D01*
X56141Y-61417D01*
X56111Y-61392D01*
X56085Y-61362D01*
X56067Y-61328D01*
X56055Y-61291D01*
X56051Y-61252D01*
X56054Y-61214D01*
X56065Y-61177D01*
X56082Y-61142D01*
X56107Y-61112D01*
X56136Y-61086D01*
X56170Y-61067D01*
X56208Y-61055D01*
X56246Y-61051D01*
X56284Y-61054D01*
X56322Y-61064D01*
X56357Y-61082D01*
X56387Y-61106D01*
X56413Y-61135D01*
X56432Y-61169D01*
X56445Y-61206D01*
X56449Y-61245D01*
X56450Y-61250D01*
X56250Y-61050D02*
X56250Y-61450D01*
X56450Y-62250D02*
X56446Y-62288D01*
X56434Y-62326D01*
X56416Y-62360D01*
X56391Y-62390D01*
X56361Y-62415D01*
X56327Y-62434D01*
X56290Y-62445D01*
X56251Y-62449D01*
X56213Y-62446D01*
X56176Y-62435D01*
X56141Y-62417D01*
X56111Y-62392D01*
X56085Y-62362D01*
X56067Y-62328D01*
X56055Y-62291D01*
X56051Y-62252D01*
X56054Y-62214D01*
X56065Y-62177D01*
X56082Y-62142D01*
X56107Y-62112D01*
X56136Y-62086D01*
X56170Y-62067D01*
X56208Y-62055D01*
X56246Y-62051D01*
X56284Y-62054D01*
X56322Y-62064D01*
X56357Y-62082D01*
X56387Y-62106D01*
X56413Y-62135D01*
X56432Y-62169D01*
X56445Y-62206D01*
X56449Y-62245D01*
X56450Y-62250D01*
X56250Y-62050D02*
X56250Y-62450D01*
X56950Y-15500D02*
X56946Y-15538D01*
X56934Y-15576D01*
X56916Y-15610D01*
X56891Y-15640D01*
X56861Y-15665D01*
X56827Y-15684D01*
X56790Y-15695D01*
X56751Y-15699D01*
X56713Y-15696D01*
X56676Y-15685D01*
X56641Y-15667D01*
X56611Y-15642D01*
X56585Y-15612D01*
X56567Y-15578D01*
X56555Y-15541D01*
X56551Y-15502D01*
X56554Y-15464D01*
X56565Y-15427D01*
X56582Y-15392D01*
X56607Y-15362D01*
X56636Y-15336D01*
X56670Y-15317D01*
X56708Y-15305D01*
X56746Y-15301D01*
X56784Y-15304D01*
X56822Y-15314D01*
X56857Y-15332D01*
X56887Y-15356D01*
X56913Y-15385D01*
X56932Y-15419D01*
X56945Y-15456D01*
X56949Y-15495D01*
X56950Y-15500D01*
X56750Y-15300D02*
X56750Y-15700D01*
X57950Y-55250D02*
X57946Y-55288D01*
X57934Y-55326D01*
X57916Y-55360D01*
X57891Y-55390D01*
X57861Y-55415D01*
X57827Y-55434D01*
X57790Y-55445D01*
X57751Y-55449D01*
X57713Y-55446D01*
X57676Y-55435D01*
X57641Y-55417D01*
X57611Y-55392D01*
X57585Y-55362D01*
X57567Y-55328D01*
X57555Y-55291D01*
X57551Y-55252D01*
X57554Y-55214D01*
X57565Y-55177D01*
X57582Y-55142D01*
X57607Y-55112D01*
X57636Y-55086D01*
X57670Y-55067D01*
X57708Y-55055D01*
X57746Y-55051D01*
X57784Y-55054D01*
X57822Y-55064D01*
X57857Y-55082D01*
X57887Y-55106D01*
X57913Y-55135D01*
X57932Y-55169D01*
X57945Y-55206D01*
X57949Y-55245D01*
X57950Y-55250D01*
X57750Y-55050D02*
X57750Y-55450D01*
X57950Y-56250D02*
X57946Y-56288D01*
X57934Y-56326D01*
X57916Y-56360D01*
X57891Y-56390D01*
X57861Y-56415D01*
X57827Y-56434D01*
X57790Y-56445D01*
X57751Y-56449D01*
X57713Y-56446D01*
X57676Y-56435D01*
X57641Y-56417D01*
X57611Y-56392D01*
X57585Y-56362D01*
X57567Y-56328D01*
X57555Y-56291D01*
X57551Y-56252D01*
X57554Y-56214D01*
X57565Y-56177D01*
X57582Y-56142D01*
X57607Y-56112D01*
X57636Y-56086D01*
X57670Y-56067D01*
X57708Y-56055D01*
X57746Y-56051D01*
X57784Y-56054D01*
X57822Y-56064D01*
X57857Y-56082D01*
X57887Y-56106D01*
X57913Y-56135D01*
X57932Y-56169D01*
X57945Y-56206D01*
X57949Y-56245D01*
X57950Y-56250D01*
X57750Y-56050D02*
X57750Y-56450D01*
X57950Y-57250D02*
X57946Y-57288D01*
X57934Y-57326D01*
X57916Y-57360D01*
X57891Y-57390D01*
X57861Y-57415D01*
X57827Y-57434D01*
X57790Y-57445D01*
X57751Y-57449D01*
X57713Y-57446D01*
X57676Y-57435D01*
X57641Y-57417D01*
X57611Y-57392D01*
X57585Y-57362D01*
X57567Y-57328D01*
X57555Y-57291D01*
X57551Y-57252D01*
X57554Y-57214D01*
X57565Y-57177D01*
X57582Y-57142D01*
X57607Y-57112D01*
X57636Y-57086D01*
X57670Y-57067D01*
X57708Y-57055D01*
X57746Y-57051D01*
X57784Y-57054D01*
X57822Y-57064D01*
X57857Y-57082D01*
X57887Y-57106D01*
X57913Y-57135D01*
X57932Y-57169D01*
X57945Y-57206D01*
X57949Y-57245D01*
X57950Y-57250D01*
X57750Y-57050D02*
X57750Y-57450D01*
X57950Y-58250D02*
X57946Y-58288D01*
X57934Y-58326D01*
X57916Y-58360D01*
X57891Y-58390D01*
X57861Y-58415D01*
X57827Y-58434D01*
X57790Y-58445D01*
X57751Y-58449D01*
X57713Y-58446D01*
X57676Y-58435D01*
X57641Y-58417D01*
X57611Y-58392D01*
X57585Y-58362D01*
X57567Y-58328D01*
X57555Y-58291D01*
X57551Y-58252D01*
X57554Y-58214D01*
X57565Y-58177D01*
X57582Y-58142D01*
X57607Y-58112D01*
X57636Y-58086D01*
X57670Y-58067D01*
X57708Y-58055D01*
X57746Y-58051D01*
X57784Y-58054D01*
X57822Y-58064D01*
X57857Y-58082D01*
X57887Y-58106D01*
X57913Y-58135D01*
X57932Y-58169D01*
X57945Y-58206D01*
X57949Y-58245D01*
X57950Y-58250D01*
X57750Y-58050D02*
X57750Y-58450D01*
X57950Y-59250D02*
X57946Y-59288D01*
X57934Y-59326D01*
X57916Y-59360D01*
X57891Y-59390D01*
X57861Y-59415D01*
X57827Y-59434D01*
X57790Y-59445D01*
X57751Y-59449D01*
X57713Y-59446D01*
X57676Y-59435D01*
X57641Y-59417D01*
X57611Y-59392D01*
X57585Y-59362D01*
X57567Y-59328D01*
X57555Y-59291D01*
X57551Y-59252D01*
X57554Y-59214D01*
X57565Y-59177D01*
X57582Y-59142D01*
X57607Y-59112D01*
X57636Y-59086D01*
X57670Y-59067D01*
X57708Y-59055D01*
X57746Y-59051D01*
X57784Y-59054D01*
X57822Y-59064D01*
X57857Y-59082D01*
X57887Y-59106D01*
X57913Y-59135D01*
X57932Y-59169D01*
X57945Y-59206D01*
X57949Y-59245D01*
X57950Y-59250D01*
X57750Y-59050D02*
X57750Y-59450D01*
X57950Y-60250D02*
X57946Y-60288D01*
X57934Y-60326D01*
X57916Y-60360D01*
X57891Y-60390D01*
X57861Y-60415D01*
X57827Y-60434D01*
X57790Y-60445D01*
X57751Y-60449D01*
X57713Y-60446D01*
X57676Y-60435D01*
X57641Y-60417D01*
X57611Y-60392D01*
X57585Y-60362D01*
X57567Y-60328D01*
X57555Y-60291D01*
X57551Y-60252D01*
X57554Y-60214D01*
X57565Y-60177D01*
X57582Y-60142D01*
X57607Y-60112D01*
X57636Y-60086D01*
X57670Y-60067D01*
X57708Y-60055D01*
X57746Y-60051D01*
X57784Y-60054D01*
X57822Y-60064D01*
X57857Y-60082D01*
X57887Y-60106D01*
X57913Y-60135D01*
X57932Y-60169D01*
X57945Y-60206D01*
X57949Y-60245D01*
X57950Y-60250D01*
X57750Y-60050D02*
X57750Y-60450D01*
X57950Y-61250D02*
X57946Y-61288D01*
X57934Y-61326D01*
X57916Y-61360D01*
X57891Y-61390D01*
X57861Y-61415D01*
X57827Y-61434D01*
X57790Y-61445D01*
X57751Y-61449D01*
X57713Y-61446D01*
X57676Y-61435D01*
X57641Y-61417D01*
X57611Y-61392D01*
X57585Y-61362D01*
X57567Y-61328D01*
X57555Y-61291D01*
X57551Y-61252D01*
X57554Y-61214D01*
X57565Y-61177D01*
X57582Y-61142D01*
X57607Y-61112D01*
X57636Y-61086D01*
X57670Y-61067D01*
X57708Y-61055D01*
X57746Y-61051D01*
X57784Y-61054D01*
X57822Y-61064D01*
X57857Y-61082D01*
X57887Y-61106D01*
X57913Y-61135D01*
X57932Y-61169D01*
X57945Y-61206D01*
X57949Y-61245D01*
X57950Y-61250D01*
X57750Y-61050D02*
X57750Y-61450D01*
X57950Y-62250D02*
X57946Y-62288D01*
X57934Y-62326D01*
X57916Y-62360D01*
X57891Y-62390D01*
X57861Y-62415D01*
X57827Y-62434D01*
X57790Y-62445D01*
X57751Y-62449D01*
X57713Y-62446D01*
X57676Y-62435D01*
X57641Y-62417D01*
X57611Y-62392D01*
X57585Y-62362D01*
X57567Y-62328D01*
X57555Y-62291D01*
X57551Y-62252D01*
X57554Y-62214D01*
X57565Y-62177D01*
X57582Y-62142D01*
X57607Y-62112D01*
X57636Y-62086D01*
X57670Y-62067D01*
X57708Y-62055D01*
X57746Y-62051D01*
X57784Y-62054D01*
X57822Y-62064D01*
X57857Y-62082D01*
X57887Y-62106D01*
X57913Y-62135D01*
X57932Y-62169D01*
X57945Y-62206D01*
X57949Y-62245D01*
X57950Y-62250D01*
X57750Y-62050D02*
X57750Y-62450D01*
X45909Y-36159D02*
X45909Y-35841D01*
X45591Y-35841D01*
X45591Y-36159D01*
X45909Y-36159D01*
X48159Y-40659D02*
X48159Y-40341D01*
X47841Y-40341D01*
X47841Y-40659D01*
X48159Y-40659D01*
X48409Y-51159D02*
X48409Y-50841D01*
X48091Y-50841D01*
X48091Y-51159D01*
X48409Y-51159D01*
X50909Y-36159D02*
X50909Y-35841D01*
X50591Y-35841D01*
X50591Y-36159D01*
X50909Y-36159D01*
X53159Y-40659D02*
X53159Y-40341D01*
X52841Y-40341D01*
X52841Y-40659D01*
X53159Y-40659D01*
X53409Y-51159D02*
X53409Y-50841D01*
X53091Y-50841D01*
X53091Y-51159D01*
X53409Y-51159D01*
X54909Y-17659D02*
X54909Y-17341D01*
X54591Y-17341D01*
X54591Y-17659D01*
X54909Y-17659D01*
X55909Y-17659D02*
X55909Y-17341D01*
X55591Y-17341D01*
X55591Y-17659D01*
X55909Y-17659D01*
X56909Y-17659D02*
X56909Y-17341D01*
X56591Y-17341D01*
X56591Y-17659D01*
X56909Y-17659D01*
X50750Y-55592D02*
X51045Y-55297D01*
X50750Y-55002D01*
X50455Y-55297D01*
X50750Y-55592D01*
X50750Y-63663D02*
X51045Y-63368D01*
X50750Y-63073D01*
X50455Y-63368D01*
X50750Y-63663D01*
X55172Y-32202D02*
X55172Y-31562D01*
X54532Y-31562D01*
X54532Y-32202D01*
X55172Y-32202D01*
X54399Y-31429D02*
X55305Y-32335D01*
X55305Y-31429D02*
X54399Y-32335D01*
X55172Y-36934D02*
X55172Y-36294D01*
X54532Y-36294D01*
X54532Y-36934D01*
X55172Y-36934D01*
X54399Y-36161D02*
X55305Y-37067D01*
X55305Y-36161D02*
X54399Y-37067D01*
X55700Y-40150D02*
X56300Y-39550D01*
X55700Y-38950D01*
X55100Y-39550D01*
X55700Y-40150D01*
X55700Y-38950D02*
X55700Y-40150D01*
X56300Y-39550D02*
X55100Y-39550D01*
X55700Y-50000D02*
X56300Y-49400D01*
X55700Y-48800D01*
X55100Y-49400D01*
X55700Y-50000D01*
X55700Y-48800D02*
X55700Y-50000D01*
X56300Y-49400D02*
X55100Y-49400D01*
X55750Y-24600D02*
X56350Y-24000D01*
X55750Y-23400D01*
X55150Y-24000D01*
X55750Y-24600D01*
X55750Y-23400D02*
X55750Y-24600D01*
X56350Y-24000D02*
X55150Y-24000D01*
G54D13*
X14840Y-72280D02*
X14840Y-71480D01*
X15031Y-71480D01*
X15145Y-71518D01*
X15221Y-71594D01*
X15260Y-71670D01*
X15298Y-71823D01*
X15298Y-71937D01*
X15260Y-72089D01*
X15221Y-72166D01*
X15145Y-72242D01*
X15031Y-72280D01*
X14840Y-72280D01*
X15640Y-72280D02*
X15640Y-71746D01*
X15640Y-71899D02*
X15679Y-71823D01*
X15717Y-71785D01*
X15793Y-71746D01*
X15869Y-71746D01*
X16135Y-72280D02*
X16135Y-71746D01*
X16135Y-71480D02*
X16097Y-71518D01*
X16135Y-71556D01*
X16174Y-71518D01*
X16135Y-71480D01*
X16135Y-71556D01*
X16631Y-72280D02*
X16555Y-72242D01*
X16516Y-72166D01*
X16516Y-71480D01*
X17050Y-72280D02*
X16974Y-72242D01*
X16935Y-72166D01*
X16935Y-71480D01*
X17964Y-72280D02*
X17964Y-71480D01*
X18231Y-72051D01*
X18498Y-71480D01*
X18498Y-72280D01*
X19221Y-72280D02*
X19221Y-71861D01*
X19183Y-71785D01*
X19107Y-71746D01*
X18955Y-71746D01*
X18878Y-71785D01*
X19221Y-72242D02*
X19145Y-72280D01*
X18955Y-72280D01*
X18878Y-72242D01*
X18840Y-72166D01*
X18840Y-72089D01*
X18878Y-72013D01*
X18955Y-71975D01*
X19145Y-71975D01*
X19221Y-71937D01*
X19602Y-71746D02*
X19602Y-72546D01*
X19602Y-71785D02*
X19679Y-71746D01*
X19831Y-71746D01*
X19907Y-71785D01*
X19945Y-71823D01*
X19983Y-71899D01*
X19983Y-72127D01*
X19945Y-72204D01*
X19907Y-72242D01*
X19831Y-72280D01*
X19679Y-72280D01*
X19602Y-72242D01*
X20326Y-72204D02*
X20365Y-72242D01*
X20326Y-72280D01*
X20288Y-72242D01*
X20326Y-72204D01*
X20326Y-72280D01*
X20326Y-71785D02*
X20365Y-71823D01*
X20326Y-71861D01*
X20288Y-71823D01*
X20326Y-71785D01*
X20326Y-71861D01*
X14250Y-73536D02*
X14450Y-73736D01*
X14450Y-73536D02*
X14250Y-73736D01*
X14993Y-73160D02*
X15069Y-73160D01*
X15145Y-73198D01*
X15183Y-73236D01*
X15221Y-73312D01*
X15260Y-73465D01*
X15260Y-73655D01*
X15221Y-73807D01*
X15183Y-73884D01*
X15145Y-73922D01*
X15069Y-73960D01*
X14993Y-73960D01*
X14917Y-73922D01*
X14879Y-73884D01*
X14840Y-73807D01*
X14802Y-73655D01*
X14802Y-73465D01*
X14840Y-73312D01*
X14879Y-73236D01*
X14917Y-73198D01*
X14993Y-73160D01*
X15602Y-73884D02*
X15641Y-73922D01*
X15602Y-73960D01*
X15564Y-73922D01*
X15602Y-73884D01*
X15602Y-73960D01*
X16136Y-73160D02*
X16212Y-73160D01*
X16288Y-73198D01*
X16326Y-73236D01*
X16364Y-73312D01*
X16403Y-73465D01*
X16403Y-73655D01*
X16364Y-73807D01*
X16326Y-73884D01*
X16288Y-73922D01*
X16212Y-73960D01*
X16136Y-73960D01*
X16060Y-73922D01*
X16022Y-73884D01*
X15983Y-73807D01*
X15945Y-73655D01*
X15945Y-73465D01*
X15983Y-73312D01*
X16022Y-73236D01*
X16060Y-73198D01*
X16136Y-73160D01*
X16707Y-73236D02*
X16745Y-73198D01*
X16822Y-73160D01*
X17012Y-73160D01*
X17088Y-73198D01*
X17126Y-73236D01*
X17165Y-73312D01*
X17165Y-73388D01*
X17126Y-73503D01*
X16669Y-73960D01*
X17165Y-73960D01*
X17660Y-73160D02*
X17736Y-73160D01*
X17812Y-73198D01*
X17850Y-73236D01*
X17888Y-73312D01*
X17927Y-73465D01*
X17927Y-73655D01*
X17888Y-73807D01*
X17850Y-73884D01*
X17812Y-73922D01*
X17736Y-73960D01*
X17660Y-73960D01*
X17584Y-73922D01*
X17546Y-73884D01*
X17507Y-73807D01*
X17469Y-73655D01*
X17469Y-73465D01*
X17507Y-73312D01*
X17546Y-73236D01*
X17584Y-73198D01*
X17660Y-73160D01*
X18231Y-73160D02*
X18231Y-73312D01*
X18536Y-73160D02*
X18536Y-73312D01*
X20061Y-73122D02*
X19375Y-74150D01*
X21090Y-73160D02*
X21166Y-73160D01*
X21242Y-73198D01*
X21280Y-73236D01*
X21318Y-73312D01*
X21357Y-73465D01*
X21357Y-73655D01*
X21318Y-73807D01*
X21280Y-73884D01*
X21242Y-73922D01*
X21166Y-73960D01*
X21090Y-73960D01*
X21014Y-73922D01*
X20976Y-73884D01*
X20937Y-73807D01*
X20899Y-73655D01*
X20899Y-73465D01*
X20937Y-73312D01*
X20976Y-73236D01*
X21014Y-73198D01*
X21090Y-73160D01*
X21699Y-73884D02*
X21738Y-73922D01*
X21699Y-73960D01*
X21661Y-73922D01*
X21699Y-73884D01*
X21699Y-73960D01*
X22461Y-73160D02*
X22080Y-73160D01*
X22042Y-73541D01*
X22080Y-73503D01*
X22157Y-73465D01*
X22347Y-73465D01*
X22423Y-73503D01*
X22461Y-73541D01*
X22500Y-73617D01*
X22500Y-73807D01*
X22461Y-73884D01*
X22423Y-73922D01*
X22347Y-73960D01*
X22157Y-73960D01*
X22080Y-73922D01*
X22042Y-73884D01*
X23262Y-73960D02*
X22804Y-73960D01*
X23033Y-73960D02*
X23033Y-73160D01*
X22957Y-73274D01*
X22881Y-73350D01*
X22804Y-73388D01*
X23604Y-73960D02*
X23604Y-73426D01*
X23604Y-73503D02*
X23643Y-73465D01*
X23719Y-73426D01*
X23833Y-73426D01*
X23909Y-73465D01*
X23947Y-73541D01*
X23947Y-73960D01*
X23947Y-73541D02*
X23985Y-73465D01*
X24062Y-73426D01*
X24176Y-73426D01*
X24252Y-73465D01*
X24290Y-73541D01*
X24290Y-73960D01*
X24671Y-73960D02*
X24671Y-73426D01*
X24671Y-73503D02*
X24710Y-73465D01*
X24786Y-73426D01*
X24900Y-73426D01*
X24976Y-73465D01*
X25014Y-73541D01*
X25014Y-73960D01*
X25014Y-73541D02*
X25052Y-73465D01*
X25129Y-73426D01*
X25243Y-73426D01*
X25319Y-73465D01*
X25357Y-73541D01*
X25357Y-73960D01*
X26577Y-74265D02*
X26539Y-74226D01*
X26463Y-74112D01*
X26425Y-74036D01*
X26387Y-73922D01*
X26348Y-73731D01*
X26348Y-73579D01*
X26387Y-73388D01*
X26425Y-73274D01*
X26463Y-73198D01*
X26539Y-73084D01*
X26577Y-73046D01*
X26843Y-73236D02*
X26881Y-73198D01*
X26958Y-73160D01*
X27148Y-73160D01*
X27224Y-73198D01*
X27262Y-73236D01*
X27301Y-73312D01*
X27301Y-73388D01*
X27262Y-73503D01*
X26805Y-73960D01*
X27301Y-73960D01*
X28253Y-73960D02*
X28253Y-73160D01*
X28596Y-73960D02*
X28596Y-73541D01*
X28558Y-73465D01*
X28482Y-73426D01*
X28368Y-73426D01*
X28292Y-73465D01*
X28253Y-73503D01*
X29092Y-73960D02*
X29016Y-73922D01*
X28977Y-73884D01*
X28939Y-73807D01*
X28939Y-73579D01*
X28977Y-73503D01*
X29016Y-73465D01*
X29092Y-73426D01*
X29206Y-73426D01*
X29282Y-73465D01*
X29320Y-73503D01*
X29358Y-73579D01*
X29358Y-73807D01*
X29320Y-73884D01*
X29282Y-73922D01*
X29206Y-73960D01*
X29092Y-73960D01*
X29816Y-73960D02*
X29740Y-73922D01*
X29701Y-73846D01*
X29701Y-73160D01*
X30425Y-73922D02*
X30349Y-73960D01*
X30197Y-73960D01*
X30120Y-73922D01*
X30082Y-73846D01*
X30082Y-73541D01*
X30120Y-73465D01*
X30197Y-73426D01*
X30349Y-73426D01*
X30425Y-73465D01*
X30463Y-73541D01*
X30463Y-73617D01*
X30082Y-73693D01*
X30768Y-73922D02*
X30845Y-73960D01*
X30997Y-73960D01*
X31073Y-73922D01*
X31111Y-73846D01*
X31111Y-73807D01*
X31073Y-73731D01*
X30997Y-73693D01*
X30883Y-73693D01*
X30806Y-73655D01*
X30768Y-73579D01*
X30768Y-73541D01*
X30806Y-73465D01*
X30883Y-73426D01*
X30997Y-73426D01*
X31073Y-73465D01*
X31378Y-74265D02*
X31416Y-74226D01*
X31493Y-74112D01*
X31531Y-74036D01*
X31569Y-73922D01*
X31607Y-73731D01*
X31607Y-73579D01*
X31569Y-73388D01*
X31531Y-73274D01*
X31493Y-73198D01*
X31416Y-73084D01*
X31378Y-73046D01*
G54D10*
X14450Y-74691D02*
X14447Y-74715D01*
X14440Y-74738D01*
X14429Y-74760D01*
X14413Y-74779D01*
X14394Y-74794D01*
X14373Y-74806D01*
X14350Y-74813D01*
X14325Y-74815D01*
X14302Y-74813D01*
X14279Y-74806D01*
X14257Y-74795D01*
X14238Y-74780D01*
X14222Y-74761D01*
X14211Y-74740D01*
X14203Y-74716D01*
X14201Y-74692D01*
X14203Y-74669D01*
X14209Y-74645D01*
X14220Y-74624D01*
X14236Y-74605D01*
X14254Y-74589D01*
X14275Y-74577D01*
X14299Y-74569D01*
X14323Y-74567D01*
X14346Y-74568D01*
X14370Y-74575D01*
X14391Y-74586D01*
X14411Y-74601D01*
X14427Y-74619D01*
X14439Y-74641D01*
X14446Y-74664D01*
X14449Y-74688D01*
X14450Y-74691D01*
G54D13*
X14993Y-74215D02*
X15069Y-74215D01*
X15145Y-74253D01*
X15183Y-74291D01*
X15221Y-74367D01*
X15260Y-74520D01*
X15260Y-74710D01*
X15221Y-74862D01*
X15183Y-74939D01*
X15145Y-74977D01*
X15069Y-75015D01*
X14993Y-75015D01*
X14917Y-74977D01*
X14879Y-74939D01*
X14840Y-74862D01*
X14802Y-74710D01*
X14802Y-74520D01*
X14840Y-74367D01*
X14879Y-74291D01*
X14917Y-74253D01*
X14993Y-74215D01*
X15602Y-74939D02*
X15641Y-74977D01*
X15602Y-75015D01*
X15564Y-74977D01*
X15602Y-74939D01*
X15602Y-75015D01*
X16136Y-74215D02*
X16212Y-74215D01*
X16288Y-74253D01*
X16326Y-74291D01*
X16364Y-74367D01*
X16403Y-74520D01*
X16403Y-74710D01*
X16364Y-74862D01*
X16326Y-74939D01*
X16288Y-74977D01*
X16212Y-75015D01*
X16136Y-75015D01*
X16060Y-74977D01*
X16022Y-74939D01*
X15983Y-74862D01*
X15945Y-74710D01*
X15945Y-74520D01*
X15983Y-74367D01*
X16022Y-74291D01*
X16060Y-74253D01*
X16136Y-74215D01*
X16707Y-74291D02*
X16745Y-74253D01*
X16822Y-74215D01*
X17012Y-74215D01*
X17088Y-74253D01*
X17126Y-74291D01*
X17165Y-74367D01*
X17165Y-74443D01*
X17126Y-74558D01*
X16669Y-75015D01*
X17165Y-75015D01*
X17888Y-74215D02*
X17507Y-74215D01*
X17469Y-74596D01*
X17507Y-74558D01*
X17584Y-74520D01*
X17774Y-74520D01*
X17850Y-74558D01*
X17888Y-74596D01*
X17927Y-74672D01*
X17927Y-74862D01*
X17888Y-74939D01*
X17850Y-74977D01*
X17774Y-75015D01*
X17584Y-75015D01*
X17507Y-74977D01*
X17469Y-74939D01*
X18231Y-74215D02*
X18231Y-74367D01*
X18536Y-74215D02*
X18536Y-74367D01*
X20061Y-74177D02*
X19375Y-75205D01*
X21090Y-74215D02*
X21166Y-74215D01*
X21242Y-74253D01*
X21280Y-74291D01*
X21318Y-74367D01*
X21357Y-74520D01*
X21357Y-74710D01*
X21318Y-74862D01*
X21280Y-74939D01*
X21242Y-74977D01*
X21166Y-75015D01*
X21090Y-75015D01*
X21014Y-74977D01*
X20976Y-74939D01*
X20937Y-74862D01*
X20899Y-74710D01*
X20899Y-74520D01*
X20937Y-74367D01*
X20976Y-74291D01*
X21014Y-74253D01*
X21090Y-74215D01*
X21699Y-74939D02*
X21738Y-74977D01*
X21699Y-75015D01*
X21661Y-74977D01*
X21699Y-74939D01*
X21699Y-75015D01*
X22423Y-74215D02*
X22271Y-74215D01*
X22195Y-74253D01*
X22157Y-74291D01*
X22080Y-74405D01*
X22042Y-74558D01*
X22042Y-74862D01*
X22080Y-74939D01*
X22119Y-74977D01*
X22195Y-75015D01*
X22347Y-75015D01*
X22423Y-74977D01*
X22461Y-74939D01*
X22500Y-74862D01*
X22500Y-74672D01*
X22461Y-74596D01*
X22423Y-74558D01*
X22347Y-74520D01*
X22195Y-74520D01*
X22119Y-74558D01*
X22080Y-74596D01*
X22042Y-74672D01*
X23185Y-74481D02*
X23185Y-75015D01*
X22995Y-74177D02*
X22804Y-74748D01*
X23300Y-74748D01*
X23604Y-75015D02*
X23604Y-74481D01*
X23604Y-74558D02*
X23643Y-74520D01*
X23719Y-74481D01*
X23833Y-74481D01*
X23909Y-74520D01*
X23947Y-74596D01*
X23947Y-75015D01*
X23947Y-74596D02*
X23985Y-74520D01*
X24062Y-74481D01*
X24176Y-74481D01*
X24252Y-74520D01*
X24290Y-74596D01*
X24290Y-75015D01*
X24671Y-75015D02*
X24671Y-74481D01*
X24671Y-74558D02*
X24710Y-74520D01*
X24786Y-74481D01*
X24900Y-74481D01*
X24976Y-74520D01*
X25014Y-74596D01*
X25014Y-75015D01*
X25014Y-74596D02*
X25052Y-74520D01*
X25129Y-74481D01*
X25243Y-74481D01*
X25319Y-74520D01*
X25357Y-74596D01*
X25357Y-75015D01*
X26577Y-75320D02*
X26539Y-75281D01*
X26463Y-75167D01*
X26425Y-75091D01*
X26387Y-74977D01*
X26348Y-74786D01*
X26348Y-74634D01*
X26387Y-74443D01*
X26425Y-74329D01*
X26463Y-74253D01*
X26539Y-74139D01*
X26577Y-74101D01*
X26843Y-74291D02*
X26881Y-74253D01*
X26958Y-74215D01*
X27148Y-74215D01*
X27224Y-74253D01*
X27262Y-74291D01*
X27301Y-74367D01*
X27301Y-74443D01*
X27262Y-74558D01*
X26805Y-75015D01*
X27301Y-75015D01*
X27796Y-74215D02*
X27872Y-74215D01*
X27948Y-74253D01*
X27986Y-74291D01*
X28024Y-74367D01*
X28063Y-74520D01*
X28063Y-74710D01*
X28024Y-74862D01*
X27986Y-74939D01*
X27948Y-74977D01*
X27872Y-75015D01*
X27796Y-75015D01*
X27720Y-74977D01*
X27682Y-74939D01*
X27643Y-74862D01*
X27605Y-74710D01*
X27605Y-74520D01*
X27643Y-74367D01*
X27682Y-74291D01*
X27720Y-74253D01*
X27796Y-74215D01*
X29015Y-75015D02*
X29015Y-74215D01*
X29358Y-75015D02*
X29358Y-74596D01*
X29320Y-74520D01*
X29244Y-74481D01*
X29130Y-74481D01*
X29054Y-74520D01*
X29015Y-74558D01*
X29854Y-75015D02*
X29778Y-74977D01*
X29739Y-74939D01*
X29701Y-74862D01*
X29701Y-74634D01*
X29739Y-74558D01*
X29778Y-74520D01*
X29854Y-74481D01*
X29968Y-74481D01*
X30044Y-74520D01*
X30082Y-74558D01*
X30120Y-74634D01*
X30120Y-74862D01*
X30082Y-74939D01*
X30044Y-74977D01*
X29968Y-75015D01*
X29854Y-75015D01*
X30578Y-75015D02*
X30502Y-74977D01*
X30463Y-74901D01*
X30463Y-74215D01*
X31187Y-74977D02*
X31111Y-75015D01*
X30959Y-75015D01*
X30882Y-74977D01*
X30844Y-74901D01*
X30844Y-74596D01*
X30882Y-74520D01*
X30959Y-74481D01*
X31111Y-74481D01*
X31187Y-74520D01*
X31225Y-74596D01*
X31225Y-74672D01*
X30844Y-74748D01*
X31530Y-74977D02*
X31607Y-75015D01*
X31759Y-75015D01*
X31835Y-74977D01*
X31873Y-74901D01*
X31873Y-74862D01*
X31835Y-74786D01*
X31759Y-74748D01*
X31645Y-74748D01*
X31568Y-74710D01*
X31530Y-74634D01*
X31530Y-74596D01*
X31568Y-74520D01*
X31645Y-74481D01*
X31759Y-74481D01*
X31835Y-74520D01*
X32140Y-75320D02*
X32178Y-75281D01*
X32255Y-75167D01*
X32293Y-75091D01*
X32331Y-74977D01*
X32369Y-74786D01*
X32369Y-74634D01*
X32331Y-74443D01*
X32293Y-74329D01*
X32255Y-74253D01*
X32178Y-74139D01*
X32140Y-74101D01*
X14290Y-75586D02*
X14290Y-75906D01*
X14450Y-75746D02*
X14130Y-75746D01*
X14993Y-75270D02*
X15069Y-75270D01*
X15145Y-75308D01*
X15183Y-75346D01*
X15221Y-75422D01*
X15260Y-75575D01*
X15260Y-75765D01*
X15221Y-75917D01*
X15183Y-75994D01*
X15145Y-76032D01*
X15069Y-76070D01*
X14993Y-76070D01*
X14917Y-76032D01*
X14879Y-75994D01*
X14840Y-75917D01*
X14802Y-75765D01*
X14802Y-75575D01*
X14840Y-75422D01*
X14879Y-75346D01*
X14917Y-75308D01*
X14993Y-75270D01*
X15602Y-75994D02*
X15641Y-76032D01*
X15602Y-76070D01*
X15564Y-76032D01*
X15602Y-75994D01*
X15602Y-76070D01*
X16136Y-75270D02*
X16212Y-75270D01*
X16288Y-75308D01*
X16326Y-75346D01*
X16364Y-75422D01*
X16403Y-75575D01*
X16403Y-75765D01*
X16364Y-75917D01*
X16326Y-75994D01*
X16288Y-76032D01*
X16212Y-76070D01*
X16136Y-76070D01*
X16060Y-76032D01*
X16022Y-75994D01*
X15983Y-75917D01*
X15945Y-75765D01*
X15945Y-75575D01*
X15983Y-75422D01*
X16022Y-75346D01*
X16060Y-75308D01*
X16136Y-75270D01*
X16669Y-75270D02*
X17165Y-75270D01*
X16898Y-75575D01*
X17012Y-75575D01*
X17088Y-75613D01*
X17126Y-75651D01*
X17165Y-75727D01*
X17165Y-75917D01*
X17126Y-75994D01*
X17088Y-76032D01*
X17012Y-76070D01*
X16784Y-76070D01*
X16707Y-76032D01*
X16669Y-75994D01*
X17469Y-75346D02*
X17507Y-75308D01*
X17584Y-75270D01*
X17774Y-75270D01*
X17850Y-75308D01*
X17888Y-75346D01*
X17927Y-75422D01*
X17927Y-75498D01*
X17888Y-75613D01*
X17431Y-76070D01*
X17927Y-76070D01*
X18231Y-75270D02*
X18231Y-75422D01*
X18536Y-75270D02*
X18536Y-75422D01*
X20061Y-75232D02*
X19375Y-76260D01*
X21090Y-75270D02*
X21166Y-75270D01*
X21242Y-75308D01*
X21280Y-75346D01*
X21318Y-75422D01*
X21357Y-75575D01*
X21357Y-75765D01*
X21318Y-75917D01*
X21280Y-75994D01*
X21242Y-76032D01*
X21166Y-76070D01*
X21090Y-76070D01*
X21014Y-76032D01*
X20976Y-75994D01*
X20937Y-75917D01*
X20899Y-75765D01*
X20899Y-75575D01*
X20937Y-75422D01*
X20976Y-75346D01*
X21014Y-75308D01*
X21090Y-75270D01*
X21699Y-75994D02*
X21738Y-76032D01*
X21699Y-76070D01*
X21661Y-76032D01*
X21699Y-75994D01*
X21699Y-76070D01*
X22195Y-75613D02*
X22119Y-75575D01*
X22080Y-75536D01*
X22042Y-75460D01*
X22042Y-75422D01*
X22080Y-75346D01*
X22119Y-75308D01*
X22195Y-75270D01*
X22347Y-75270D01*
X22423Y-75308D01*
X22461Y-75346D01*
X22500Y-75422D01*
X22500Y-75460D01*
X22461Y-75536D01*
X22423Y-75575D01*
X22347Y-75613D01*
X22195Y-75613D01*
X22119Y-75651D01*
X22080Y-75689D01*
X22042Y-75765D01*
X22042Y-75917D01*
X22080Y-75994D01*
X22119Y-76032D01*
X22195Y-76070D01*
X22347Y-76070D01*
X22423Y-76032D01*
X22461Y-75994D01*
X22500Y-75917D01*
X22500Y-75765D01*
X22461Y-75689D01*
X22423Y-75651D01*
X22347Y-75613D01*
X23262Y-76070D02*
X22804Y-76070D01*
X23033Y-76070D02*
X23033Y-75270D01*
X22957Y-75384D01*
X22881Y-75460D01*
X22804Y-75498D01*
X23604Y-76070D02*
X23604Y-75536D01*
X23604Y-75613D02*
X23643Y-75575D01*
X23719Y-75536D01*
X23833Y-75536D01*
X23909Y-75575D01*
X23947Y-75651D01*
X23947Y-76070D01*
X23947Y-75651D02*
X23985Y-75575D01*
X24062Y-75536D01*
X24176Y-75536D01*
X24252Y-75575D01*
X24290Y-75651D01*
X24290Y-76070D01*
X24671Y-76070D02*
X24671Y-75536D01*
X24671Y-75613D02*
X24710Y-75575D01*
X24786Y-75536D01*
X24900Y-75536D01*
X24976Y-75575D01*
X25014Y-75651D01*
X25014Y-76070D01*
X25014Y-75651D02*
X25052Y-75575D01*
X25129Y-75536D01*
X25243Y-75536D01*
X25319Y-75575D01*
X25357Y-75651D01*
X25357Y-76070D01*
X26577Y-76375D02*
X26539Y-76336D01*
X26463Y-76222D01*
X26425Y-76146D01*
X26387Y-76032D01*
X26348Y-75841D01*
X26348Y-75689D01*
X26387Y-75498D01*
X26425Y-75384D01*
X26463Y-75308D01*
X26539Y-75194D01*
X26577Y-75156D01*
X27301Y-76070D02*
X26843Y-76070D01*
X27072Y-76070D02*
X27072Y-75270D01*
X26996Y-75384D01*
X26920Y-75460D01*
X26843Y-75498D01*
X27758Y-75613D02*
X27682Y-75575D01*
X27643Y-75536D01*
X27605Y-75460D01*
X27605Y-75422D01*
X27643Y-75346D01*
X27682Y-75308D01*
X27758Y-75270D01*
X27910Y-75270D01*
X27986Y-75308D01*
X28024Y-75346D01*
X28063Y-75422D01*
X28063Y-75460D01*
X28024Y-75536D01*
X27986Y-75575D01*
X27910Y-75613D01*
X27758Y-75613D01*
X27682Y-75651D01*
X27643Y-75689D01*
X27605Y-75765D01*
X27605Y-75917D01*
X27643Y-75994D01*
X27682Y-76032D01*
X27758Y-76070D01*
X27910Y-76070D01*
X27986Y-76032D01*
X28024Y-75994D01*
X28063Y-75917D01*
X28063Y-75765D01*
X28024Y-75689D01*
X27986Y-75651D01*
X27910Y-75613D01*
X28520Y-75613D02*
X28444Y-75575D01*
X28405Y-75536D01*
X28367Y-75460D01*
X28367Y-75422D01*
X28405Y-75346D01*
X28444Y-75308D01*
X28520Y-75270D01*
X28672Y-75270D01*
X28748Y-75308D01*
X28786Y-75346D01*
X28825Y-75422D01*
X28825Y-75460D01*
X28786Y-75536D01*
X28748Y-75575D01*
X28672Y-75613D01*
X28520Y-75613D01*
X28444Y-75651D01*
X28405Y-75689D01*
X28367Y-75765D01*
X28367Y-75917D01*
X28405Y-75994D01*
X28444Y-76032D01*
X28520Y-76070D01*
X28672Y-76070D01*
X28748Y-76032D01*
X28786Y-75994D01*
X28825Y-75917D01*
X28825Y-75765D01*
X28786Y-75689D01*
X28748Y-75651D01*
X28672Y-75613D01*
X29777Y-76070D02*
X29777Y-75270D01*
X30120Y-76070D02*
X30120Y-75651D01*
X30082Y-75575D01*
X30006Y-75536D01*
X29892Y-75536D01*
X29816Y-75575D01*
X29777Y-75613D01*
X30616Y-76070D02*
X30540Y-76032D01*
X30501Y-75994D01*
X30463Y-75917D01*
X30463Y-75689D01*
X30501Y-75613D01*
X30540Y-75575D01*
X30616Y-75536D01*
X30730Y-75536D01*
X30806Y-75575D01*
X30844Y-75613D01*
X30882Y-75689D01*
X30882Y-75917D01*
X30844Y-75994D01*
X30806Y-76032D01*
X30730Y-76070D01*
X30616Y-76070D01*
X31340Y-76070D02*
X31264Y-76032D01*
X31225Y-75956D01*
X31225Y-75270D01*
X31949Y-76032D02*
X31873Y-76070D01*
X31721Y-76070D01*
X31644Y-76032D01*
X31606Y-75956D01*
X31606Y-75651D01*
X31644Y-75575D01*
X31721Y-75536D01*
X31873Y-75536D01*
X31949Y-75575D01*
X31987Y-75651D01*
X31987Y-75727D01*
X31606Y-75803D01*
X32292Y-76032D02*
X32369Y-76070D01*
X32521Y-76070D01*
X32597Y-76032D01*
X32635Y-75956D01*
X32635Y-75917D01*
X32597Y-75841D01*
X32521Y-75803D01*
X32407Y-75803D01*
X32330Y-75765D01*
X32292Y-75689D01*
X32292Y-75651D01*
X32330Y-75575D01*
X32407Y-75536D01*
X32521Y-75536D01*
X32597Y-75575D01*
X32902Y-76375D02*
X32940Y-76336D01*
X33017Y-76222D01*
X33055Y-76146D01*
X33093Y-76032D01*
X33131Y-75841D01*
X33131Y-75689D01*
X33093Y-75498D01*
X33055Y-75384D01*
X33017Y-75308D01*
X32940Y-75194D01*
X32902Y-75156D01*
G54D10*
X14450Y-76801D02*
X14446Y-76835D01*
X14436Y-76868D01*
X14420Y-76898D01*
X14398Y-76925D01*
X14371Y-76947D01*
X14341Y-76964D01*
X14308Y-76974D01*
X14274Y-76977D01*
X14240Y-76974D01*
X14207Y-76965D01*
X14177Y-76949D01*
X14150Y-76927D01*
X14127Y-76900D01*
X14111Y-76870D01*
X14100Y-76837D01*
X14097Y-76803D01*
X14099Y-76770D01*
X14109Y-76736D01*
X14125Y-76706D01*
X14146Y-76679D01*
X14172Y-76656D01*
X14203Y-76639D01*
X14235Y-76629D01*
X14270Y-76625D01*
X14303Y-76627D01*
X14337Y-76636D01*
X14367Y-76652D01*
X14395Y-76673D01*
X14417Y-76699D01*
X14434Y-76730D01*
X14445Y-76762D01*
X14449Y-76797D01*
X14450Y-76801D01*
X14096Y-76624D02*
X14450Y-76978D01*
X14450Y-76624D02*
X14096Y-76978D01*
G54D13*
X14993Y-76325D02*
X15069Y-76325D01*
X15145Y-76363D01*
X15183Y-76401D01*
X15221Y-76477D01*
X15260Y-76630D01*
X15260Y-76820D01*
X15221Y-76972D01*
X15183Y-77049D01*
X15145Y-77087D01*
X15069Y-77125D01*
X14993Y-77125D01*
X14917Y-77087D01*
X14879Y-77049D01*
X14840Y-76972D01*
X14802Y-76820D01*
X14802Y-76630D01*
X14840Y-76477D01*
X14879Y-76401D01*
X14917Y-76363D01*
X14993Y-76325D01*
X15602Y-77049D02*
X15641Y-77087D01*
X15602Y-77125D01*
X15564Y-77087D01*
X15602Y-77049D01*
X15602Y-77125D01*
X16136Y-76325D02*
X16212Y-76325D01*
X16288Y-76363D01*
X16326Y-76401D01*
X16364Y-76477D01*
X16403Y-76630D01*
X16403Y-76820D01*
X16364Y-76972D01*
X16326Y-77049D01*
X16288Y-77087D01*
X16212Y-77125D01*
X16136Y-77125D01*
X16060Y-77087D01*
X16022Y-77049D01*
X15983Y-76972D01*
X15945Y-76820D01*
X15945Y-76630D01*
X15983Y-76477D01*
X16022Y-76401D01*
X16060Y-76363D01*
X16136Y-76325D01*
X16669Y-76325D02*
X17165Y-76325D01*
X16898Y-76630D01*
X17012Y-76630D01*
X17088Y-76668D01*
X17126Y-76706D01*
X17165Y-76782D01*
X17165Y-76972D01*
X17126Y-77049D01*
X17088Y-77087D01*
X17012Y-77125D01*
X16784Y-77125D01*
X16707Y-77087D01*
X16669Y-77049D01*
X17888Y-76325D02*
X17507Y-76325D01*
X17469Y-76706D01*
X17507Y-76668D01*
X17584Y-76630D01*
X17774Y-76630D01*
X17850Y-76668D01*
X17888Y-76706D01*
X17927Y-76782D01*
X17927Y-76972D01*
X17888Y-77049D01*
X17850Y-77087D01*
X17774Y-77125D01*
X17584Y-77125D01*
X17507Y-77087D01*
X17469Y-77049D01*
X18231Y-76325D02*
X18231Y-76477D01*
X18536Y-76325D02*
X18536Y-76477D01*
X20061Y-76287D02*
X19375Y-77315D01*
X21090Y-76325D02*
X21166Y-76325D01*
X21242Y-76363D01*
X21280Y-76401D01*
X21318Y-76477D01*
X21357Y-76630D01*
X21357Y-76820D01*
X21318Y-76972D01*
X21280Y-77049D01*
X21242Y-77087D01*
X21166Y-77125D01*
X21090Y-77125D01*
X21014Y-77087D01*
X20976Y-77049D01*
X20937Y-76972D01*
X20899Y-76820D01*
X20899Y-76630D01*
X20937Y-76477D01*
X20976Y-76401D01*
X21014Y-76363D01*
X21090Y-76325D01*
X21699Y-77049D02*
X21738Y-77087D01*
X21699Y-77125D01*
X21661Y-77087D01*
X21699Y-77049D01*
X21699Y-77125D01*
X22119Y-77125D02*
X22271Y-77125D01*
X22347Y-77087D01*
X22385Y-77049D01*
X22461Y-76934D01*
X22500Y-76782D01*
X22500Y-76477D01*
X22461Y-76401D01*
X22423Y-76363D01*
X22347Y-76325D01*
X22195Y-76325D01*
X22119Y-76363D01*
X22080Y-76401D01*
X22042Y-76477D01*
X22042Y-76668D01*
X22080Y-76744D01*
X22119Y-76782D01*
X22195Y-76820D01*
X22347Y-76820D01*
X22423Y-76782D01*
X22461Y-76744D01*
X22500Y-76668D01*
X22995Y-76325D02*
X23071Y-76325D01*
X23147Y-76363D01*
X23185Y-76401D01*
X23223Y-76477D01*
X23262Y-76630D01*
X23262Y-76820D01*
X23223Y-76972D01*
X23185Y-77049D01*
X23147Y-77087D01*
X23071Y-77125D01*
X22995Y-77125D01*
X22919Y-77087D01*
X22881Y-77049D01*
X22842Y-76972D01*
X22804Y-76820D01*
X22804Y-76630D01*
X22842Y-76477D01*
X22881Y-76401D01*
X22919Y-76363D01*
X22995Y-76325D01*
X23604Y-77125D02*
X23604Y-76591D01*
X23604Y-76668D02*
X23643Y-76630D01*
X23719Y-76591D01*
X23833Y-76591D01*
X23909Y-76630D01*
X23947Y-76706D01*
X23947Y-77125D01*
X23947Y-76706D02*
X23985Y-76630D01*
X24062Y-76591D01*
X24176Y-76591D01*
X24252Y-76630D01*
X24290Y-76706D01*
X24290Y-77125D01*
X24671Y-77125D02*
X24671Y-76591D01*
X24671Y-76668D02*
X24710Y-76630D01*
X24786Y-76591D01*
X24900Y-76591D01*
X24976Y-76630D01*
X25014Y-76706D01*
X25014Y-77125D01*
X25014Y-76706D02*
X25052Y-76630D01*
X25129Y-76591D01*
X25243Y-76591D01*
X25319Y-76630D01*
X25357Y-76706D01*
X25357Y-77125D01*
X26577Y-77430D02*
X26539Y-77391D01*
X26463Y-77277D01*
X26425Y-77201D01*
X26387Y-77087D01*
X26348Y-76896D01*
X26348Y-76744D01*
X26387Y-76553D01*
X26425Y-76439D01*
X26463Y-76363D01*
X26539Y-76249D01*
X26577Y-76211D01*
X27224Y-76591D02*
X27224Y-77125D01*
X27034Y-76287D02*
X26843Y-76858D01*
X27339Y-76858D01*
X28253Y-77125D02*
X28253Y-76325D01*
X28596Y-77125D02*
X28596Y-76706D01*
X28558Y-76630D01*
X28482Y-76591D01*
X28368Y-76591D01*
X28292Y-76630D01*
X28253Y-76668D01*
X29092Y-77125D02*
X29016Y-77087D01*
X28977Y-77049D01*
X28939Y-76972D01*
X28939Y-76744D01*
X28977Y-76668D01*
X29016Y-76630D01*
X29092Y-76591D01*
X29206Y-76591D01*
X29282Y-76630D01*
X29320Y-76668D01*
X29358Y-76744D01*
X29358Y-76972D01*
X29320Y-77049D01*
X29282Y-77087D01*
X29206Y-77125D01*
X29092Y-77125D01*
X29816Y-77125D02*
X29740Y-77087D01*
X29701Y-77011D01*
X29701Y-76325D01*
X30425Y-77087D02*
X30349Y-77125D01*
X30197Y-77125D01*
X30120Y-77087D01*
X30082Y-77011D01*
X30082Y-76706D01*
X30120Y-76630D01*
X30197Y-76591D01*
X30349Y-76591D01*
X30425Y-76630D01*
X30463Y-76706D01*
X30463Y-76782D01*
X30082Y-76858D01*
X30768Y-77087D02*
X30845Y-77125D01*
X30997Y-77125D01*
X31073Y-77087D01*
X31111Y-77011D01*
X31111Y-76972D01*
X31073Y-76896D01*
X30997Y-76858D01*
X30883Y-76858D01*
X30806Y-76820D01*
X30768Y-76744D01*
X30768Y-76706D01*
X30806Y-76630D01*
X30883Y-76591D01*
X30997Y-76591D01*
X31073Y-76630D01*
X31378Y-77430D02*
X31416Y-77391D01*
X31493Y-77277D01*
X31531Y-77201D01*
X31569Y-77087D01*
X31607Y-76896D01*
X31607Y-76744D01*
X31569Y-76553D01*
X31531Y-76439D01*
X31493Y-76363D01*
X31416Y-76249D01*
X31378Y-76211D01*
G54D10*
X14449Y-77856D02*
X14445Y-77894D01*
X14434Y-77930D01*
X14416Y-77964D01*
X14392Y-77994D01*
X14362Y-78018D01*
X14328Y-78036D01*
X14292Y-78047D01*
X14254Y-78051D01*
X14217Y-78048D01*
X14180Y-78037D01*
X14146Y-78020D01*
X14116Y-77996D01*
X14092Y-77966D01*
X14073Y-77933D01*
X14062Y-77896D01*
X14058Y-77858D01*
X14061Y-77821D01*
X14071Y-77784D01*
X14089Y-77750D01*
X14113Y-77720D01*
X14142Y-77696D01*
X14175Y-77677D01*
X14211Y-77665D01*
X14249Y-77661D01*
X14287Y-77663D01*
X14323Y-77674D01*
X14358Y-77691D01*
X14388Y-77715D01*
X14413Y-77744D01*
X14432Y-77777D01*
X14444Y-77813D01*
X14448Y-77851D01*
X14449Y-77856D01*
X14057Y-77856D02*
X14449Y-77856D01*
G54D13*
X14993Y-77380D02*
X15069Y-77380D01*
X15145Y-77418D01*
X15183Y-77456D01*
X15221Y-77532D01*
X15260Y-77685D01*
X15260Y-77875D01*
X15221Y-78027D01*
X15183Y-78104D01*
X15145Y-78142D01*
X15069Y-78180D01*
X14993Y-78180D01*
X14917Y-78142D01*
X14879Y-78104D01*
X14840Y-78027D01*
X14802Y-77875D01*
X14802Y-77685D01*
X14840Y-77532D01*
X14879Y-77456D01*
X14917Y-77418D01*
X14993Y-77380D01*
X15602Y-78104D02*
X15641Y-78142D01*
X15602Y-78180D01*
X15564Y-78142D01*
X15602Y-78104D01*
X15602Y-78180D01*
X16136Y-77380D02*
X16212Y-77380D01*
X16288Y-77418D01*
X16326Y-77456D01*
X16364Y-77532D01*
X16403Y-77685D01*
X16403Y-77875D01*
X16364Y-78027D01*
X16326Y-78104D01*
X16288Y-78142D01*
X16212Y-78180D01*
X16136Y-78180D01*
X16060Y-78142D01*
X16022Y-78104D01*
X15983Y-78027D01*
X15945Y-77875D01*
X15945Y-77685D01*
X15983Y-77532D01*
X16022Y-77456D01*
X16060Y-77418D01*
X16136Y-77380D01*
X16669Y-77380D02*
X17165Y-77380D01*
X16898Y-77685D01*
X17012Y-77685D01*
X17088Y-77723D01*
X17126Y-77761D01*
X17165Y-77837D01*
X17165Y-78027D01*
X17126Y-78104D01*
X17088Y-78142D01*
X17012Y-78180D01*
X16784Y-78180D01*
X16707Y-78142D01*
X16669Y-78104D01*
X17546Y-78180D02*
X17698Y-78180D01*
X17774Y-78142D01*
X17812Y-78104D01*
X17888Y-77989D01*
X17927Y-77837D01*
X17927Y-77532D01*
X17888Y-77456D01*
X17850Y-77418D01*
X17774Y-77380D01*
X17622Y-77380D01*
X17546Y-77418D01*
X17507Y-77456D01*
X17469Y-77532D01*
X17469Y-77723D01*
X17507Y-77799D01*
X17546Y-77837D01*
X17622Y-77875D01*
X17774Y-77875D01*
X17850Y-77837D01*
X17888Y-77799D01*
X17927Y-77723D01*
X18231Y-77380D02*
X18231Y-77532D01*
X18536Y-77380D02*
X18536Y-77532D01*
X20061Y-77342D02*
X19375Y-78370D01*
X21357Y-78180D02*
X20899Y-78180D01*
X21128Y-78180D02*
X21128Y-77380D01*
X21052Y-77494D01*
X20976Y-77570D01*
X20899Y-77608D01*
X21699Y-78104D02*
X21738Y-78142D01*
X21699Y-78180D01*
X21661Y-78142D01*
X21699Y-78104D01*
X21699Y-78180D01*
X22233Y-77380D02*
X22309Y-77380D01*
X22385Y-77418D01*
X22423Y-77456D01*
X22461Y-77532D01*
X22500Y-77685D01*
X22500Y-77875D01*
X22461Y-78027D01*
X22423Y-78104D01*
X22385Y-78142D01*
X22309Y-78180D01*
X22233Y-78180D01*
X22157Y-78142D01*
X22119Y-78104D01*
X22080Y-78027D01*
X22042Y-77875D01*
X22042Y-77685D01*
X22080Y-77532D01*
X22119Y-77456D01*
X22157Y-77418D01*
X22233Y-77380D01*
X22995Y-77380D02*
X23071Y-77380D01*
X23147Y-77418D01*
X23185Y-77456D01*
X23223Y-77532D01*
X23262Y-77685D01*
X23262Y-77875D01*
X23223Y-78027D01*
X23185Y-78104D01*
X23147Y-78142D01*
X23071Y-78180D01*
X22995Y-78180D01*
X22919Y-78142D01*
X22881Y-78104D01*
X22842Y-78027D01*
X22804Y-77875D01*
X22804Y-77685D01*
X22842Y-77532D01*
X22881Y-77456D01*
X22919Y-77418D01*
X22995Y-77380D01*
X23604Y-78180D02*
X23604Y-77646D01*
X23604Y-77723D02*
X23643Y-77685D01*
X23719Y-77646D01*
X23833Y-77646D01*
X23909Y-77685D01*
X23947Y-77761D01*
X23947Y-78180D01*
X23947Y-77761D02*
X23985Y-77685D01*
X24062Y-77646D01*
X24176Y-77646D01*
X24252Y-77685D01*
X24290Y-77761D01*
X24290Y-78180D01*
X24671Y-78180D02*
X24671Y-77646D01*
X24671Y-77723D02*
X24710Y-77685D01*
X24786Y-77646D01*
X24900Y-77646D01*
X24976Y-77685D01*
X25014Y-77761D01*
X25014Y-78180D01*
X25014Y-77761D02*
X25052Y-77685D01*
X25129Y-77646D01*
X25243Y-77646D01*
X25319Y-77685D01*
X25357Y-77761D01*
X25357Y-78180D01*
X26577Y-78485D02*
X26539Y-78446D01*
X26463Y-78332D01*
X26425Y-78256D01*
X26387Y-78142D01*
X26348Y-77951D01*
X26348Y-77799D01*
X26387Y-77608D01*
X26425Y-77494D01*
X26463Y-77418D01*
X26539Y-77304D01*
X26577Y-77266D01*
X27301Y-78180D02*
X26843Y-78180D01*
X27072Y-78180D02*
X27072Y-77380D01*
X26996Y-77494D01*
X26920Y-77570D01*
X26843Y-77608D01*
X27986Y-77380D02*
X27834Y-77380D01*
X27758Y-77418D01*
X27720Y-77456D01*
X27643Y-77570D01*
X27605Y-77723D01*
X27605Y-78027D01*
X27643Y-78104D01*
X27682Y-78142D01*
X27758Y-78180D01*
X27910Y-78180D01*
X27986Y-78142D01*
X28024Y-78104D01*
X28063Y-78027D01*
X28063Y-77837D01*
X28024Y-77761D01*
X27986Y-77723D01*
X27910Y-77685D01*
X27758Y-77685D01*
X27682Y-77723D01*
X27643Y-77761D01*
X27605Y-77837D01*
X29015Y-78180D02*
X29015Y-77380D01*
X29358Y-78180D02*
X29358Y-77761D01*
X29320Y-77685D01*
X29244Y-77646D01*
X29130Y-77646D01*
X29054Y-77685D01*
X29015Y-77723D01*
X29854Y-78180D02*
X29778Y-78142D01*
X29739Y-78104D01*
X29701Y-78027D01*
X29701Y-77799D01*
X29739Y-77723D01*
X29778Y-77685D01*
X29854Y-77646D01*
X29968Y-77646D01*
X30044Y-77685D01*
X30082Y-77723D01*
X30120Y-77799D01*
X30120Y-78027D01*
X30082Y-78104D01*
X30044Y-78142D01*
X29968Y-78180D01*
X29854Y-78180D01*
X30578Y-78180D02*
X30502Y-78142D01*
X30463Y-78066D01*
X30463Y-77380D01*
X31187Y-78142D02*
X31111Y-78180D01*
X30959Y-78180D01*
X30882Y-78142D01*
X30844Y-78066D01*
X30844Y-77761D01*
X30882Y-77685D01*
X30959Y-77646D01*
X31111Y-77646D01*
X31187Y-77685D01*
X31225Y-77761D01*
X31225Y-77837D01*
X30844Y-77913D01*
X31530Y-78142D02*
X31607Y-78180D01*
X31759Y-78180D01*
X31835Y-78142D01*
X31873Y-78066D01*
X31873Y-78027D01*
X31835Y-77951D01*
X31759Y-77913D01*
X31645Y-77913D01*
X31568Y-77875D01*
X31530Y-77799D01*
X31530Y-77761D01*
X31568Y-77685D01*
X31645Y-77646D01*
X31759Y-77646D01*
X31835Y-77685D01*
X32140Y-78485D02*
X32178Y-78446D01*
X32255Y-78332D01*
X32293Y-78256D01*
X32331Y-78142D01*
X32369Y-77951D01*
X32369Y-77799D01*
X32331Y-77608D01*
X32293Y-77494D01*
X32255Y-77418D01*
X32178Y-77304D01*
X32140Y-77266D01*
G54D10*
X14450Y-78911D02*
X14446Y-78949D01*
X14434Y-78987D01*
X14416Y-79021D01*
X14391Y-79051D01*
X14361Y-79076D01*
X14327Y-79095D01*
X14290Y-79106D01*
X14251Y-79110D01*
X14213Y-79107D01*
X14176Y-79096D01*
X14141Y-79078D01*
X14111Y-79053D01*
X14085Y-79023D01*
X14067Y-78989D01*
X14055Y-78952D01*
X14051Y-78913D01*
X14054Y-78875D01*
X14065Y-78838D01*
X14082Y-78803D01*
X14107Y-78773D01*
X14136Y-78747D01*
X14170Y-78728D01*
X14208Y-78716D01*
X14246Y-78712D01*
X14284Y-78715D01*
X14322Y-78725D01*
X14357Y-78743D01*
X14387Y-78767D01*
X14413Y-78796D01*
X14432Y-78830D01*
X14445Y-78867D01*
X14449Y-78906D01*
X14450Y-78911D01*
X14250Y-78711D02*
X14250Y-79111D01*
G54D13*
X14993Y-78435D02*
X15069Y-78435D01*
X15145Y-78473D01*
X15183Y-78511D01*
X15221Y-78587D01*
X15260Y-78740D01*
X15260Y-78930D01*
X15221Y-79082D01*
X15183Y-79159D01*
X15145Y-79197D01*
X15069Y-79235D01*
X14993Y-79235D01*
X14917Y-79197D01*
X14879Y-79159D01*
X14840Y-79082D01*
X14802Y-78930D01*
X14802Y-78740D01*
X14840Y-78587D01*
X14879Y-78511D01*
X14917Y-78473D01*
X14993Y-78435D01*
X15602Y-79159D02*
X15641Y-79197D01*
X15602Y-79235D01*
X15564Y-79197D01*
X15602Y-79159D01*
X15602Y-79235D01*
X16136Y-78435D02*
X16212Y-78435D01*
X16288Y-78473D01*
X16326Y-78511D01*
X16364Y-78587D01*
X16403Y-78740D01*
X16403Y-78930D01*
X16364Y-79082D01*
X16326Y-79159D01*
X16288Y-79197D01*
X16212Y-79235D01*
X16136Y-79235D01*
X16060Y-79197D01*
X16022Y-79159D01*
X15983Y-79082D01*
X15945Y-78930D01*
X15945Y-78740D01*
X15983Y-78587D01*
X16022Y-78511D01*
X16060Y-78473D01*
X16136Y-78435D01*
X17088Y-78701D02*
X17088Y-79235D01*
X16898Y-78397D02*
X16707Y-78968D01*
X17203Y-78968D01*
X17660Y-78435D02*
X17736Y-78435D01*
X17812Y-78473D01*
X17850Y-78511D01*
X17888Y-78587D01*
X17927Y-78740D01*
X17927Y-78930D01*
X17888Y-79082D01*
X17850Y-79159D01*
X17812Y-79197D01*
X17736Y-79235D01*
X17660Y-79235D01*
X17584Y-79197D01*
X17546Y-79159D01*
X17507Y-79082D01*
X17469Y-78930D01*
X17469Y-78740D01*
X17507Y-78587D01*
X17546Y-78511D01*
X17584Y-78473D01*
X17660Y-78435D01*
X18231Y-78435D02*
X18231Y-78587D01*
X18536Y-78435D02*
X18536Y-78587D01*
X20061Y-78397D02*
X19375Y-79425D01*
X21357Y-79235D02*
X20899Y-79235D01*
X21128Y-79235D02*
X21128Y-78435D01*
X21052Y-78549D01*
X20976Y-78625D01*
X20899Y-78663D01*
X21699Y-79159D02*
X21738Y-79197D01*
X21699Y-79235D01*
X21661Y-79197D01*
X21699Y-79159D01*
X21699Y-79235D01*
X22233Y-78435D02*
X22309Y-78435D01*
X22385Y-78473D01*
X22423Y-78511D01*
X22461Y-78587D01*
X22500Y-78740D01*
X22500Y-78930D01*
X22461Y-79082D01*
X22423Y-79159D01*
X22385Y-79197D01*
X22309Y-79235D01*
X22233Y-79235D01*
X22157Y-79197D01*
X22119Y-79159D01*
X22080Y-79082D01*
X22042Y-78930D01*
X22042Y-78740D01*
X22080Y-78587D01*
X22119Y-78511D01*
X22157Y-78473D01*
X22233Y-78435D01*
X22804Y-78511D02*
X22842Y-78473D01*
X22919Y-78435D01*
X23109Y-78435D01*
X23185Y-78473D01*
X23223Y-78511D01*
X23262Y-78587D01*
X23262Y-78663D01*
X23223Y-78778D01*
X22766Y-79235D01*
X23262Y-79235D01*
X23604Y-79235D02*
X23604Y-78701D01*
X23604Y-78778D02*
X23643Y-78740D01*
X23719Y-78701D01*
X23833Y-78701D01*
X23909Y-78740D01*
X23947Y-78816D01*
X23947Y-79235D01*
X23947Y-78816D02*
X23985Y-78740D01*
X24062Y-78701D01*
X24176Y-78701D01*
X24252Y-78740D01*
X24290Y-78816D01*
X24290Y-79235D01*
X24671Y-79235D02*
X24671Y-78701D01*
X24671Y-78778D02*
X24710Y-78740D01*
X24786Y-78701D01*
X24900Y-78701D01*
X24976Y-78740D01*
X25014Y-78816D01*
X25014Y-79235D01*
X25014Y-78816D02*
X25052Y-78740D01*
X25129Y-78701D01*
X25243Y-78701D01*
X25319Y-78740D01*
X25357Y-78816D01*
X25357Y-79235D01*
X26577Y-79540D02*
X26539Y-79501D01*
X26463Y-79387D01*
X26425Y-79311D01*
X26387Y-79197D01*
X26348Y-79006D01*
X26348Y-78854D01*
X26387Y-78663D01*
X26425Y-78549D01*
X26463Y-78473D01*
X26539Y-78359D01*
X26577Y-78321D01*
X26920Y-79235D02*
X27072Y-79235D01*
X27148Y-79197D01*
X27186Y-79159D01*
X27262Y-79044D01*
X27301Y-78892D01*
X27301Y-78587D01*
X27262Y-78511D01*
X27224Y-78473D01*
X27148Y-78435D01*
X26996Y-78435D01*
X26920Y-78473D01*
X26881Y-78511D01*
X26843Y-78587D01*
X26843Y-78778D01*
X26881Y-78854D01*
X26920Y-78892D01*
X26996Y-78930D01*
X27148Y-78930D01*
X27224Y-78892D01*
X27262Y-78854D01*
X27301Y-78778D01*
X28024Y-78435D02*
X27643Y-78435D01*
X27605Y-78816D01*
X27643Y-78778D01*
X27720Y-78740D01*
X27910Y-78740D01*
X27986Y-78778D01*
X28024Y-78816D01*
X28063Y-78892D01*
X28063Y-79082D01*
X28024Y-79159D01*
X27986Y-79197D01*
X27910Y-79235D01*
X27720Y-79235D01*
X27643Y-79197D01*
X27605Y-79159D01*
X29015Y-79235D02*
X29015Y-78435D01*
X29358Y-79235D02*
X29358Y-78816D01*
X29320Y-78740D01*
X29244Y-78701D01*
X29130Y-78701D01*
X29054Y-78740D01*
X29015Y-78778D01*
X29854Y-79235D02*
X29778Y-79197D01*
X29739Y-79159D01*
X29701Y-79082D01*
X29701Y-78854D01*
X29739Y-78778D01*
X29778Y-78740D01*
X29854Y-78701D01*
X29968Y-78701D01*
X30044Y-78740D01*
X30082Y-78778D01*
X30120Y-78854D01*
X30120Y-79082D01*
X30082Y-79159D01*
X30044Y-79197D01*
X29968Y-79235D01*
X29854Y-79235D01*
X30578Y-79235D02*
X30502Y-79197D01*
X30463Y-79121D01*
X30463Y-78435D01*
X31187Y-79197D02*
X31111Y-79235D01*
X30959Y-79235D01*
X30882Y-79197D01*
X30844Y-79121D01*
X30844Y-78816D01*
X30882Y-78740D01*
X30959Y-78701D01*
X31111Y-78701D01*
X31187Y-78740D01*
X31225Y-78816D01*
X31225Y-78892D01*
X30844Y-78968D01*
X31530Y-79197D02*
X31607Y-79235D01*
X31759Y-79235D01*
X31835Y-79197D01*
X31873Y-79121D01*
X31873Y-79082D01*
X31835Y-79006D01*
X31759Y-78968D01*
X31645Y-78968D01*
X31568Y-78930D01*
X31530Y-78854D01*
X31530Y-78816D01*
X31568Y-78740D01*
X31645Y-78701D01*
X31759Y-78701D01*
X31835Y-78740D01*
X32140Y-79540D02*
X32178Y-79501D01*
X32255Y-79387D01*
X32293Y-79311D01*
X32331Y-79197D01*
X32369Y-79006D01*
X32369Y-78854D01*
X32331Y-78663D01*
X32293Y-78549D01*
X32255Y-78473D01*
X32178Y-78359D01*
X32140Y-78321D01*
G54D10*
X14384Y-80125D02*
X14384Y-79807D01*
X14066Y-79807D01*
X14066Y-80125D01*
X14384Y-80125D01*
G54D13*
X14993Y-79490D02*
X15069Y-79490D01*
X15145Y-79528D01*
X15183Y-79566D01*
X15221Y-79642D01*
X15260Y-79795D01*
X15260Y-79985D01*
X15221Y-80137D01*
X15183Y-80214D01*
X15145Y-80252D01*
X15069Y-80290D01*
X14993Y-80290D01*
X14917Y-80252D01*
X14879Y-80214D01*
X14840Y-80137D01*
X14802Y-79985D01*
X14802Y-79795D01*
X14840Y-79642D01*
X14879Y-79566D01*
X14917Y-79528D01*
X14993Y-79490D01*
X15602Y-80214D02*
X15641Y-80252D01*
X15602Y-80290D01*
X15564Y-80252D01*
X15602Y-80214D01*
X15602Y-80290D01*
X16136Y-79490D02*
X16212Y-79490D01*
X16288Y-79528D01*
X16326Y-79566D01*
X16364Y-79642D01*
X16403Y-79795D01*
X16403Y-79985D01*
X16364Y-80137D01*
X16326Y-80214D01*
X16288Y-80252D01*
X16212Y-80290D01*
X16136Y-80290D01*
X16060Y-80252D01*
X16022Y-80214D01*
X15983Y-80137D01*
X15945Y-79985D01*
X15945Y-79795D01*
X15983Y-79642D01*
X16022Y-79566D01*
X16060Y-79528D01*
X16136Y-79490D01*
X17088Y-79756D02*
X17088Y-80290D01*
X16898Y-79452D02*
X16707Y-80023D01*
X17203Y-80023D01*
X17888Y-79490D02*
X17507Y-79490D01*
X17469Y-79871D01*
X17507Y-79833D01*
X17584Y-79795D01*
X17774Y-79795D01*
X17850Y-79833D01*
X17888Y-79871D01*
X17927Y-79947D01*
X17927Y-80137D01*
X17888Y-80214D01*
X17850Y-80252D01*
X17774Y-80290D01*
X17584Y-80290D01*
X17507Y-80252D01*
X17469Y-80214D01*
X18231Y-79490D02*
X18231Y-79642D01*
X18536Y-79490D02*
X18536Y-79642D01*
X20061Y-79452D02*
X19375Y-80480D01*
X21357Y-80290D02*
X20899Y-80290D01*
X21128Y-80290D02*
X21128Y-79490D01*
X21052Y-79604D01*
X20976Y-79680D01*
X20899Y-79718D01*
X21699Y-80214D02*
X21738Y-80252D01*
X21699Y-80290D01*
X21661Y-80252D01*
X21699Y-80214D01*
X21699Y-80290D01*
X22500Y-80290D02*
X22042Y-80290D01*
X22271Y-80290D02*
X22271Y-79490D01*
X22195Y-79604D01*
X22119Y-79680D01*
X22042Y-79718D01*
X23185Y-79756D02*
X23185Y-80290D01*
X22995Y-79452D02*
X22804Y-80023D01*
X23300Y-80023D01*
X23604Y-80290D02*
X23604Y-79756D01*
X23604Y-79833D02*
X23643Y-79795D01*
X23719Y-79756D01*
X23833Y-79756D01*
X23909Y-79795D01*
X23947Y-79871D01*
X23947Y-80290D01*
X23947Y-79871D02*
X23985Y-79795D01*
X24062Y-79756D01*
X24176Y-79756D01*
X24252Y-79795D01*
X24290Y-79871D01*
X24290Y-80290D01*
X24671Y-80290D02*
X24671Y-79756D01*
X24671Y-79833D02*
X24710Y-79795D01*
X24786Y-79756D01*
X24900Y-79756D01*
X24976Y-79795D01*
X25014Y-79871D01*
X25014Y-80290D01*
X25014Y-79871D02*
X25052Y-79795D01*
X25129Y-79756D01*
X25243Y-79756D01*
X25319Y-79795D01*
X25357Y-79871D01*
X25357Y-80290D01*
X26577Y-80595D02*
X26539Y-80556D01*
X26463Y-80442D01*
X26425Y-80366D01*
X26387Y-80252D01*
X26348Y-80061D01*
X26348Y-79909D01*
X26387Y-79718D01*
X26425Y-79604D01*
X26463Y-79528D01*
X26539Y-79414D01*
X26577Y-79376D01*
X26920Y-80290D02*
X27072Y-80290D01*
X27148Y-80252D01*
X27186Y-80214D01*
X27262Y-80099D01*
X27301Y-79947D01*
X27301Y-79642D01*
X27262Y-79566D01*
X27224Y-79528D01*
X27148Y-79490D01*
X26996Y-79490D01*
X26920Y-79528D01*
X26881Y-79566D01*
X26843Y-79642D01*
X26843Y-79833D01*
X26881Y-79909D01*
X26920Y-79947D01*
X26996Y-79985D01*
X27148Y-79985D01*
X27224Y-79947D01*
X27262Y-79909D01*
X27301Y-79833D01*
X28253Y-80290D02*
X28253Y-79490D01*
X28596Y-80290D02*
X28596Y-79871D01*
X28558Y-79795D01*
X28482Y-79756D01*
X28368Y-79756D01*
X28292Y-79795D01*
X28253Y-79833D01*
X29092Y-80290D02*
X29016Y-80252D01*
X28977Y-80214D01*
X28939Y-80137D01*
X28939Y-79909D01*
X28977Y-79833D01*
X29016Y-79795D01*
X29092Y-79756D01*
X29206Y-79756D01*
X29282Y-79795D01*
X29320Y-79833D01*
X29358Y-79909D01*
X29358Y-80137D01*
X29320Y-80214D01*
X29282Y-80252D01*
X29206Y-80290D01*
X29092Y-80290D01*
X29816Y-80290D02*
X29740Y-80252D01*
X29701Y-80176D01*
X29701Y-79490D01*
X30425Y-80252D02*
X30349Y-80290D01*
X30197Y-80290D01*
X30120Y-80252D01*
X30082Y-80176D01*
X30082Y-79871D01*
X30120Y-79795D01*
X30197Y-79756D01*
X30349Y-79756D01*
X30425Y-79795D01*
X30463Y-79871D01*
X30463Y-79947D01*
X30082Y-80023D01*
X30768Y-80252D02*
X30845Y-80290D01*
X30997Y-80290D01*
X31073Y-80252D01*
X31111Y-80176D01*
X31111Y-80137D01*
X31073Y-80061D01*
X30997Y-80023D01*
X30883Y-80023D01*
X30806Y-79985D01*
X30768Y-79909D01*
X30768Y-79871D01*
X30806Y-79795D01*
X30883Y-79756D01*
X30997Y-79756D01*
X31073Y-79795D01*
X31378Y-80595D02*
X31416Y-80556D01*
X31493Y-80442D01*
X31531Y-80366D01*
X31569Y-80252D01*
X31607Y-80061D01*
X31607Y-79909D01*
X31569Y-79718D01*
X31531Y-79604D01*
X31493Y-79528D01*
X31416Y-79414D01*
X31378Y-79376D01*
G54D10*
X14154Y-81316D02*
X14449Y-81021D01*
X14154Y-80726D01*
X13859Y-81021D01*
X14154Y-81316D01*
G54D13*
X14993Y-80545D02*
X15069Y-80545D01*
X15145Y-80583D01*
X15183Y-80621D01*
X15221Y-80697D01*
X15260Y-80850D01*
X15260Y-81040D01*
X15221Y-81192D01*
X15183Y-81269D01*
X15145Y-81307D01*
X15069Y-81345D01*
X14993Y-81345D01*
X14917Y-81307D01*
X14879Y-81269D01*
X14840Y-81192D01*
X14802Y-81040D01*
X14802Y-80850D01*
X14840Y-80697D01*
X14879Y-80621D01*
X14917Y-80583D01*
X14993Y-80545D01*
X15602Y-81269D02*
X15641Y-81307D01*
X15602Y-81345D01*
X15564Y-81307D01*
X15602Y-81269D01*
X15602Y-81345D01*
X16136Y-80545D02*
X16212Y-80545D01*
X16288Y-80583D01*
X16326Y-80621D01*
X16364Y-80697D01*
X16403Y-80850D01*
X16403Y-81040D01*
X16364Y-81192D01*
X16326Y-81269D01*
X16288Y-81307D01*
X16212Y-81345D01*
X16136Y-81345D01*
X16060Y-81307D01*
X16022Y-81269D01*
X15983Y-81192D01*
X15945Y-81040D01*
X15945Y-80850D01*
X15983Y-80697D01*
X16022Y-80621D01*
X16060Y-80583D01*
X16136Y-80545D01*
X17126Y-80545D02*
X16745Y-80545D01*
X16707Y-80926D01*
X16745Y-80888D01*
X16822Y-80850D01*
X17012Y-80850D01*
X17088Y-80888D01*
X17126Y-80926D01*
X17165Y-81002D01*
X17165Y-81192D01*
X17126Y-81269D01*
X17088Y-81307D01*
X17012Y-81345D01*
X16822Y-81345D01*
X16745Y-81307D01*
X16707Y-81269D01*
X17546Y-81345D02*
X17698Y-81345D01*
X17774Y-81307D01*
X17812Y-81269D01*
X17888Y-81154D01*
X17927Y-81002D01*
X17927Y-80697D01*
X17888Y-80621D01*
X17850Y-80583D01*
X17774Y-80545D01*
X17622Y-80545D01*
X17546Y-80583D01*
X17507Y-80621D01*
X17469Y-80697D01*
X17469Y-80888D01*
X17507Y-80964D01*
X17546Y-81002D01*
X17622Y-81040D01*
X17774Y-81040D01*
X17850Y-81002D01*
X17888Y-80964D01*
X17927Y-80888D01*
X18231Y-80545D02*
X18231Y-80697D01*
X18536Y-80545D02*
X18536Y-80697D01*
X20061Y-80507D02*
X19375Y-81535D01*
X21357Y-81345D02*
X20899Y-81345D01*
X21128Y-81345D02*
X21128Y-80545D01*
X21052Y-80659D01*
X20976Y-80735D01*
X20899Y-80773D01*
X21699Y-81269D02*
X21738Y-81307D01*
X21699Y-81345D01*
X21661Y-81307D01*
X21699Y-81269D01*
X21699Y-81345D01*
X22461Y-80545D02*
X22080Y-80545D01*
X22042Y-80926D01*
X22080Y-80888D01*
X22157Y-80850D01*
X22347Y-80850D01*
X22423Y-80888D01*
X22461Y-80926D01*
X22500Y-81002D01*
X22500Y-81192D01*
X22461Y-81269D01*
X22423Y-81307D01*
X22347Y-81345D01*
X22157Y-81345D01*
X22080Y-81307D01*
X22042Y-81269D01*
X22995Y-80545D02*
X23071Y-80545D01*
X23147Y-80583D01*
X23185Y-80621D01*
X23223Y-80697D01*
X23262Y-80850D01*
X23262Y-81040D01*
X23223Y-81192D01*
X23185Y-81269D01*
X23147Y-81307D01*
X23071Y-81345D01*
X22995Y-81345D01*
X22919Y-81307D01*
X22881Y-81269D01*
X22842Y-81192D01*
X22804Y-81040D01*
X22804Y-80850D01*
X22842Y-80697D01*
X22881Y-80621D01*
X22919Y-80583D01*
X22995Y-80545D01*
X23604Y-81345D02*
X23604Y-80811D01*
X23604Y-80888D02*
X23643Y-80850D01*
X23719Y-80811D01*
X23833Y-80811D01*
X23909Y-80850D01*
X23947Y-80926D01*
X23947Y-81345D01*
X23947Y-80926D02*
X23985Y-80850D01*
X24062Y-80811D01*
X24176Y-80811D01*
X24252Y-80850D01*
X24290Y-80926D01*
X24290Y-81345D01*
X24671Y-81345D02*
X24671Y-80811D01*
X24671Y-80888D02*
X24710Y-80850D01*
X24786Y-80811D01*
X24900Y-80811D01*
X24976Y-80850D01*
X25014Y-80926D01*
X25014Y-81345D01*
X25014Y-80926D02*
X25052Y-80850D01*
X25129Y-80811D01*
X25243Y-80811D01*
X25319Y-80850D01*
X25357Y-80926D01*
X25357Y-81345D01*
X26577Y-81650D02*
X26539Y-81611D01*
X26463Y-81497D01*
X26425Y-81421D01*
X26387Y-81307D01*
X26348Y-81116D01*
X26348Y-80964D01*
X26387Y-80773D01*
X26425Y-80659D01*
X26463Y-80583D01*
X26539Y-80469D01*
X26577Y-80431D01*
X26843Y-80621D02*
X26881Y-80583D01*
X26958Y-80545D01*
X27148Y-80545D01*
X27224Y-80583D01*
X27262Y-80621D01*
X27301Y-80697D01*
X27301Y-80773D01*
X27262Y-80888D01*
X26805Y-81345D01*
X27301Y-81345D01*
X28253Y-81345D02*
X28253Y-80545D01*
X28596Y-81345D02*
X28596Y-80926D01*
X28558Y-80850D01*
X28482Y-80811D01*
X28368Y-80811D01*
X28292Y-80850D01*
X28253Y-80888D01*
X29092Y-81345D02*
X29016Y-81307D01*
X28977Y-81269D01*
X28939Y-81192D01*
X28939Y-80964D01*
X28977Y-80888D01*
X29016Y-80850D01*
X29092Y-80811D01*
X29206Y-80811D01*
X29282Y-80850D01*
X29320Y-80888D01*
X29358Y-80964D01*
X29358Y-81192D01*
X29320Y-81269D01*
X29282Y-81307D01*
X29206Y-81345D01*
X29092Y-81345D01*
X29816Y-81345D02*
X29740Y-81307D01*
X29701Y-81231D01*
X29701Y-80545D01*
X30425Y-81307D02*
X30349Y-81345D01*
X30197Y-81345D01*
X30120Y-81307D01*
X30082Y-81231D01*
X30082Y-80926D01*
X30120Y-80850D01*
X30197Y-80811D01*
X30349Y-80811D01*
X30425Y-80850D01*
X30463Y-80926D01*
X30463Y-81002D01*
X30082Y-81078D01*
X30768Y-81307D02*
X30845Y-81345D01*
X30997Y-81345D01*
X31073Y-81307D01*
X31111Y-81231D01*
X31111Y-81192D01*
X31073Y-81116D01*
X30997Y-81078D01*
X30883Y-81078D01*
X30806Y-81040D01*
X30768Y-80964D01*
X30768Y-80926D01*
X30806Y-80850D01*
X30883Y-80811D01*
X30997Y-80811D01*
X31073Y-80850D01*
X31378Y-81650D02*
X31416Y-81611D01*
X31493Y-81497D01*
X31531Y-81421D01*
X31569Y-81307D01*
X31607Y-81116D01*
X31607Y-80964D01*
X31569Y-80773D01*
X31531Y-80659D01*
X31493Y-80583D01*
X31416Y-80469D01*
X31378Y-80431D01*
G54D10*
X14317Y-82396D02*
X14317Y-81756D01*
X13677Y-81756D01*
X13677Y-82396D01*
X14317Y-82396D01*
X13544Y-81623D02*
X14450Y-82529D01*
X14450Y-81623D02*
X13544Y-82529D01*
G54D13*
X14993Y-81600D02*
X15069Y-81600D01*
X15145Y-81638D01*
X15183Y-81676D01*
X15221Y-81752D01*
X15260Y-81905D01*
X15260Y-82095D01*
X15221Y-82247D01*
X15183Y-82324D01*
X15145Y-82362D01*
X15069Y-82400D01*
X14993Y-82400D01*
X14917Y-82362D01*
X14879Y-82324D01*
X14840Y-82247D01*
X14802Y-82095D01*
X14802Y-81905D01*
X14840Y-81752D01*
X14879Y-81676D01*
X14917Y-81638D01*
X14993Y-81600D01*
X15602Y-82324D02*
X15641Y-82362D01*
X15602Y-82400D01*
X15564Y-82362D01*
X15602Y-82324D01*
X15602Y-82400D01*
X16136Y-81600D02*
X16212Y-81600D01*
X16288Y-81638D01*
X16326Y-81676D01*
X16364Y-81752D01*
X16403Y-81905D01*
X16403Y-82095D01*
X16364Y-82247D01*
X16326Y-82324D01*
X16288Y-82362D01*
X16212Y-82400D01*
X16136Y-82400D01*
X16060Y-82362D01*
X16022Y-82324D01*
X15983Y-82247D01*
X15945Y-82095D01*
X15945Y-81905D01*
X15983Y-81752D01*
X16022Y-81676D01*
X16060Y-81638D01*
X16136Y-81600D01*
X16784Y-82400D02*
X16936Y-82400D01*
X17012Y-82362D01*
X17050Y-82324D01*
X17126Y-82209D01*
X17165Y-82057D01*
X17165Y-81752D01*
X17126Y-81676D01*
X17088Y-81638D01*
X17012Y-81600D01*
X16860Y-81600D01*
X16784Y-81638D01*
X16745Y-81676D01*
X16707Y-81752D01*
X16707Y-81943D01*
X16745Y-82019D01*
X16784Y-82057D01*
X16860Y-82095D01*
X17012Y-82095D01*
X17088Y-82057D01*
X17126Y-82019D01*
X17165Y-81943D01*
X17927Y-82400D02*
X17469Y-82400D01*
X17698Y-82400D02*
X17698Y-81600D01*
X17622Y-81714D01*
X17546Y-81790D01*
X17469Y-81828D01*
X18231Y-81600D02*
X18231Y-81752D01*
X18536Y-81600D02*
X18536Y-81752D01*
X20061Y-81562D02*
X19375Y-82590D01*
X20899Y-81676D02*
X20937Y-81638D01*
X21014Y-81600D01*
X21204Y-81600D01*
X21280Y-81638D01*
X21318Y-81676D01*
X21357Y-81752D01*
X21357Y-81828D01*
X21318Y-81943D01*
X20861Y-82400D01*
X21357Y-82400D01*
X21699Y-82324D02*
X21738Y-82362D01*
X21699Y-82400D01*
X21661Y-82362D01*
X21699Y-82324D01*
X21699Y-82400D01*
X22004Y-81600D02*
X22500Y-81600D01*
X22233Y-81905D01*
X22347Y-81905D01*
X22423Y-81943D01*
X22461Y-81981D01*
X22500Y-82057D01*
X22500Y-82247D01*
X22461Y-82324D01*
X22423Y-82362D01*
X22347Y-82400D01*
X22119Y-82400D01*
X22042Y-82362D01*
X22004Y-82324D01*
X22995Y-81600D02*
X23071Y-81600D01*
X23147Y-81638D01*
X23185Y-81676D01*
X23223Y-81752D01*
X23262Y-81905D01*
X23262Y-82095D01*
X23223Y-82247D01*
X23185Y-82324D01*
X23147Y-82362D01*
X23071Y-82400D01*
X22995Y-82400D01*
X22919Y-82362D01*
X22881Y-82324D01*
X22842Y-82247D01*
X22804Y-82095D01*
X22804Y-81905D01*
X22842Y-81752D01*
X22881Y-81676D01*
X22919Y-81638D01*
X22995Y-81600D01*
X23604Y-82400D02*
X23604Y-81866D01*
X23604Y-81943D02*
X23643Y-81905D01*
X23719Y-81866D01*
X23833Y-81866D01*
X23909Y-81905D01*
X23947Y-81981D01*
X23947Y-82400D01*
X23947Y-81981D02*
X23985Y-81905D01*
X24062Y-81866D01*
X24176Y-81866D01*
X24252Y-81905D01*
X24290Y-81981D01*
X24290Y-82400D01*
X24671Y-82400D02*
X24671Y-81866D01*
X24671Y-81943D02*
X24710Y-81905D01*
X24786Y-81866D01*
X24900Y-81866D01*
X24976Y-81905D01*
X25014Y-81981D01*
X25014Y-82400D01*
X25014Y-81981D02*
X25052Y-81905D01*
X25129Y-81866D01*
X25243Y-81866D01*
X25319Y-81905D01*
X25357Y-81981D01*
X25357Y-82400D01*
X26577Y-82705D02*
X26539Y-82666D01*
X26463Y-82552D01*
X26425Y-82476D01*
X26387Y-82362D01*
X26348Y-82171D01*
X26348Y-82019D01*
X26387Y-81828D01*
X26425Y-81714D01*
X26463Y-81638D01*
X26539Y-81524D01*
X26577Y-81486D01*
X26843Y-81676D02*
X26881Y-81638D01*
X26958Y-81600D01*
X27148Y-81600D01*
X27224Y-81638D01*
X27262Y-81676D01*
X27301Y-81752D01*
X27301Y-81828D01*
X27262Y-81943D01*
X26805Y-82400D01*
X27301Y-82400D01*
X28253Y-82400D02*
X28253Y-81600D01*
X28596Y-82400D02*
X28596Y-81981D01*
X28558Y-81905D01*
X28482Y-81866D01*
X28368Y-81866D01*
X28292Y-81905D01*
X28253Y-81943D01*
X29092Y-82400D02*
X29016Y-82362D01*
X28977Y-82324D01*
X28939Y-82247D01*
X28939Y-82019D01*
X28977Y-81943D01*
X29016Y-81905D01*
X29092Y-81866D01*
X29206Y-81866D01*
X29282Y-81905D01*
X29320Y-81943D01*
X29358Y-82019D01*
X29358Y-82247D01*
X29320Y-82324D01*
X29282Y-82362D01*
X29206Y-82400D01*
X29092Y-82400D01*
X29816Y-82400D02*
X29740Y-82362D01*
X29701Y-82286D01*
X29701Y-81600D01*
X30425Y-82362D02*
X30349Y-82400D01*
X30197Y-82400D01*
X30120Y-82362D01*
X30082Y-82286D01*
X30082Y-81981D01*
X30120Y-81905D01*
X30197Y-81866D01*
X30349Y-81866D01*
X30425Y-81905D01*
X30463Y-81981D01*
X30463Y-82057D01*
X30082Y-82133D01*
X30768Y-82362D02*
X30845Y-82400D01*
X30997Y-82400D01*
X31073Y-82362D01*
X31111Y-82286D01*
X31111Y-82247D01*
X31073Y-82171D01*
X30997Y-82133D01*
X30883Y-82133D01*
X30806Y-82095D01*
X30768Y-82019D01*
X30768Y-81981D01*
X30806Y-81905D01*
X30883Y-81866D01*
X30997Y-81866D01*
X31073Y-81905D01*
X31378Y-82705D02*
X31416Y-82666D01*
X31493Y-82552D01*
X31531Y-82476D01*
X31569Y-82362D01*
X31607Y-82171D01*
X31607Y-82019D01*
X31569Y-81828D01*
X31531Y-81714D01*
X31493Y-81638D01*
X31416Y-81524D01*
X31378Y-81486D01*
G54D10*
X13850Y-83862D02*
X14450Y-83262D01*
X13850Y-82662D01*
X13250Y-83262D01*
X13850Y-83862D01*
X13850Y-82662D02*
X13850Y-83862D01*
X14450Y-83262D02*
X13250Y-83262D01*
G54D13*
X14993Y-82786D02*
X15069Y-82786D01*
X15145Y-82824D01*
X15183Y-82862D01*
X15221Y-82938D01*
X15260Y-83091D01*
X15260Y-83281D01*
X15221Y-83433D01*
X15183Y-83510D01*
X15145Y-83548D01*
X15069Y-83586D01*
X14993Y-83586D01*
X14917Y-83548D01*
X14879Y-83510D01*
X14840Y-83433D01*
X14802Y-83281D01*
X14802Y-83091D01*
X14840Y-82938D01*
X14879Y-82862D01*
X14917Y-82824D01*
X14993Y-82786D01*
X15602Y-83510D02*
X15641Y-83548D01*
X15602Y-83586D01*
X15564Y-83548D01*
X15602Y-83510D01*
X15602Y-83586D01*
X16403Y-83586D02*
X15945Y-83586D01*
X16174Y-83586D02*
X16174Y-82786D01*
X16098Y-82900D01*
X16022Y-82976D01*
X15945Y-83014D01*
X16707Y-82862D02*
X16745Y-82824D01*
X16822Y-82786D01*
X17012Y-82786D01*
X17088Y-82824D01*
X17126Y-82862D01*
X17165Y-82938D01*
X17165Y-83014D01*
X17126Y-83129D01*
X16669Y-83586D01*
X17165Y-83586D01*
X17660Y-82786D02*
X17736Y-82786D01*
X17812Y-82824D01*
X17850Y-82862D01*
X17888Y-82938D01*
X17927Y-83091D01*
X17927Y-83281D01*
X17888Y-83433D01*
X17850Y-83510D01*
X17812Y-83548D01*
X17736Y-83586D01*
X17660Y-83586D01*
X17584Y-83548D01*
X17546Y-83510D01*
X17507Y-83433D01*
X17469Y-83281D01*
X17469Y-83091D01*
X17507Y-82938D01*
X17546Y-82862D01*
X17584Y-82824D01*
X17660Y-82786D01*
X18231Y-82786D02*
X18231Y-82938D01*
X18536Y-82786D02*
X18536Y-82938D01*
X20061Y-82748D02*
X19375Y-83776D01*
X20861Y-82786D02*
X21357Y-82786D01*
X21090Y-83091D01*
X21204Y-83091D01*
X21280Y-83129D01*
X21318Y-83167D01*
X21357Y-83243D01*
X21357Y-83433D01*
X21318Y-83510D01*
X21280Y-83548D01*
X21204Y-83586D01*
X20976Y-83586D01*
X20899Y-83548D01*
X20861Y-83510D01*
X21699Y-83510D02*
X21738Y-83548D01*
X21699Y-83586D01*
X21661Y-83548D01*
X21699Y-83510D01*
X21699Y-83586D01*
X22233Y-82786D02*
X22309Y-82786D01*
X22385Y-82824D01*
X22423Y-82862D01*
X22461Y-82938D01*
X22500Y-83091D01*
X22500Y-83281D01*
X22461Y-83433D01*
X22423Y-83510D01*
X22385Y-83548D01*
X22309Y-83586D01*
X22233Y-83586D01*
X22157Y-83548D01*
X22119Y-83510D01*
X22080Y-83433D01*
X22042Y-83281D01*
X22042Y-83091D01*
X22080Y-82938D01*
X22119Y-82862D01*
X22157Y-82824D01*
X22233Y-82786D01*
X23223Y-82786D02*
X22842Y-82786D01*
X22804Y-83167D01*
X22842Y-83129D01*
X22919Y-83091D01*
X23109Y-83091D01*
X23185Y-83129D01*
X23223Y-83167D01*
X23262Y-83243D01*
X23262Y-83433D01*
X23223Y-83510D01*
X23185Y-83548D01*
X23109Y-83586D01*
X22919Y-83586D01*
X22842Y-83548D01*
X22804Y-83510D01*
X23604Y-83586D02*
X23604Y-83052D01*
X23604Y-83129D02*
X23643Y-83091D01*
X23719Y-83052D01*
X23833Y-83052D01*
X23909Y-83091D01*
X23947Y-83167D01*
X23947Y-83586D01*
X23947Y-83167D02*
X23985Y-83091D01*
X24062Y-83052D01*
X24176Y-83052D01*
X24252Y-83091D01*
X24290Y-83167D01*
X24290Y-83586D01*
X24671Y-83586D02*
X24671Y-83052D01*
X24671Y-83129D02*
X24710Y-83091D01*
X24786Y-83052D01*
X24900Y-83052D01*
X24976Y-83091D01*
X25014Y-83167D01*
X25014Y-83586D01*
X25014Y-83167D02*
X25052Y-83091D01*
X25129Y-83052D01*
X25243Y-83052D01*
X25319Y-83091D01*
X25357Y-83167D01*
X25357Y-83586D01*
X26577Y-83891D02*
X26539Y-83852D01*
X26463Y-83738D01*
X26425Y-83662D01*
X26387Y-83548D01*
X26348Y-83357D01*
X26348Y-83205D01*
X26387Y-83014D01*
X26425Y-82900D01*
X26463Y-82824D01*
X26539Y-82710D01*
X26577Y-82672D01*
X26805Y-82786D02*
X27301Y-82786D01*
X27034Y-83091D01*
X27148Y-83091D01*
X27224Y-83129D01*
X27262Y-83167D01*
X27301Y-83243D01*
X27301Y-83433D01*
X27262Y-83510D01*
X27224Y-83548D01*
X27148Y-83586D01*
X26920Y-83586D01*
X26843Y-83548D01*
X26805Y-83510D01*
X28253Y-83586D02*
X28253Y-82786D01*
X28596Y-83586D02*
X28596Y-83167D01*
X28558Y-83091D01*
X28482Y-83052D01*
X28368Y-83052D01*
X28292Y-83091D01*
X28253Y-83129D01*
X29092Y-83586D02*
X29016Y-83548D01*
X28977Y-83510D01*
X28939Y-83433D01*
X28939Y-83205D01*
X28977Y-83129D01*
X29016Y-83091D01*
X29092Y-83052D01*
X29206Y-83052D01*
X29282Y-83091D01*
X29320Y-83129D01*
X29358Y-83205D01*
X29358Y-83433D01*
X29320Y-83510D01*
X29282Y-83548D01*
X29206Y-83586D01*
X29092Y-83586D01*
X29816Y-83586D02*
X29740Y-83548D01*
X29701Y-83472D01*
X29701Y-82786D01*
X30425Y-83548D02*
X30349Y-83586D01*
X30197Y-83586D01*
X30120Y-83548D01*
X30082Y-83472D01*
X30082Y-83167D01*
X30120Y-83091D01*
X30197Y-83052D01*
X30349Y-83052D01*
X30425Y-83091D01*
X30463Y-83167D01*
X30463Y-83243D01*
X30082Y-83319D01*
X30768Y-83548D02*
X30845Y-83586D01*
X30997Y-83586D01*
X31073Y-83548D01*
X31111Y-83472D01*
X31111Y-83433D01*
X31073Y-83357D01*
X30997Y-83319D01*
X30883Y-83319D01*
X30806Y-83281D01*
X30768Y-83205D01*
X30768Y-83167D01*
X30806Y-83091D01*
X30883Y-83052D01*
X30997Y-83052D01*
X31073Y-83091D01*
X31378Y-83891D02*
X31416Y-83852D01*
X31493Y-83738D01*
X31531Y-83662D01*
X31569Y-83548D01*
X31607Y-83357D01*
X31607Y-83205D01*
X31569Y-83014D01*
X31531Y-82900D01*
X31493Y-82824D01*
X31416Y-82710D01*
X31378Y-82672D01*
M02*
