G04 (created by PCBNEW-RS274X (2010-03-13)-final) date Wednesday 20 March 2013 09:27:55 AM IST*
G01*
G70*
G90*
%MOIN*%
G04 Gerber Fmt 3.4, Leading zero omitted, Abs format*
%FSLAX34Y34*%
G04 APERTURE LIST*
%ADD10C,0.001000*%
%ADD11C,0.010000*%
%ADD12C,0.015000*%
%ADD13O,0.072000X0.124000*%
%ADD14C,0.075000*%
%ADD15R,0.065000X0.065000*%
%ADD16C,0.065000*%
%ADD17C,0.189300*%
%ADD18C,0.079100*%
%ADD19C,0.138100*%
%ADD20C,0.053000*%
%ADD21C,0.090000*%
%ADD22R,0.090000X0.090000*%
%ADD23C,0.095000*%
%ADD24O,0.096000X0.172000*%
%ADD25R,0.075000X0.075000*%
%ADD26R,0.370000X0.370000*%
%ADD27O,0.124000X0.072000*%
%ADD28C,0.080000*%
%ADD29C,0.170000*%
%ADD30R,0.080000X0.080000*%
G04 APERTURE END LIST*
G54D10*
G54D11*
X61160Y-39601D02*
X61160Y-39487D01*
X61122Y-39430D01*
X61084Y-39401D01*
X60970Y-39344D01*
X60817Y-39315D01*
X60513Y-39315D01*
X60436Y-39344D01*
X60398Y-39372D01*
X60360Y-39430D01*
X60360Y-39544D01*
X60398Y-39601D01*
X60436Y-39630D01*
X60513Y-39658D01*
X60703Y-39658D01*
X60779Y-39630D01*
X60817Y-39601D01*
X60855Y-39544D01*
X60855Y-39430D01*
X60817Y-39372D01*
X60779Y-39344D01*
X60703Y-39315D01*
X60436Y-39915D02*
X60398Y-39943D01*
X60360Y-39915D01*
X60398Y-39886D01*
X60436Y-39915D01*
X60360Y-39915D01*
X61160Y-40315D02*
X61160Y-40372D01*
X61122Y-40429D01*
X61084Y-40458D01*
X61008Y-40487D01*
X60855Y-40515D01*
X60665Y-40515D01*
X60513Y-40487D01*
X60436Y-40458D01*
X60398Y-40429D01*
X60360Y-40372D01*
X60360Y-40315D01*
X60398Y-40258D01*
X60436Y-40229D01*
X60513Y-40201D01*
X60665Y-40172D01*
X60855Y-40172D01*
X61008Y-40201D01*
X61084Y-40229D01*
X61122Y-40258D01*
X61160Y-40315D01*
X61160Y-40886D02*
X61160Y-40943D01*
X61122Y-41000D01*
X61084Y-41029D01*
X61008Y-41058D01*
X60855Y-41086D01*
X60665Y-41086D01*
X60513Y-41058D01*
X60436Y-41029D01*
X60398Y-41000D01*
X60360Y-40943D01*
X60360Y-40886D01*
X60398Y-40829D01*
X60436Y-40800D01*
X60513Y-40772D01*
X60665Y-40743D01*
X60855Y-40743D01*
X61008Y-40772D01*
X61084Y-40800D01*
X61122Y-40829D01*
X61160Y-40886D01*
X61160Y-41457D02*
X61160Y-41514D01*
X61122Y-41571D01*
X61084Y-41600D01*
X61008Y-41629D01*
X60855Y-41657D01*
X60665Y-41657D01*
X60513Y-41629D01*
X60436Y-41600D01*
X60398Y-41571D01*
X60360Y-41514D01*
X60360Y-41457D01*
X60398Y-41400D01*
X60436Y-41371D01*
X60513Y-41343D01*
X60665Y-41314D01*
X60855Y-41314D01*
X61008Y-41343D01*
X61084Y-41371D01*
X61122Y-41400D01*
X61160Y-41457D01*
X61160Y-42028D02*
X61160Y-42085D01*
X61122Y-42142D01*
X61084Y-42171D01*
X61008Y-42200D01*
X60855Y-42228D01*
X60665Y-42228D01*
X60513Y-42200D01*
X60436Y-42171D01*
X60398Y-42142D01*
X60360Y-42085D01*
X60360Y-42028D01*
X60398Y-41971D01*
X60436Y-41942D01*
X60513Y-41914D01*
X60665Y-41885D01*
X60855Y-41885D01*
X61008Y-41914D01*
X61084Y-41942D01*
X61122Y-41971D01*
X61160Y-42028D01*
G54D12*
X59999Y-11000D02*
X59999Y-71000D01*
X59000Y-11000D02*
X61369Y-11000D01*
X59000Y-71000D02*
X61369Y-71000D01*
X59999Y-71000D02*
X59769Y-70557D01*
X59999Y-71000D02*
X60229Y-70557D01*
X59999Y-11000D02*
X59769Y-11443D01*
X59999Y-11000D02*
X60229Y-11443D01*
G54D11*
X35601Y-09106D02*
X35601Y-09640D01*
X35458Y-08802D02*
X35315Y-09373D01*
X35687Y-09373D01*
X35915Y-09564D02*
X35943Y-09602D01*
X35915Y-09640D01*
X35886Y-09602D01*
X35915Y-09564D01*
X35915Y-09640D01*
X36458Y-09106D02*
X36458Y-09640D01*
X36315Y-08802D02*
X36172Y-09373D01*
X36544Y-09373D01*
X36886Y-08840D02*
X36943Y-08840D01*
X37000Y-08878D01*
X37029Y-08916D01*
X37058Y-08992D01*
X37086Y-09145D01*
X37086Y-09335D01*
X37058Y-09487D01*
X37029Y-09564D01*
X37000Y-09602D01*
X36943Y-09640D01*
X36886Y-09640D01*
X36829Y-09602D01*
X36800Y-09564D01*
X36772Y-09487D01*
X36743Y-09335D01*
X36743Y-09145D01*
X36772Y-08992D01*
X36800Y-08916D01*
X36829Y-08878D01*
X36886Y-08840D01*
X37457Y-08840D02*
X37514Y-08840D01*
X37571Y-08878D01*
X37600Y-08916D01*
X37629Y-08992D01*
X37657Y-09145D01*
X37657Y-09335D01*
X37629Y-09487D01*
X37600Y-09564D01*
X37571Y-09602D01*
X37514Y-09640D01*
X37457Y-09640D01*
X37400Y-09602D01*
X37371Y-09564D01*
X37343Y-09487D01*
X37314Y-09335D01*
X37314Y-09145D01*
X37343Y-08992D01*
X37371Y-08916D01*
X37400Y-08878D01*
X37457Y-08840D01*
X38028Y-08840D02*
X38085Y-08840D01*
X38142Y-08878D01*
X38171Y-08916D01*
X38200Y-08992D01*
X38228Y-09145D01*
X38228Y-09335D01*
X38200Y-09487D01*
X38171Y-09564D01*
X38142Y-09602D01*
X38085Y-09640D01*
X38028Y-09640D01*
X37971Y-09602D01*
X37942Y-09564D01*
X37914Y-09487D01*
X37885Y-09335D01*
X37885Y-09145D01*
X37914Y-08992D01*
X37942Y-08916D01*
X37971Y-08878D01*
X38028Y-08840D01*
G54D12*
X15000Y-10001D02*
X59000Y-10001D01*
X15000Y-11000D02*
X15000Y-08631D01*
X59000Y-11000D02*
X59000Y-08631D01*
X59000Y-10001D02*
X58557Y-10231D01*
X59000Y-10001D02*
X58557Y-09771D01*
X15000Y-10001D02*
X15443Y-10231D01*
X15000Y-10001D02*
X15443Y-09771D01*
X15000Y-71000D02*
X15000Y-11000D01*
X59000Y-71000D02*
X15000Y-71000D01*
X59000Y-11000D02*
X59000Y-71000D01*
X15000Y-11000D02*
X59000Y-11000D01*
G54D13*
X34000Y-38000D03*
X33000Y-38000D03*
X32000Y-38000D03*
X31000Y-38000D03*
X30000Y-38000D03*
X29000Y-38000D03*
X28000Y-38000D03*
X27000Y-38000D03*
X27000Y-41000D03*
X28000Y-41000D03*
X29000Y-41000D03*
X30000Y-41000D03*
X31000Y-41000D03*
X32000Y-41000D03*
X33000Y-41000D03*
X34000Y-41000D03*
X24850Y-61250D03*
X25850Y-61250D03*
X26850Y-61250D03*
X27850Y-61250D03*
X28850Y-61250D03*
X29850Y-61250D03*
X30850Y-61250D03*
X31850Y-61250D03*
X32850Y-61250D03*
X33850Y-61250D03*
X34850Y-61250D03*
X35850Y-61250D03*
X36850Y-61250D03*
X37850Y-61250D03*
X38850Y-61250D03*
X39850Y-61250D03*
X40850Y-61250D03*
X41850Y-61250D03*
X42850Y-61250D03*
X43850Y-61250D03*
X43850Y-55250D03*
X42850Y-55250D03*
X41850Y-55250D03*
X40850Y-55250D03*
X39850Y-55250D03*
X38850Y-55250D03*
X37850Y-55250D03*
X36850Y-55250D03*
X35850Y-55250D03*
X34850Y-55250D03*
X33850Y-55250D03*
X32850Y-55250D03*
X31850Y-55250D03*
X30850Y-55250D03*
X29850Y-55250D03*
X28850Y-55250D03*
X27850Y-55250D03*
X26850Y-55250D03*
X25850Y-55250D03*
X24850Y-55250D03*
G54D14*
X32850Y-53500D03*
X32850Y-52500D03*
X29850Y-52000D03*
X29850Y-53000D03*
X38850Y-64850D03*
X38850Y-65850D03*
X36850Y-64850D03*
X36850Y-65850D03*
X33850Y-63000D03*
X34850Y-63000D03*
X34850Y-53500D03*
X33850Y-53500D03*
G54D15*
X53250Y-44500D03*
G54D16*
X52625Y-44500D03*
G54D15*
X53000Y-47750D03*
G54D16*
X53000Y-48375D03*
G54D15*
X46500Y-49750D03*
G54D16*
X46500Y-49125D03*
G54D15*
X53000Y-46500D03*
G54D16*
X53000Y-45875D03*
G54D15*
X53000Y-50000D03*
G54D16*
X53000Y-49375D03*
G54D17*
X54852Y-36614D03*
X54852Y-31882D03*
G54D18*
X53000Y-33758D03*
X53790Y-33758D03*
X53790Y-34742D03*
X53000Y-34742D03*
G54D14*
X36850Y-63250D03*
X38850Y-63250D03*
G54D19*
X50750Y-63368D03*
X50750Y-55297D03*
G54D20*
X40035Y-42750D03*
X40465Y-42750D03*
G54D21*
X53250Y-51000D03*
G54D22*
X48250Y-51000D03*
G54D21*
X48000Y-40500D03*
G54D22*
X53000Y-40500D03*
G54D21*
X45750Y-36000D03*
G54D22*
X50750Y-36000D03*
G54D23*
X28450Y-67750D03*
X29450Y-67750D03*
X30450Y-67750D03*
X31450Y-67750D03*
X32450Y-67750D03*
X33450Y-67750D03*
X34450Y-67750D03*
X35450Y-67750D03*
X36450Y-67750D03*
X37450Y-67750D03*
X55750Y-15500D03*
X56750Y-15500D03*
X19850Y-59750D03*
X18850Y-59750D03*
X19850Y-58750D03*
X18850Y-58750D03*
X19850Y-57750D03*
X18850Y-57750D03*
X18500Y-39000D03*
X19500Y-39000D03*
X20500Y-39000D03*
X21500Y-39000D03*
X18500Y-38000D03*
X19500Y-38000D03*
X20500Y-38000D03*
X21500Y-38000D03*
X24850Y-64500D03*
X25850Y-64500D03*
X26850Y-64500D03*
X27850Y-64500D03*
X28850Y-64500D03*
X29850Y-64500D03*
X30850Y-64500D03*
X31850Y-64500D03*
X19850Y-67750D03*
X20850Y-67750D03*
X21850Y-67750D03*
X22850Y-67750D03*
X23850Y-67750D03*
X24850Y-67750D03*
X25850Y-67750D03*
X26850Y-67750D03*
X33850Y-48750D03*
X32850Y-48750D03*
X31850Y-48750D03*
X30850Y-48750D03*
X29850Y-48750D03*
X28850Y-48750D03*
X27850Y-48750D03*
X26850Y-48750D03*
X57750Y-62250D03*
X57750Y-61250D03*
X57750Y-60250D03*
X57750Y-59250D03*
X57750Y-58250D03*
X57750Y-57250D03*
X57750Y-56250D03*
X57750Y-55250D03*
X42850Y-48750D03*
X41850Y-48750D03*
X40850Y-48750D03*
X39850Y-48750D03*
X38850Y-48750D03*
X37850Y-48750D03*
X36850Y-48750D03*
X35850Y-48750D03*
X24850Y-48750D03*
X23850Y-48750D03*
X22850Y-48750D03*
X21850Y-48750D03*
X20850Y-48750D03*
X19850Y-48750D03*
X18850Y-48750D03*
X17850Y-48750D03*
X56250Y-62250D03*
X56250Y-61250D03*
X56250Y-60250D03*
X56250Y-59250D03*
X56250Y-58250D03*
X56250Y-57250D03*
X56250Y-56250D03*
X56250Y-55250D03*
G54D24*
X24250Y-13000D03*
X25250Y-13000D03*
X26250Y-13000D03*
X27250Y-13000D03*
X28250Y-13000D03*
X29250Y-13000D03*
X30250Y-13000D03*
X31250Y-13000D03*
X32250Y-13000D03*
X33250Y-13000D03*
X34250Y-13000D03*
X35250Y-13000D03*
X36250Y-13000D03*
X37250Y-13000D03*
X38250Y-13000D03*
X39250Y-13000D03*
G54D25*
X52000Y-29000D03*
G54D14*
X53000Y-29000D03*
G54D25*
X18500Y-42250D03*
G54D14*
X18500Y-41250D03*
G54D25*
X17250Y-28000D03*
G54D14*
X17250Y-29000D03*
G54D25*
X19750Y-28000D03*
G54D14*
X19750Y-29000D03*
G54D25*
X22250Y-28000D03*
G54D14*
X22250Y-29000D03*
G54D25*
X24750Y-28000D03*
G54D14*
X24750Y-29000D03*
G54D25*
X27250Y-28000D03*
G54D14*
X27250Y-29000D03*
G54D25*
X29750Y-28000D03*
G54D14*
X29750Y-29000D03*
G54D25*
X32250Y-28000D03*
G54D14*
X32250Y-29000D03*
G54D25*
X34750Y-28000D03*
G54D14*
X34750Y-29000D03*
G54D25*
X39500Y-30500D03*
G54D14*
X38500Y-30500D03*
G54D26*
X55750Y-24000D03*
G54D21*
X56750Y-17500D03*
G54D22*
X55750Y-17500D03*
G54D21*
X54750Y-17500D03*
G54D27*
X51250Y-49750D03*
X51250Y-48750D03*
X51250Y-47750D03*
X51250Y-46750D03*
X51250Y-45750D03*
X51250Y-44750D03*
X51250Y-43750D03*
X51250Y-42750D03*
X48250Y-42750D03*
X48250Y-43750D03*
X48250Y-44750D03*
X48250Y-45750D03*
X48250Y-46750D03*
X48250Y-47750D03*
X48250Y-48750D03*
X48250Y-49750D03*
G54D28*
X17850Y-58750D03*
X17850Y-63750D03*
X20850Y-58750D03*
X20850Y-63750D03*
X24750Y-42250D03*
X19750Y-42250D03*
X34850Y-50000D03*
X29850Y-50000D03*
X17250Y-31000D03*
X17250Y-36000D03*
X19750Y-31000D03*
X19750Y-36000D03*
X22250Y-31000D03*
X22250Y-36000D03*
X24750Y-31000D03*
X24750Y-36000D03*
X27250Y-31000D03*
X27250Y-36000D03*
X29750Y-31000D03*
X29750Y-36000D03*
X32250Y-31000D03*
X32250Y-36000D03*
X34750Y-31000D03*
X34750Y-36000D03*
X45750Y-31500D03*
X50750Y-31500D03*
X50750Y-33750D03*
X45750Y-33750D03*
X48000Y-38250D03*
X53000Y-38250D03*
X43000Y-30500D03*
X43000Y-35500D03*
X29850Y-51000D03*
X34850Y-51000D03*
X45750Y-29000D03*
X50750Y-29000D03*
G54D23*
X56750Y-27500D03*
X56750Y-28500D03*
X56750Y-29500D03*
X54750Y-27500D03*
X54750Y-28500D03*
X54750Y-29500D03*
G54D14*
X40250Y-38350D03*
X40250Y-40150D03*
X37750Y-38350D03*
X37750Y-40150D03*
X45750Y-38350D03*
X45750Y-40150D03*
X43250Y-38350D03*
X43250Y-40150D03*
X40250Y-33350D03*
X40250Y-35150D03*
X37750Y-33350D03*
X37750Y-35150D03*
G54D27*
X42000Y-42750D03*
X42000Y-43750D03*
X42000Y-44750D03*
X42000Y-45750D03*
X45000Y-45750D03*
X45000Y-44750D03*
X45000Y-43750D03*
X45000Y-42750D03*
G54D23*
X18500Y-45000D03*
X19500Y-45000D03*
X20500Y-45000D03*
X21500Y-45000D03*
G54D28*
X26000Y-36000D03*
X26000Y-31000D03*
G54D29*
X55700Y-49400D03*
X55700Y-39550D03*
G54D30*
X55150Y-42350D03*
G54D28*
X55150Y-43400D03*
X55150Y-44500D03*
X55150Y-45550D03*
X55150Y-46650D03*
X56250Y-42850D03*
X56250Y-43950D03*
X56250Y-45000D03*
X56250Y-46100D03*
M02*
