M48
;DRILL file {PCBnew (2010-03-13)-final} date Tuesday 19 March 2013 04:18:03 PM IST
;FORMAT={-.-/ absolute / inch / decimal}
R,T
VER,1
FMAT,2
INCH,TZ
TCST,OFF
ICI,OFF
ATC,ON
T1C0.020
T2C0.025
T3C0.032
T4C0.035
T5C0.039
T6C0.040
T7C0.045
T8C0.059
T9C0.091
T10C0.120
%
M47
G05
M72
T1
X4.003Y4.275
X4.046Y4.275
T2
X2.125Y6.025
X2.250Y5.825
X2.280Y4.005
X2.295Y3.840
X2.380Y4.025
X2.640Y4.946
X2.785Y4.995
X2.840Y5.145
X2.900Y5.345
X3.085Y5.365
X3.225Y5.675
X3.575Y5.775
X4.150Y6.825
X4.240Y6.810
X4.330Y6.795
X4.350Y5.850
X4.475Y5.675
X4.530Y5.755
X5.000Y4.150
X5.400Y5.375
T3
X1.725Y1.700
X1.725Y2.250
X1.725Y2.800
X1.725Y2.900
X1.725Y3.100
X1.725Y3.600
X1.785Y5.875
X1.785Y6.375
X1.825Y1.800
X1.825Y2.350
X1.850Y4.125
X1.850Y4.225
X1.925Y1.700
X1.925Y2.250
X1.975Y2.800
X1.975Y2.900
X1.975Y3.100
X1.975Y3.600
X1.975Y4.225
X2.085Y5.875
X2.085Y6.375
X2.225Y2.800
X2.225Y2.900
X2.225Y3.100
X2.225Y3.600
X2.475Y2.800
X2.475Y2.900
X2.475Y3.100
X2.475Y3.600
X2.475Y4.225
X2.485Y5.525
X2.485Y6.125
X2.585Y5.525
X2.585Y6.125
X2.600Y3.100
X2.600Y3.600
X2.685Y5.525
X2.685Y6.125
X2.700Y3.800
X2.700Y4.100
X2.725Y2.800
X2.725Y2.900
X2.725Y3.100
X2.725Y3.600
X2.785Y5.525
X2.785Y6.125
X2.800Y3.800
X2.800Y4.100
X2.885Y5.525
X2.885Y6.125
X2.900Y3.800
X2.900Y4.100
X2.975Y2.800
X2.975Y2.900
X2.975Y3.100
X2.975Y3.600
X2.985Y5.000
X2.985Y5.100
X2.985Y5.200
X2.985Y5.300
X2.985Y5.525
X2.985Y6.125
X3.000Y3.800
X3.000Y4.100
X3.085Y5.525
X3.085Y6.125
X3.100Y3.800
X3.100Y4.100
X3.185Y5.525
X3.185Y6.125
X3.200Y3.800
X3.200Y4.100
X3.225Y2.800
X3.225Y2.900
X3.225Y3.100
X3.225Y3.600
X3.285Y5.250
X3.285Y5.350
X3.285Y5.525
X3.285Y6.125
X3.300Y3.800
X3.300Y4.100
X3.385Y5.350
X3.385Y5.525
X3.385Y6.125
X3.385Y6.300
X3.400Y3.800
X3.400Y4.100
X3.475Y2.800
X3.475Y2.900
X3.475Y3.100
X3.475Y3.600
X3.485Y5.000
X3.485Y5.100
X3.485Y5.350
X3.485Y5.525
X3.485Y6.125
X3.485Y6.300
X3.585Y5.525
X3.585Y6.125
X3.685Y5.525
X3.685Y6.125
X3.685Y6.325
X3.685Y6.485
X3.685Y6.585
X3.775Y3.335
X3.775Y3.515
X3.775Y3.835
X3.775Y4.015
X3.785Y5.525
X3.785Y6.125
X3.850Y3.050
X3.885Y5.525
X3.885Y6.125
X3.885Y6.325
X3.885Y6.485
X3.885Y6.585
X3.950Y3.050
X3.985Y5.525
X3.985Y6.125
X4.025Y3.335
X4.025Y3.515
X4.025Y3.835
X4.025Y4.015
X4.085Y5.525
X4.085Y6.125
X4.185Y5.525
X4.185Y6.125
X4.200Y4.275
X4.200Y4.375
X4.200Y4.475
X4.200Y4.575
X4.285Y5.525
X4.285Y6.125
X4.300Y3.050
X4.300Y3.550
X4.325Y3.835
X4.325Y4.015
X4.385Y5.525
X4.385Y6.125
X4.500Y4.275
X4.500Y4.375
X4.500Y4.475
X4.500Y4.575
X4.575Y2.900
X4.575Y3.150
X4.575Y3.375
X4.575Y3.835
X4.575Y4.015
X4.650Y4.912
X4.650Y4.975
X4.800Y3.825
X4.825Y4.275
X4.825Y4.375
X4.825Y4.475
X4.825Y4.575
X4.825Y4.675
X4.825Y4.775
X4.825Y4.875
X4.825Y4.975
X5.075Y2.900
X5.075Y3.150
X5.075Y3.375
X5.125Y4.275
X5.125Y4.375
X5.125Y4.475
X5.125Y4.575
X5.125Y4.675
X5.125Y4.775
X5.125Y4.875
X5.125Y4.975
X5.200Y2.900
X5.262Y4.450
X5.300Y2.900
X5.300Y3.825
X5.300Y4.588
X5.300Y4.650
X5.300Y4.775
X5.300Y4.838
X5.300Y4.938
X5.300Y5.000
X5.325Y4.450
X5.475Y2.750
X5.475Y2.850
X5.475Y2.950
X5.675Y2.750
X5.675Y2.850
X5.675Y2.950
T4
X5.300Y3.376
X5.300Y3.474
X5.379Y3.376
X5.379Y3.474
T5
X2.425Y1.300
X2.525Y1.300
X2.625Y1.300
X2.725Y1.300
X2.825Y1.300
X2.925Y1.300
X3.025Y1.300
X3.125Y1.300
X3.225Y1.300
X3.325Y1.300
X3.425Y1.300
X3.525Y1.300
X3.625Y1.300
X3.725Y1.300
X3.825Y1.300
X3.925Y1.300
T6
X1.785Y4.875
X1.850Y3.800
X1.850Y3.900
X1.850Y4.500
X1.885Y4.875
X1.885Y5.775
X1.885Y5.875
X1.885Y5.975
X1.950Y3.800
X1.950Y3.900
X1.950Y4.500
X1.985Y4.875
X1.985Y5.775
X1.985Y5.875
X1.985Y5.975
X1.985Y6.775
X2.050Y3.800
X2.050Y3.900
X2.050Y4.500
X2.085Y4.875
X2.085Y6.775
X2.150Y3.800
X2.150Y3.900
X2.150Y4.500
X2.185Y4.875
X2.185Y6.775
X2.285Y4.875
X2.285Y6.775
X2.385Y4.875
X2.385Y6.775
X2.485Y4.875
X2.485Y6.450
X2.485Y6.775
X2.585Y6.450
X2.585Y6.775
X2.685Y4.875
X2.685Y6.450
X2.685Y6.775
X2.785Y4.875
X2.785Y6.450
X2.845Y6.775
X2.885Y4.875
X2.885Y6.450
X2.945Y6.775
X2.985Y4.875
X2.985Y6.450
X3.045Y6.775
X3.085Y4.875
X3.085Y6.450
X3.145Y6.775
X3.185Y4.875
X3.185Y6.450
X3.245Y6.775
X3.285Y4.875
X3.345Y6.775
X3.385Y4.875
X3.445Y6.775
X3.545Y6.775
X3.585Y4.875
X3.645Y6.775
X3.685Y4.875
X3.745Y6.775
X3.785Y4.875
X3.885Y4.875
X3.985Y4.875
X4.085Y4.875
X4.185Y4.875
X4.285Y4.875
X5.515Y4.235
X5.515Y4.340
X5.515Y4.450
X5.515Y4.555
X5.515Y4.665
X5.575Y1.550
X5.625Y4.285
X5.625Y4.395
X5.625Y4.500
X5.625Y4.610
X5.625Y5.525
X5.625Y5.625
X5.625Y5.725
X5.625Y5.825
X5.625Y5.925
X5.625Y6.025
X5.625Y6.125
X5.625Y6.225
X5.675Y1.550
X5.775Y5.525
X5.775Y5.625
X5.775Y5.725
X5.775Y5.825
X5.775Y5.925
X5.775Y6.025
X5.775Y6.125
X5.775Y6.225
T7
X4.575Y3.600
X4.800Y4.050
X4.825Y5.100
X5.075Y3.600
X5.300Y4.050
X5.325Y5.100
X5.475Y1.750
X5.575Y1.750
X5.675Y1.750
T8
X5.075Y5.530
X5.075Y6.337
T9
X5.485Y3.188
X5.485Y3.661
T10
X5.570Y3.955
X5.570Y4.940
X5.575Y2.400
T0
M30
