G04 (created by PCBnew (20090216-final)) date Friday 21 January 2011 09:57:26 PM IST*
G01*
G70*
G90*
%MOIN*%
G04 Gerber Fmt 3.4, Leading zero omitted, Abs format*
%FSLAX34Y34*%
G04 APERTURE LIST*
%ADD10C,0.012000*%
%ADD11C,0.015000*%
%ADD12O,0.104000X0.052000*%
%ADD13O,0.052000X0.104000*%
%ADD14C,0.055000*%
%ADD15R,0.055000X0.055000*%
%ADD16C,0.169300*%
%ADD17C,0.059100*%
%ADD18C,0.150000*%
%ADD19R,0.060000X0.060000*%
%ADD20C,0.060000*%
%ADD21C,0.063000*%
%ADD22C,0.075000*%
%ADD23O,0.076000X0.152000*%
%ADD24R,0.350000X0.350000*%
%ADD25C,0.070000*%
%ADD26R,0.070000X0.070000*%
%ADD27C,0.100000*%
%ADD28C,0.045000*%
%ADD29C,0.017000*%
%ADD30C,0.025000*%
%ADD31C,0.001000*%
G04 APERTURE END LIST*
G54D10*
X55649Y-07716D02*
X55649Y-06916D01*
X55649Y-06916D02*
X55315Y-07539D01*
X55315Y-07539D02*
X55782Y-07539D01*
X56301Y-07716D02*
X56301Y-07628D01*
X57221Y-07716D02*
X57221Y-06916D01*
X57221Y-06916D02*
X56887Y-07539D01*
X56887Y-07539D02*
X57354Y-07539D01*
X57673Y-07716D02*
X58140Y-06916D01*
X57673Y-07628D02*
X57673Y-07005D01*
X57673Y-07005D02*
X57740Y-06916D01*
X57740Y-06916D02*
X58073Y-06916D01*
X58073Y-06916D02*
X58140Y-07005D01*
X58140Y-07005D02*
X58140Y-07628D01*
X58140Y-07628D02*
X58073Y-07716D01*
X58073Y-07716D02*
X57740Y-07716D01*
X57740Y-07716D02*
X57673Y-07628D01*
X58459Y-07716D02*
X58926Y-06916D01*
X58459Y-07628D02*
X58459Y-07005D01*
X58459Y-07005D02*
X58526Y-06916D01*
X58526Y-06916D02*
X58859Y-06916D01*
X58859Y-06916D02*
X58926Y-07005D01*
X58926Y-07005D02*
X58926Y-07628D01*
X58926Y-07628D02*
X58859Y-07716D01*
X58859Y-07716D02*
X58526Y-07716D01*
X58526Y-07716D02*
X58459Y-07628D01*
X59245Y-07716D02*
X59712Y-06916D01*
X59245Y-07628D02*
X59245Y-07005D01*
X59245Y-07005D02*
X59312Y-06916D01*
X59312Y-06916D02*
X59645Y-06916D01*
X59645Y-06916D02*
X59712Y-07005D01*
X59712Y-07005D02*
X59712Y-07628D01*
X59712Y-07628D02*
X59645Y-07716D01*
X59645Y-07716D02*
X59312Y-07716D01*
X59312Y-07716D02*
X59245Y-07628D01*
G54D11*
X36000Y-08001D02*
X80000Y-08001D01*
X36000Y-08500D02*
X36000Y-06631D01*
X80000Y-08500D02*
X80000Y-06631D01*
X80000Y-08001D02*
X79557Y-08231D01*
X80000Y-08001D02*
X79557Y-07771D01*
X36000Y-08001D02*
X36443Y-08231D01*
X36000Y-08001D02*
X36443Y-07771D01*
G54D10*
X82461Y-33315D02*
X82372Y-33315D01*
X82372Y-33315D02*
X82284Y-33382D01*
X82284Y-33382D02*
X82284Y-33715D01*
X82284Y-33715D02*
X82372Y-33782D01*
X82372Y-33782D02*
X82639Y-33782D01*
X82639Y-33782D02*
X82817Y-33649D01*
X82817Y-33649D02*
X82817Y-33315D01*
X82817Y-33315D02*
X83084Y-33315D01*
X83084Y-33315D02*
X83084Y-33782D01*
X82284Y-34301D02*
X82372Y-34301D01*
X82284Y-35354D02*
X82284Y-34887D01*
X82284Y-34887D02*
X82550Y-34887D01*
X82550Y-34887D02*
X82639Y-34954D01*
X82639Y-34954D02*
X82639Y-35287D01*
X82639Y-35287D02*
X82728Y-35354D01*
X82728Y-35354D02*
X82995Y-35354D01*
X82995Y-35354D02*
X83084Y-35287D01*
X83084Y-35287D02*
X83084Y-34954D01*
X83084Y-34954D02*
X82995Y-34887D01*
X82284Y-35673D02*
X83084Y-36140D01*
X82372Y-35673D02*
X82995Y-35673D01*
X82995Y-35673D02*
X83084Y-35740D01*
X83084Y-35740D02*
X83084Y-36073D01*
X83084Y-36073D02*
X82995Y-36140D01*
X82995Y-36140D02*
X82372Y-36140D01*
X82372Y-36140D02*
X82284Y-36073D01*
X82284Y-36073D02*
X82284Y-35740D01*
X82284Y-35740D02*
X82372Y-35673D01*
X82284Y-36459D02*
X83084Y-36926D01*
X82372Y-36459D02*
X82995Y-36459D01*
X82995Y-36459D02*
X83084Y-36526D01*
X83084Y-36526D02*
X83084Y-36859D01*
X83084Y-36859D02*
X82995Y-36926D01*
X82995Y-36926D02*
X82372Y-36926D01*
X82372Y-36926D02*
X82284Y-36859D01*
X82284Y-36859D02*
X82284Y-36526D01*
X82284Y-36526D02*
X82372Y-36459D01*
X82284Y-37245D02*
X83084Y-37712D01*
X82372Y-37245D02*
X82995Y-37245D01*
X82995Y-37245D02*
X83084Y-37312D01*
X83084Y-37312D02*
X83084Y-37645D01*
X83084Y-37645D02*
X82995Y-37712D01*
X82995Y-37712D02*
X82372Y-37712D01*
X82372Y-37712D02*
X82284Y-37645D01*
X82284Y-37645D02*
X82284Y-37312D01*
X82284Y-37312D02*
X82372Y-37245D01*
G54D11*
X81999Y-10000D02*
X81999Y-62000D01*
X81500Y-10000D02*
X83369Y-10000D01*
X81500Y-62000D02*
X83369Y-62000D01*
X81999Y-62000D02*
X81769Y-61557D01*
X81999Y-62000D02*
X82229Y-61557D01*
X81999Y-10000D02*
X81769Y-10443D01*
X81999Y-10000D02*
X82229Y-10443D01*
G54D10*
X67080Y-20900D02*
X67080Y-20100D01*
X67080Y-20456D02*
X67013Y-20367D01*
X67013Y-20367D02*
X66680Y-20367D01*
X66680Y-20367D02*
X66613Y-20456D01*
X66613Y-20456D02*
X66613Y-20900D01*
X65894Y-20812D02*
X65960Y-20900D01*
X65960Y-20900D02*
X66160Y-20900D01*
X66160Y-20900D02*
X66227Y-20812D01*
X66227Y-20812D02*
X66227Y-20100D01*
X66227Y-20367D02*
X66027Y-20367D01*
X65108Y-20812D02*
X65174Y-20900D01*
X65174Y-20900D02*
X65374Y-20900D01*
X65374Y-20900D02*
X65441Y-20812D01*
X65441Y-20812D02*
X65441Y-20100D01*
X65441Y-20367D02*
X65241Y-20367D01*
X64722Y-21166D02*
X64722Y-20367D01*
X64722Y-20456D02*
X64655Y-20367D01*
X64655Y-20367D02*
X64322Y-20367D01*
X64322Y-20367D02*
X64255Y-20456D01*
X64255Y-20456D02*
X64255Y-20812D01*
X64255Y-20812D02*
X64322Y-20900D01*
X64322Y-20900D02*
X64655Y-20900D01*
X64655Y-20900D02*
X64722Y-20812D01*
X63736Y-20367D02*
X63736Y-20456D01*
X63736Y-20634D02*
X63736Y-20723D01*
X63083Y-20900D02*
X62816Y-20100D01*
X62297Y-20900D02*
X62030Y-20100D01*
X61578Y-20367D02*
X61578Y-20723D01*
X61578Y-20723D02*
X61444Y-20900D01*
X61444Y-20900D02*
X61311Y-20723D01*
X61311Y-20723D02*
X61178Y-20900D01*
X61178Y-20900D02*
X61044Y-20723D01*
X61044Y-20723D02*
X61044Y-20367D01*
X60792Y-20367D02*
X60792Y-20723D01*
X60792Y-20723D02*
X60658Y-20900D01*
X60658Y-20900D02*
X60525Y-20723D01*
X60525Y-20723D02*
X60392Y-20900D01*
X60392Y-20900D02*
X60258Y-20723D01*
X60258Y-20723D02*
X60258Y-20367D01*
X60006Y-20367D02*
X60006Y-20723D01*
X60006Y-20723D02*
X59872Y-20900D01*
X59872Y-20900D02*
X59739Y-20723D01*
X59739Y-20723D02*
X59606Y-20900D01*
X59606Y-20900D02*
X59472Y-20723D01*
X59472Y-20723D02*
X59472Y-20367D01*
X59020Y-20900D02*
X59020Y-20812D01*
X58434Y-20634D02*
X57967Y-20634D01*
X57967Y-20634D02*
X57967Y-20456D01*
X57967Y-20456D02*
X58034Y-20367D01*
X58034Y-20367D02*
X58367Y-20367D01*
X58367Y-20367D02*
X58434Y-20456D01*
X58434Y-20456D02*
X58434Y-20812D01*
X58434Y-20812D02*
X58367Y-20900D01*
X58367Y-20900D02*
X58034Y-20900D01*
X58034Y-20900D02*
X57967Y-20812D01*
X57648Y-20812D02*
X57581Y-20900D01*
X57581Y-20900D02*
X57248Y-20900D01*
X57248Y-20900D02*
X57181Y-20812D01*
X57181Y-20812D02*
X57181Y-20545D01*
X57181Y-20545D02*
X57248Y-20456D01*
X57248Y-20456D02*
X57581Y-20456D01*
X57581Y-20456D02*
X57648Y-20367D01*
X57648Y-20367D02*
X57648Y-20189D01*
X57648Y-20189D02*
X57581Y-20100D01*
X57581Y-20100D02*
X57248Y-20100D01*
X57248Y-20100D02*
X57181Y-20189D01*
X56862Y-20900D02*
X56862Y-20367D01*
X56862Y-20545D02*
X56728Y-20367D01*
X56728Y-20367D02*
X56528Y-20367D01*
X56528Y-20367D02*
X56395Y-20545D01*
X55876Y-20100D02*
X55876Y-20189D01*
X55876Y-20456D02*
X55876Y-20812D01*
X55876Y-20812D02*
X55809Y-20900D01*
X55809Y-20900D02*
X55742Y-20900D01*
X55090Y-20100D02*
X55090Y-20189D01*
X55090Y-20456D02*
X55090Y-21077D01*
X55090Y-21077D02*
X55156Y-21166D01*
X55156Y-21166D02*
X55223Y-21077D01*
X54504Y-20367D02*
X54104Y-20367D01*
X54104Y-20367D02*
X54037Y-20456D01*
X54037Y-20456D02*
X54037Y-20900D01*
X54037Y-20900D02*
X54437Y-20900D01*
X54437Y-20900D02*
X54504Y-20812D01*
X54504Y-20812D02*
X54504Y-20723D01*
X54504Y-20723D02*
X54437Y-20634D01*
X54437Y-20634D02*
X54037Y-20634D01*
X53718Y-20900D02*
X53718Y-20367D01*
X53718Y-20456D02*
X53651Y-20367D01*
X53651Y-20367D02*
X53384Y-20367D01*
X53384Y-20367D02*
X53318Y-20456D01*
X53318Y-20456D02*
X53318Y-20900D01*
X52732Y-20900D02*
X52732Y-20812D01*
X51679Y-20812D02*
X51746Y-20900D01*
X51746Y-20900D02*
X52079Y-20900D01*
X52079Y-20900D02*
X52146Y-20812D01*
X52146Y-20812D02*
X52146Y-20456D01*
X52146Y-20456D02*
X52079Y-20367D01*
X52079Y-20367D02*
X51746Y-20367D01*
X51746Y-20367D02*
X51679Y-20456D01*
X51293Y-20900D02*
X51360Y-20812D01*
X51360Y-20812D02*
X51360Y-20456D01*
X51360Y-20456D02*
X51293Y-20367D01*
X51293Y-20367D02*
X50960Y-20367D01*
X50960Y-20367D02*
X50893Y-20456D01*
X50893Y-20456D02*
X50893Y-20812D01*
X50893Y-20812D02*
X50960Y-20900D01*
X50960Y-20900D02*
X51293Y-20900D01*
X50574Y-20900D02*
X50574Y-20367D01*
X50574Y-20456D02*
X50507Y-20367D01*
X50507Y-20367D02*
X50374Y-20367D01*
X50374Y-20367D02*
X50307Y-20456D01*
X50307Y-20456D02*
X50307Y-20900D01*
X50307Y-20456D02*
X50240Y-20367D01*
X50240Y-20367D02*
X50107Y-20367D01*
X50107Y-20367D02*
X50040Y-20456D01*
X50040Y-20456D02*
X50040Y-20900D01*
X61511Y-24400D02*
X61511Y-23600D01*
X61578Y-23600D02*
X61178Y-23600D01*
X61178Y-23600D02*
X61111Y-23689D01*
X61111Y-23689D02*
X61111Y-24312D01*
X61111Y-24312D02*
X61178Y-24400D01*
X61178Y-24400D02*
X61578Y-24400D01*
X60725Y-24400D02*
X60725Y-23600D01*
X60792Y-23600D02*
X60392Y-23600D01*
X60392Y-23600D02*
X60325Y-23689D01*
X60325Y-23689D02*
X60325Y-24312D01*
X60325Y-24312D02*
X60392Y-24400D01*
X60392Y-24400D02*
X60792Y-24400D01*
X60006Y-24400D02*
X60006Y-23600D01*
X59606Y-23600D02*
X60006Y-23956D01*
X60006Y-23956D02*
X59539Y-24400D01*
X58434Y-23867D02*
X58434Y-24134D01*
X58434Y-24134D02*
X58234Y-24400D01*
X58234Y-24400D02*
X58034Y-24134D01*
X58034Y-24134D02*
X58034Y-23867D01*
X57514Y-24400D02*
X57248Y-24400D01*
X57381Y-24400D02*
X57381Y-23600D01*
X57381Y-23689D02*
X57514Y-23867D01*
X56662Y-24400D02*
X56662Y-24312D01*
X55942Y-24400D02*
X55676Y-24400D01*
X55809Y-24400D02*
X55809Y-23600D01*
X55809Y-23689D02*
X55942Y-23867D01*
X71439Y-18634D02*
X70972Y-18634D01*
X70972Y-18634D02*
X70972Y-18456D01*
X70972Y-18456D02*
X71039Y-18367D01*
X71039Y-18367D02*
X71372Y-18367D01*
X71372Y-18367D02*
X71439Y-18456D01*
X71439Y-18456D02*
X71439Y-18812D01*
X71439Y-18812D02*
X71372Y-18900D01*
X71372Y-18900D02*
X71039Y-18900D01*
X71039Y-18900D02*
X70972Y-18812D01*
X70653Y-18812D02*
X70586Y-18900D01*
X70586Y-18900D02*
X70253Y-18900D01*
X70253Y-18900D02*
X70186Y-18812D01*
X70186Y-18812D02*
X70186Y-18545D01*
X70186Y-18545D02*
X70253Y-18456D01*
X70253Y-18456D02*
X70586Y-18456D01*
X70586Y-18456D02*
X70653Y-18367D01*
X70653Y-18367D02*
X70653Y-18189D01*
X70653Y-18189D02*
X70586Y-18100D01*
X70586Y-18100D02*
X70253Y-18100D01*
X70253Y-18100D02*
X70186Y-18189D01*
X69867Y-18900D02*
X69867Y-18367D01*
X69867Y-18545D02*
X69733Y-18367D01*
X69733Y-18367D02*
X69533Y-18367D01*
X69533Y-18367D02*
X69400Y-18545D01*
X68881Y-18100D02*
X68881Y-18189D01*
X68881Y-18456D02*
X68881Y-18812D01*
X68881Y-18812D02*
X68814Y-18900D01*
X68814Y-18900D02*
X68747Y-18900D01*
X68095Y-18100D02*
X68095Y-18189D01*
X68095Y-18456D02*
X68095Y-19077D01*
X68095Y-19077D02*
X68161Y-19166D01*
X68161Y-19166D02*
X68228Y-19077D01*
X67509Y-18367D02*
X67109Y-18367D01*
X67109Y-18367D02*
X67042Y-18456D01*
X67042Y-18456D02*
X67042Y-18900D01*
X67042Y-18900D02*
X67442Y-18900D01*
X67442Y-18900D02*
X67509Y-18812D01*
X67509Y-18812D02*
X67509Y-18723D01*
X67509Y-18723D02*
X67442Y-18634D01*
X67442Y-18634D02*
X67042Y-18634D01*
X66723Y-18900D02*
X66723Y-18367D01*
X66723Y-18456D02*
X66656Y-18367D01*
X66656Y-18367D02*
X66389Y-18367D01*
X66389Y-18367D02*
X66323Y-18456D01*
X66323Y-18456D02*
X66323Y-18900D01*
X65084Y-18900D02*
X64817Y-18900D01*
X64951Y-18900D02*
X64951Y-18100D01*
X65084Y-18100D02*
X64817Y-18100D01*
X64365Y-18900D02*
X64365Y-18367D01*
X64365Y-18456D02*
X64298Y-18367D01*
X64298Y-18367D02*
X64031Y-18367D01*
X64031Y-18367D02*
X63965Y-18456D01*
X63965Y-18456D02*
X63965Y-18900D01*
X63579Y-18900D02*
X63579Y-18367D01*
X63579Y-18456D02*
X63512Y-18367D01*
X63512Y-18367D02*
X63245Y-18367D01*
X63245Y-18367D02*
X63179Y-18456D01*
X63179Y-18456D02*
X63179Y-18900D01*
X62726Y-18900D02*
X62793Y-18812D01*
X62793Y-18812D02*
X62793Y-18456D01*
X62793Y-18456D02*
X62726Y-18367D01*
X62726Y-18367D02*
X62393Y-18367D01*
X62393Y-18367D02*
X62326Y-18456D01*
X62326Y-18456D02*
X62326Y-18812D01*
X62326Y-18812D02*
X62393Y-18900D01*
X62393Y-18900D02*
X62726Y-18900D01*
X62007Y-18367D02*
X62007Y-18634D01*
X62007Y-18634D02*
X61807Y-18900D01*
X61807Y-18900D02*
X61607Y-18634D01*
X61607Y-18634D02*
X61607Y-18367D01*
X61221Y-18367D02*
X60821Y-18367D01*
X60821Y-18367D02*
X60754Y-18456D01*
X60754Y-18456D02*
X60754Y-18900D01*
X60754Y-18900D02*
X61154Y-18900D01*
X61154Y-18900D02*
X61221Y-18812D01*
X61221Y-18812D02*
X61221Y-18723D01*
X61221Y-18723D02*
X61154Y-18634D01*
X61154Y-18634D02*
X60754Y-18634D01*
X60035Y-18812D02*
X60101Y-18900D01*
X60101Y-18900D02*
X60301Y-18900D01*
X60301Y-18900D02*
X60368Y-18812D01*
X60368Y-18812D02*
X60368Y-18100D01*
X60368Y-18367D02*
X60168Y-18367D01*
X59449Y-18100D02*
X59449Y-18189D01*
X59449Y-18456D02*
X59449Y-18812D01*
X59449Y-18812D02*
X59382Y-18900D01*
X59382Y-18900D02*
X59315Y-18900D01*
X58796Y-18900D02*
X58863Y-18812D01*
X58863Y-18812D02*
X58863Y-18456D01*
X58863Y-18456D02*
X58796Y-18367D01*
X58796Y-18367D02*
X58463Y-18367D01*
X58463Y-18367D02*
X58396Y-18456D01*
X58396Y-18456D02*
X58396Y-18812D01*
X58396Y-18812D02*
X58463Y-18900D01*
X58463Y-18900D02*
X58796Y-18900D01*
X58077Y-18900D02*
X58077Y-18367D01*
X58077Y-18456D02*
X58010Y-18367D01*
X58010Y-18367D02*
X57743Y-18367D01*
X57743Y-18367D02*
X57677Y-18456D01*
X57677Y-18456D02*
X57677Y-18900D01*
X57291Y-18812D02*
X57224Y-18900D01*
X57224Y-18900D02*
X56891Y-18900D01*
X56891Y-18900D02*
X56824Y-18812D01*
X56824Y-18812D02*
X56824Y-18723D01*
X56824Y-18723D02*
X56891Y-18634D01*
X56891Y-18634D02*
X57224Y-18634D01*
X57224Y-18634D02*
X57291Y-18545D01*
X57291Y-18545D02*
X57291Y-18456D01*
X57291Y-18456D02*
X57224Y-18367D01*
X57224Y-18367D02*
X56891Y-18367D01*
X56891Y-18367D02*
X56824Y-18456D01*
X55719Y-18900D02*
X55719Y-18100D01*
X55719Y-18100D02*
X55319Y-18100D01*
X55319Y-18100D02*
X55252Y-18189D01*
X55252Y-18189D02*
X55252Y-18456D01*
X55252Y-18456D02*
X55319Y-18545D01*
X55319Y-18545D02*
X55719Y-18545D01*
X54933Y-18900D02*
X54933Y-18367D01*
X54933Y-18545D02*
X54799Y-18367D01*
X54799Y-18367D02*
X54599Y-18367D01*
X54599Y-18367D02*
X54466Y-18545D01*
X53947Y-18100D02*
X53947Y-18189D01*
X53947Y-18456D02*
X53947Y-18812D01*
X53947Y-18812D02*
X53880Y-18900D01*
X53880Y-18900D02*
X53813Y-18900D01*
X53361Y-18367D02*
X53361Y-18634D01*
X53361Y-18634D02*
X53161Y-18900D01*
X53161Y-18900D02*
X52961Y-18634D01*
X52961Y-18634D02*
X52961Y-18367D01*
X52575Y-18367D02*
X52175Y-18367D01*
X52175Y-18367D02*
X52108Y-18456D01*
X52108Y-18456D02*
X52108Y-18900D01*
X52108Y-18900D02*
X52508Y-18900D01*
X52508Y-18900D02*
X52575Y-18812D01*
X52575Y-18812D02*
X52575Y-18723D01*
X52575Y-18723D02*
X52508Y-18634D01*
X52508Y-18634D02*
X52108Y-18634D01*
X51389Y-18812D02*
X51455Y-18900D01*
X51455Y-18900D02*
X51655Y-18900D01*
X51655Y-18900D02*
X51722Y-18812D01*
X51722Y-18812D02*
X51722Y-18100D01*
X51722Y-18367D02*
X51522Y-18367D01*
X51003Y-18634D02*
X50536Y-18634D01*
X50536Y-18634D02*
X50536Y-18456D01*
X50536Y-18456D02*
X50603Y-18367D01*
X50603Y-18367D02*
X50936Y-18367D01*
X50936Y-18367D02*
X51003Y-18456D01*
X51003Y-18456D02*
X51003Y-18812D01*
X51003Y-18812D02*
X50936Y-18900D01*
X50936Y-18900D02*
X50603Y-18900D01*
X50603Y-18900D02*
X50536Y-18812D01*
X49431Y-18100D02*
X49431Y-18900D01*
X49431Y-18900D02*
X48897Y-18900D01*
X48445Y-18100D02*
X48445Y-18189D01*
X48445Y-18456D02*
X48445Y-18812D01*
X48445Y-18812D02*
X48378Y-18900D01*
X48378Y-18900D02*
X48311Y-18900D01*
X47859Y-18900D02*
X47859Y-18367D01*
X47859Y-18456D02*
X47792Y-18367D01*
X47792Y-18367D02*
X47659Y-18367D01*
X47659Y-18367D02*
X47592Y-18456D01*
X47592Y-18456D02*
X47592Y-18900D01*
X47592Y-18456D02*
X47525Y-18367D01*
X47525Y-18367D02*
X47392Y-18367D01*
X47392Y-18367D02*
X47325Y-18456D01*
X47325Y-18456D02*
X47325Y-18900D01*
X46873Y-18100D02*
X46873Y-18189D01*
X46873Y-18456D02*
X46873Y-18812D01*
X46873Y-18812D02*
X46806Y-18900D01*
X46806Y-18900D02*
X46739Y-18900D01*
X45887Y-18812D02*
X45953Y-18900D01*
X45953Y-18900D02*
X46153Y-18900D01*
X46153Y-18900D02*
X46220Y-18812D01*
X46220Y-18812D02*
X46220Y-18100D01*
X46220Y-18367D02*
X46020Y-18367D01*
X45501Y-18634D02*
X45034Y-18634D01*
X45034Y-18634D02*
X45034Y-18456D01*
X45034Y-18456D02*
X45101Y-18367D01*
X45101Y-18367D02*
X45434Y-18367D01*
X45434Y-18367D02*
X45501Y-18456D01*
X45501Y-18456D02*
X45501Y-18812D01*
X45501Y-18812D02*
X45434Y-18900D01*
X45434Y-18900D02*
X45101Y-18900D01*
X45101Y-18900D02*
X45034Y-18812D01*
X44248Y-18100D02*
X44248Y-18900D01*
X44248Y-18900D02*
X44648Y-18900D01*
X44648Y-18900D02*
X44715Y-18812D01*
X44715Y-18812D02*
X44715Y-18456D01*
X44715Y-18456D02*
X44648Y-18367D01*
X44648Y-18367D02*
X44248Y-18367D01*
X61352Y-55767D02*
X60419Y-55767D01*
X60419Y-55767D02*
X60419Y-55412D01*
X60419Y-55412D02*
X60552Y-55234D01*
X60552Y-55234D02*
X61219Y-55234D01*
X61219Y-55234D02*
X61352Y-55412D01*
X61352Y-55412D02*
X61352Y-56123D01*
X61352Y-56123D02*
X61219Y-56300D01*
X61219Y-56300D02*
X60552Y-56300D01*
X60552Y-56300D02*
X60419Y-56123D01*
X59899Y-56123D02*
X59766Y-56300D01*
X59766Y-56300D02*
X59099Y-56300D01*
X59099Y-56300D02*
X58966Y-56123D01*
X58966Y-56123D02*
X58966Y-55589D01*
X58966Y-55589D02*
X59099Y-55412D01*
X59099Y-55412D02*
X59766Y-55412D01*
X59766Y-55412D02*
X59899Y-55234D01*
X59899Y-55234D02*
X59899Y-54878D01*
X59899Y-54878D02*
X59766Y-54700D01*
X59766Y-54700D02*
X59099Y-54700D01*
X59099Y-54700D02*
X58966Y-54878D01*
X58446Y-56300D02*
X58446Y-55234D01*
X58446Y-55589D02*
X58179Y-55234D01*
X58179Y-55234D02*
X57779Y-55234D01*
X57779Y-55234D02*
X57513Y-55589D01*
X56593Y-54700D02*
X56593Y-54878D01*
X56593Y-55412D02*
X56593Y-56123D01*
X56593Y-56123D02*
X56460Y-56300D01*
X56460Y-56300D02*
X56326Y-56300D01*
X55140Y-54700D02*
X55140Y-54878D01*
X55140Y-55412D02*
X55140Y-56655D01*
X55140Y-56655D02*
X55273Y-56833D01*
X55273Y-56833D02*
X55407Y-56655D01*
X54087Y-55234D02*
X53287Y-55234D01*
X53287Y-55234D02*
X53154Y-55412D01*
X53154Y-55412D02*
X53154Y-56300D01*
X53154Y-56300D02*
X53954Y-56300D01*
X53954Y-56300D02*
X54087Y-56123D01*
X54087Y-56123D02*
X54087Y-55945D01*
X54087Y-55945D02*
X53954Y-55767D01*
X53954Y-55767D02*
X53154Y-55767D01*
X52634Y-56300D02*
X52634Y-55234D01*
X52634Y-55412D02*
X52501Y-55234D01*
X52501Y-55234D02*
X51967Y-55234D01*
X51967Y-55234D02*
X51834Y-55412D01*
X51834Y-55412D02*
X51834Y-56300D01*
G54D11*
X61647Y-56000D02*
X61548Y-56999D01*
X61548Y-56999D02*
X61258Y-57961D01*
X61258Y-57961D02*
X60787Y-58848D01*
X60787Y-58848D02*
X60152Y-59626D01*
X60152Y-59626D02*
X59378Y-60267D01*
X59378Y-60267D02*
X58494Y-60744D01*
X58494Y-60744D02*
X57534Y-61041D01*
X57534Y-61041D02*
X56535Y-61146D01*
X56535Y-61146D02*
X55536Y-61055D01*
X55536Y-61055D02*
X54572Y-60772D01*
X54572Y-60772D02*
X53682Y-60306D01*
X53682Y-60306D02*
X52899Y-59677D01*
X52899Y-59677D02*
X52254Y-58907D01*
X52254Y-58907D02*
X51770Y-58027D01*
X51770Y-58027D02*
X51466Y-57070D01*
X51466Y-57070D02*
X51354Y-56071D01*
X51354Y-56071D02*
X51438Y-55071D01*
X51438Y-55071D02*
X51715Y-54106D01*
X51715Y-54106D02*
X52174Y-53212D01*
X52174Y-53212D02*
X52798Y-52425D01*
X52798Y-52425D02*
X53563Y-51774D01*
X53563Y-51774D02*
X54440Y-51284D01*
X54440Y-51284D02*
X55395Y-50974D01*
X55395Y-50974D02*
X56393Y-50855D01*
X56393Y-50855D02*
X57393Y-50932D01*
X57393Y-50932D02*
X58361Y-51202D01*
X58361Y-51202D02*
X59257Y-51655D01*
X59257Y-51655D02*
X60049Y-52273D01*
X60049Y-52273D02*
X60705Y-53034D01*
X60705Y-53034D02*
X61202Y-53907D01*
X61202Y-53907D02*
X61519Y-54860D01*
X61519Y-54860D02*
X61644Y-55857D01*
X61644Y-55857D02*
X61647Y-56000D01*
X80000Y-61000D02*
X80000Y-62000D01*
X36000Y-61000D02*
X36000Y-62000D01*
X36000Y-61000D02*
X36000Y-10000D01*
X80000Y-62000D02*
X36000Y-62000D01*
X80000Y-10000D02*
X80000Y-61000D01*
X36000Y-10000D02*
X80000Y-10000D01*
G54D31*
X67750Y-52250D02*
X64250Y-52250D01*
X64250Y-52250D02*
X64250Y-48750D01*
X64250Y-48750D02*
X67750Y-48750D01*
X67750Y-48750D02*
X67750Y-52250D01*
X37250Y-19750D02*
X40750Y-19750D01*
X40750Y-19750D02*
X40750Y-23250D01*
X40750Y-23250D02*
X37250Y-23250D01*
X37250Y-23250D02*
X37250Y-19750D01*
M02*
