M48
;DRILL file {PCBnew (20090216-final)} date Friday 21 January 2011 09:58:13 PM IST
;FORMAT={-.-/ absolute / inch / decimal}
R,T
VER,1
FMAT,2
INCH,TZ
TCST,OFF
ICI,OFF
ATC,ON
T1C0.025
T2C0.032
T3C0.035
T4C0.039
T5C0.040
T6C0.045
T7C0.091
T8C0.120
%
M47
G05
M72
T1
X3.750Y1.150
X3.750Y2.650
X3.750Y6.050
X4.150Y3.800
X6.100Y5.200
X6.400Y3.250
X6.700Y1.800
X7.250Y3.400
X7.650Y2.900
X7.850Y1.150
X7.850Y2.650
X7.850Y6.050
T2
X3.900Y1.300
X4.000Y1.300
X4.100Y5.750
X4.100Y5.950
X4.150Y4.450
X4.150Y4.800
X4.200Y5.750
X4.200Y5.950
X4.250Y3.400
X4.250Y3.500
X4.250Y3.600
X4.250Y3.900
X4.250Y4.100
X4.250Y4.450
X4.250Y4.800
X4.350Y2.700
X4.350Y4.800
X4.350Y5.250
X4.350Y5.350
X4.350Y5.450
X4.350Y5.550
X4.350Y5.650
X4.350Y5.750
X4.350Y5.850
X4.350Y5.950
X4.400Y2.950
X4.400Y3.150
X4.400Y3.250
X4.500Y2.950
X4.500Y4.400
X4.500Y4.500
X4.500Y4.600
X4.500Y4.900
X4.550Y3.400
X4.550Y3.500
X4.550Y3.600
X4.550Y3.900
X4.550Y4.100
X4.600Y2.950
X4.600Y3.150
X4.600Y3.250
X4.650Y2.700
X4.650Y5.250
X4.650Y5.350
X4.650Y5.450
X4.650Y5.550
X4.650Y5.650
X4.650Y5.750
X4.650Y5.850
X4.650Y5.950
X4.750Y4.400
X4.750Y4.500
X4.750Y4.600
X4.750Y4.900
X4.850Y2.700
X4.850Y2.800
X4.850Y5.350
X4.850Y5.450
X4.850Y5.550
X4.850Y5.650
X4.850Y5.800
X4.850Y5.900
X5.000Y3.250
X5.000Y4.400
X5.000Y4.500
X5.000Y4.600
X5.000Y4.900
X5.100Y3.250
X5.200Y3.250
X5.250Y4.400
X5.250Y4.500
X5.250Y4.600
X5.250Y4.900
X5.300Y3.250
X5.400Y3.250
X5.500Y3.250
X5.500Y4.400
X5.500Y4.500
X5.500Y4.600
X5.500Y4.900
X5.550Y5.450
X5.550Y5.750
X5.600Y3.250
X5.650Y5.450
X5.650Y5.750
X5.700Y3.250
X5.750Y4.400
X5.750Y4.500
X5.750Y4.600
X5.750Y4.900
X5.750Y5.450
X5.750Y5.750
X5.850Y5.450
X5.850Y5.750
X5.950Y5.450
X5.950Y5.750
X6.000Y4.400
X6.000Y4.500
X6.000Y4.600
X6.000Y4.900
X6.050Y5.450
X6.050Y5.750
X6.100Y3.250
X6.100Y3.450
X6.100Y4.150
X6.150Y5.450
X6.150Y5.750
X6.250Y3.750
X6.250Y3.850
X6.250Y4.400
X6.250Y4.500
X6.250Y4.600
X6.250Y4.900
X6.250Y5.450
X6.250Y5.750
X6.400Y3.250
X6.400Y3.450
X6.400Y4.150
X6.500Y3.100
X6.500Y3.350
X6.500Y3.450
X6.500Y3.750
X6.500Y3.950
X6.500Y4.550
X6.500Y4.650
X6.500Y5.950
X6.600Y3.100
X6.600Y4.250
X6.600Y4.350
X6.600Y5.950
X6.700Y3.100
X6.700Y4.050
X6.700Y4.250
X6.700Y4.350
X6.750Y6.000
X6.800Y3.350
X6.800Y3.450
X6.800Y3.750
X6.800Y3.950
X6.800Y4.050
X6.800Y4.150
X6.800Y4.350
X6.800Y4.550
X6.800Y4.650
X6.950Y3.050
X6.950Y3.150
X6.950Y3.250
X6.950Y3.350
X6.950Y3.450
X6.950Y3.550
X6.950Y3.650
X6.950Y3.750
X6.950Y3.850
X6.950Y3.950
X6.950Y4.050
X6.950Y4.150
X6.950Y4.250
X6.950Y4.350
X6.950Y4.450
X6.950Y4.550
X6.950Y4.650
X6.950Y4.750
X6.950Y4.850
X6.950Y4.950
X7.050Y5.200
X7.050Y5.300
X7.050Y5.400
X7.050Y5.500
X7.050Y5.600
X7.050Y5.700
X7.050Y5.800
X7.050Y5.900
X7.050Y6.000
X7.250Y5.200
X7.250Y5.300
X7.250Y5.400
X7.250Y5.500
X7.250Y5.600
X7.250Y5.700
X7.250Y5.800
X7.250Y5.900
X7.550Y3.050
X7.550Y3.150
X7.550Y3.250
X7.550Y3.350
X7.550Y3.450
X7.550Y3.550
X7.550Y3.650
X7.550Y3.750
X7.550Y3.850
X7.550Y3.950
X7.550Y4.050
X7.550Y4.150
X7.550Y4.250
X7.550Y4.350
X7.550Y4.450
X7.550Y4.550
X7.550Y4.650
X7.550Y4.750
X7.550Y4.850
X7.550Y4.950
X7.550Y5.200
X7.550Y5.300
X7.550Y5.400
X7.550Y5.500
X7.550Y5.600
X7.550Y5.700
X7.550Y5.800
X7.550Y5.900
X7.602Y1.500
X7.602Y2.100
X7.700Y1.402
X7.700Y2.002
X7.750Y3.050
X7.750Y3.150
X7.750Y3.250
X7.750Y3.350
X7.750Y3.450
X7.750Y3.550
X7.750Y3.650
X7.750Y3.750
X7.750Y3.850
X7.750Y3.950
X7.750Y4.150
X7.750Y4.250
X7.750Y4.350
X7.750Y4.450
X7.750Y4.550
X7.750Y4.650
X7.750Y4.750
X7.750Y4.850
X7.750Y5.200
X7.750Y5.300
X7.750Y5.400
X7.750Y5.500
X7.750Y5.600
X7.750Y5.700
X7.750Y5.800
X7.750Y5.900
X7.798Y1.500
X7.798Y2.100
T3
X4.071Y2.901
X4.071Y2.999
X4.150Y2.901
X4.150Y2.999
T4
X4.550Y1.150
X4.650Y1.150
X4.750Y1.150
X4.850Y1.150
X4.950Y1.150
X5.050Y1.150
X5.150Y1.150
X5.250Y1.150
X5.350Y1.150
X5.450Y1.150
X5.550Y1.150
X5.650Y1.150
X5.750Y1.150
X5.850Y1.150
X5.950Y1.150
X6.050Y1.150
T5
X3.850Y3.835
X3.850Y3.945
X3.850Y4.050
X3.850Y4.160
X3.850Y5.135
X3.850Y5.245
X3.850Y5.350
X3.850Y5.460
X3.950Y3.780
X3.950Y3.890
X3.950Y4.000
X3.950Y4.105
X3.950Y4.215
X3.950Y5.080
X3.950Y5.190
X3.950Y5.300
X3.950Y5.405
X3.950Y5.515
T6
X3.800Y1.500
X3.900Y1.500
X4.000Y1.500
X6.500Y5.700
X6.600Y5.700
X6.700Y5.700
T7
X3.965Y2.714
X3.965Y3.187
T8
X3.850Y3.495
X3.850Y4.495
X3.850Y4.795
X3.850Y5.795
X3.900Y2.150
X6.600Y5.050
T0
M30
