G04 (created by PCBnew (20090216-final)) date Friday 21 January 2011 09:57:26 PM IST*
G01*
G70*
G90*
%MOIN*%
G04 Gerber Fmt 3.4, Leading zero omitted, Abs format*
%FSLAX34Y34*%
G04 APERTURE LIST*
%ADD10C,0.012000*%
%ADD11C,0.015000*%
%ADD12O,0.104000X0.052000*%
%ADD13O,0.052000X0.104000*%
%ADD14C,0.055000*%
%ADD15R,0.055000X0.055000*%
%ADD16C,0.169300*%
%ADD17C,0.059100*%
%ADD18C,0.150000*%
%ADD19R,0.060000X0.060000*%
%ADD20C,0.060000*%
%ADD21C,0.063000*%
%ADD22C,0.075000*%
%ADD23O,0.076000X0.152000*%
%ADD24R,0.350000X0.350000*%
%ADD25C,0.070000*%
%ADD26R,0.070000X0.070000*%
%ADD27C,0.100000*%
%ADD28C,0.045000*%
%ADD29C,0.017000*%
G04 APERTURE END LIST*
G54D10*
X55649Y-07716D02*
X55649Y-06916D01*
X55649Y-06916D02*
X55315Y-07539D01*
X55315Y-07539D02*
X55782Y-07539D01*
X56301Y-07716D02*
X56301Y-07628D01*
X57221Y-07716D02*
X57221Y-06916D01*
X57221Y-06916D02*
X56887Y-07539D01*
X56887Y-07539D02*
X57354Y-07539D01*
X57673Y-07716D02*
X58140Y-06916D01*
X57673Y-07628D02*
X57673Y-07005D01*
X57673Y-07005D02*
X57740Y-06916D01*
X57740Y-06916D02*
X58073Y-06916D01*
X58073Y-06916D02*
X58140Y-07005D01*
X58140Y-07005D02*
X58140Y-07628D01*
X58140Y-07628D02*
X58073Y-07716D01*
X58073Y-07716D02*
X57740Y-07716D01*
X57740Y-07716D02*
X57673Y-07628D01*
X58459Y-07716D02*
X58926Y-06916D01*
X58459Y-07628D02*
X58459Y-07005D01*
X58459Y-07005D02*
X58526Y-06916D01*
X58526Y-06916D02*
X58859Y-06916D01*
X58859Y-06916D02*
X58926Y-07005D01*
X58926Y-07005D02*
X58926Y-07628D01*
X58926Y-07628D02*
X58859Y-07716D01*
X58859Y-07716D02*
X58526Y-07716D01*
X58526Y-07716D02*
X58459Y-07628D01*
X59245Y-07716D02*
X59712Y-06916D01*
X59245Y-07628D02*
X59245Y-07005D01*
X59245Y-07005D02*
X59312Y-06916D01*
X59312Y-06916D02*
X59645Y-06916D01*
X59645Y-06916D02*
X59712Y-07005D01*
X59712Y-07005D02*
X59712Y-07628D01*
X59712Y-07628D02*
X59645Y-07716D01*
X59645Y-07716D02*
X59312Y-07716D01*
X59312Y-07716D02*
X59245Y-07628D01*
G54D11*
X36000Y-08001D02*
X80000Y-08001D01*
X36000Y-08500D02*
X36000Y-06631D01*
X80000Y-08500D02*
X80000Y-06631D01*
X80000Y-08001D02*
X79557Y-08231D01*
X80000Y-08001D02*
X79557Y-07771D01*
X36000Y-08001D02*
X36443Y-08231D01*
X36000Y-08001D02*
X36443Y-07771D01*
G54D10*
X82461Y-33315D02*
X82372Y-33315D01*
X82372Y-33315D02*
X82284Y-33382D01*
X82284Y-33382D02*
X82284Y-33715D01*
X82284Y-33715D02*
X82372Y-33782D01*
X82372Y-33782D02*
X82639Y-33782D01*
X82639Y-33782D02*
X82817Y-33649D01*
X82817Y-33649D02*
X82817Y-33315D01*
X82817Y-33315D02*
X83084Y-33315D01*
X83084Y-33315D02*
X83084Y-33782D01*
X82284Y-34301D02*
X82372Y-34301D01*
X82284Y-35354D02*
X82284Y-34887D01*
X82284Y-34887D02*
X82550Y-34887D01*
X82550Y-34887D02*
X82639Y-34954D01*
X82639Y-34954D02*
X82639Y-35287D01*
X82639Y-35287D02*
X82728Y-35354D01*
X82728Y-35354D02*
X82995Y-35354D01*
X82995Y-35354D02*
X83084Y-35287D01*
X83084Y-35287D02*
X83084Y-34954D01*
X83084Y-34954D02*
X82995Y-34887D01*
X82284Y-35673D02*
X83084Y-36140D01*
X82372Y-35673D02*
X82995Y-35673D01*
X82995Y-35673D02*
X83084Y-35740D01*
X83084Y-35740D02*
X83084Y-36073D01*
X83084Y-36073D02*
X82995Y-36140D01*
X82995Y-36140D02*
X82372Y-36140D01*
X82372Y-36140D02*
X82284Y-36073D01*
X82284Y-36073D02*
X82284Y-35740D01*
X82284Y-35740D02*
X82372Y-35673D01*
X82284Y-36459D02*
X83084Y-36926D01*
X82372Y-36459D02*
X82995Y-36459D01*
X82995Y-36459D02*
X83084Y-36526D01*
X83084Y-36526D02*
X83084Y-36859D01*
X83084Y-36859D02*
X82995Y-36926D01*
X82995Y-36926D02*
X82372Y-36926D01*
X82372Y-36926D02*
X82284Y-36859D01*
X82284Y-36859D02*
X82284Y-36526D01*
X82284Y-36526D02*
X82372Y-36459D01*
X82284Y-37245D02*
X83084Y-37712D01*
X82372Y-37245D02*
X82995Y-37245D01*
X82995Y-37245D02*
X83084Y-37312D01*
X83084Y-37312D02*
X83084Y-37645D01*
X83084Y-37645D02*
X82995Y-37712D01*
X82995Y-37712D02*
X82372Y-37712D01*
X82372Y-37712D02*
X82284Y-37645D01*
X82284Y-37645D02*
X82284Y-37312D01*
X82284Y-37312D02*
X82372Y-37245D01*
G54D11*
X81999Y-10000D02*
X81999Y-62000D01*
X81500Y-10000D02*
X83369Y-10000D01*
X81500Y-62000D02*
X83369Y-62000D01*
X81999Y-62000D02*
X81769Y-61557D01*
X81999Y-62000D02*
X82229Y-61557D01*
X81999Y-10000D02*
X81769Y-10443D01*
X81999Y-10000D02*
X82229Y-10443D01*
X80000Y-61000D02*
X80000Y-62000D01*
X36000Y-61000D02*
X36000Y-62000D01*
X36000Y-61000D02*
X36000Y-10000D01*
X80000Y-62000D02*
X36000Y-62000D01*
X80000Y-10000D02*
X80000Y-61000D01*
X36000Y-10000D02*
X80000Y-10000D01*
G54D12*
X72500Y-52000D03*
X72500Y-53000D03*
X72500Y-54000D03*
X72500Y-55000D03*
X72500Y-56000D03*
X72500Y-57000D03*
X72500Y-58000D03*
X72500Y-59000D03*
X75500Y-59000D03*
X75500Y-58000D03*
X75500Y-57000D03*
X75500Y-56000D03*
X75500Y-55000D03*
X75500Y-54000D03*
X75500Y-53000D03*
X75500Y-52000D03*
G54D13*
X62500Y-54500D03*
X61500Y-54500D03*
X60500Y-54500D03*
X59500Y-54500D03*
X58500Y-54500D03*
X57500Y-54500D03*
X56500Y-54500D03*
X55500Y-54500D03*
X55500Y-57500D03*
X56500Y-57500D03*
X57500Y-57500D03*
X58500Y-57500D03*
X59500Y-57500D03*
X60500Y-57500D03*
X61500Y-57500D03*
X62500Y-57500D03*
G54D12*
X69500Y-30500D03*
X69500Y-31500D03*
X69500Y-32500D03*
X69500Y-33500D03*
X69500Y-34500D03*
X69500Y-35500D03*
X69500Y-36500D03*
X69500Y-37500D03*
X69500Y-38500D03*
X69500Y-39500D03*
X69500Y-40500D03*
X69500Y-41500D03*
X69500Y-42500D03*
X69500Y-43500D03*
X69500Y-44500D03*
X69500Y-45500D03*
X69500Y-46500D03*
X69500Y-47500D03*
X69500Y-48500D03*
X69500Y-49500D03*
X75500Y-49500D03*
X75500Y-48500D03*
X75500Y-47500D03*
X75500Y-46500D03*
X75500Y-45500D03*
X75500Y-44500D03*
X75500Y-43500D03*
X75500Y-42500D03*
X75500Y-41500D03*
X75500Y-40500D03*
X75500Y-39500D03*
X75500Y-38500D03*
X75500Y-37500D03*
X75500Y-36500D03*
X75500Y-35500D03*
X75500Y-34500D03*
X75500Y-33500D03*
X75500Y-32500D03*
X75500Y-31500D03*
X75500Y-30500D03*
G54D14*
X77500Y-38500D03*
X77500Y-39500D03*
X67000Y-40500D03*
X68000Y-40500D03*
X67000Y-43500D03*
X66000Y-43500D03*
X67000Y-42500D03*
X66000Y-42500D03*
X46000Y-31500D03*
X46000Y-32500D03*
X44000Y-31500D03*
X44000Y-32500D03*
G54D15*
X48500Y-53500D03*
G54D14*
X48500Y-54500D03*
G54D15*
X42000Y-59500D03*
G54D14*
X41000Y-59500D03*
G54D15*
X41000Y-57500D03*
G54D14*
X42000Y-57500D03*
G54D15*
X48500Y-56500D03*
G54D14*
X48500Y-55500D03*
G54D15*
X48500Y-59000D03*
G54D14*
X48500Y-58000D03*
X68000Y-41500D03*
X68000Y-43500D03*
G54D16*
X39648Y-27136D03*
X39648Y-31868D03*
G54D17*
X41500Y-29992D03*
X40710Y-29992D03*
X40710Y-29008D03*
X41500Y-29008D03*
G54D15*
X67500Y-60000D03*
G54D14*
X70500Y-60000D03*
G54D15*
X42500Y-34000D03*
G54D14*
X45500Y-34000D03*
G54D15*
X42500Y-35000D03*
G54D14*
X45500Y-35000D03*
G54D18*
X38500Y-47950D03*
X38500Y-57950D03*
G54D19*
X39500Y-55150D03*
G54D20*
X39500Y-54050D03*
X39500Y-53000D03*
X39500Y-51900D03*
X39500Y-50800D03*
X38500Y-54600D03*
X38500Y-53500D03*
X38500Y-52450D03*
X38500Y-51350D03*
G54D18*
X38500Y-34950D03*
X38500Y-44950D03*
G54D19*
X39500Y-42150D03*
G54D20*
X39500Y-41050D03*
X39500Y-40000D03*
X39500Y-38900D03*
X39500Y-37800D03*
X38500Y-41600D03*
X38500Y-40500D03*
X38500Y-39450D03*
X38500Y-38350D03*
G54D21*
X41500Y-44500D03*
X42500Y-44500D03*
G54D22*
X46000Y-29500D03*
X45000Y-29500D03*
X44000Y-29500D03*
X43500Y-48000D03*
X42500Y-48000D03*
X41500Y-48000D03*
X67000Y-31000D03*
X66000Y-31000D03*
X65000Y-31000D03*
G54D23*
X45500Y-11500D03*
X46500Y-11500D03*
X47500Y-11500D03*
X48500Y-11500D03*
X49500Y-11500D03*
X50500Y-11500D03*
X51500Y-11500D03*
X52500Y-11500D03*
X53500Y-11500D03*
X54500Y-11500D03*
X55500Y-11500D03*
X56500Y-11500D03*
X57500Y-11500D03*
X58500Y-11500D03*
X59500Y-11500D03*
X60500Y-11500D03*
G54D15*
X45000Y-44000D03*
G54D14*
X45000Y-45000D03*
G54D15*
X47500Y-44000D03*
G54D14*
X47500Y-45000D03*
G54D15*
X50000Y-44000D03*
G54D14*
X50000Y-45000D03*
G54D15*
X52500Y-44000D03*
G54D14*
X52500Y-45000D03*
G54D15*
X55000Y-44000D03*
G54D14*
X55000Y-45000D03*
G54D15*
X57500Y-44000D03*
G54D14*
X57500Y-45000D03*
G54D15*
X60000Y-44000D03*
G54D14*
X60000Y-45000D03*
G54D15*
X62500Y-44000D03*
G54D14*
X62500Y-45000D03*
G54D15*
X62500Y-37500D03*
G54D14*
X62500Y-38500D03*
G54D15*
X48500Y-27000D03*
G54D14*
X48500Y-28000D03*
G54D24*
X66000Y-50500D03*
G54D25*
X65000Y-57000D03*
G54D26*
X66000Y-57000D03*
G54D25*
X67000Y-57000D03*
G54D24*
X39000Y-21500D03*
G54D25*
X40000Y-15000D03*
G54D26*
X39000Y-15000D03*
G54D25*
X38000Y-15000D03*
G54D12*
X46500Y-59500D03*
X46500Y-58500D03*
X46500Y-57500D03*
X46500Y-56500D03*
X46500Y-55500D03*
X46500Y-54500D03*
X46500Y-53500D03*
X46500Y-52500D03*
X43500Y-52500D03*
X43500Y-53500D03*
X43500Y-54500D03*
X43500Y-55500D03*
X43500Y-56500D03*
X43500Y-57500D03*
X43500Y-58500D03*
X43500Y-59500D03*
G54D14*
X76016Y-15000D03*
X77000Y-14016D03*
X77984Y-15000D03*
X76016Y-21000D03*
X77000Y-20016D03*
X77984Y-21000D03*
X65000Y-34500D03*
X68000Y-34500D03*
X61000Y-41500D03*
X64000Y-41500D03*
X45000Y-46000D03*
X45000Y-49000D03*
X47500Y-46000D03*
X47500Y-49000D03*
X50000Y-46000D03*
X50000Y-49000D03*
X52500Y-46000D03*
X52500Y-49000D03*
X55000Y-46000D03*
X55000Y-49000D03*
X57500Y-46000D03*
X57500Y-49000D03*
X60000Y-46000D03*
X60000Y-49000D03*
X62500Y-46000D03*
X62500Y-49000D03*
X45500Y-36000D03*
X42500Y-36000D03*
X65000Y-46500D03*
X68000Y-46500D03*
X68000Y-45500D03*
X65000Y-45500D03*
X65000Y-37500D03*
X68000Y-37500D03*
X65000Y-39500D03*
X68000Y-39500D03*
X68000Y-33500D03*
X65000Y-33500D03*
X43500Y-27000D03*
X46500Y-27000D03*
G54D15*
X66000Y-59500D03*
G54D14*
X65000Y-59500D03*
G54D15*
X39000Y-13000D03*
G54D14*
X40000Y-13000D03*
G54D15*
X77500Y-52000D03*
G54D14*
X77500Y-53000D03*
X77500Y-54000D03*
X77500Y-55000D03*
X77500Y-56000D03*
X77500Y-57000D03*
X77500Y-58000D03*
X77500Y-59000D03*
G54D15*
X70500Y-52000D03*
G54D14*
X70500Y-53000D03*
X70500Y-54000D03*
X70500Y-55000D03*
X70500Y-56000D03*
X70500Y-57000D03*
X70500Y-58000D03*
X70500Y-59000D03*
G54D15*
X77500Y-48500D03*
G54D14*
X77500Y-47500D03*
X77500Y-46500D03*
X77500Y-45500D03*
X77500Y-44500D03*
X77500Y-43500D03*
X77500Y-42500D03*
X77500Y-41500D03*
G54D15*
X77500Y-30500D03*
G54D14*
X77500Y-31500D03*
X77500Y-32500D03*
X77500Y-33500D03*
X77500Y-34500D03*
X77500Y-35500D03*
X77500Y-36500D03*
X77500Y-37500D03*
G54D15*
X50000Y-32500D03*
G54D14*
X51000Y-32500D03*
X52000Y-32500D03*
X53000Y-32500D03*
X54000Y-32500D03*
X55000Y-32500D03*
X56000Y-32500D03*
X57000Y-32500D03*
X45500Y-39000D03*
X45500Y-41000D03*
X42500Y-39000D03*
X42500Y-41000D03*
X61000Y-34500D03*
X61000Y-32500D03*
X64000Y-34500D03*
X64000Y-32500D03*
G54D27*
X37500Y-26500D03*
X78500Y-26500D03*
X37500Y-60500D03*
X78500Y-60500D03*
X37500Y-11500D03*
X78500Y-11500D03*
G54D28*
X76500Y-29000D03*
X61000Y-52000D03*
X64000Y-32500D03*
X72500Y-34000D03*
X41500Y-38000D03*
X67000Y-18000D03*
G54D29*
X70500Y-52000D02*
X72500Y-52000D01*
X70500Y-53000D02*
X72500Y-53000D01*
X70500Y-54000D02*
X72500Y-54000D01*
X70500Y-55000D02*
X72500Y-55000D01*
X70500Y-56000D02*
X72500Y-56000D01*
X70500Y-57000D02*
X72500Y-57000D01*
X70500Y-58000D02*
X72500Y-58000D01*
X65000Y-31000D02*
X65000Y-33500D01*
X77984Y-21016D02*
X77984Y-21000D01*
X76500Y-22500D02*
X77984Y-21016D01*
X76500Y-29000D02*
X76500Y-22500D01*
X42500Y-25500D02*
X44000Y-25500D01*
X39000Y-18000D02*
X39500Y-18500D01*
X39500Y-18500D02*
X41500Y-18500D01*
X41500Y-18500D02*
X42000Y-19000D01*
X42000Y-19000D02*
X42000Y-25000D01*
X42000Y-25000D02*
X42500Y-25500D01*
X39000Y-15000D02*
X39000Y-18000D01*
X46500Y-28000D02*
X48500Y-28000D01*
X44000Y-25500D02*
X46500Y-28000D01*
X48500Y-53500D02*
X48500Y-52500D01*
X66000Y-56500D02*
X66000Y-57000D01*
X65500Y-56000D02*
X66000Y-56500D01*
X64500Y-56000D02*
X65500Y-56000D01*
X63500Y-57000D02*
X64500Y-56000D01*
X63500Y-58000D02*
X63500Y-57000D01*
X63000Y-58500D02*
X63500Y-58000D01*
X55000Y-58500D02*
X63000Y-58500D01*
X53500Y-57000D02*
X55000Y-58500D01*
X53500Y-52500D02*
X53500Y-57000D01*
X53000Y-52000D02*
X53500Y-52500D01*
X49000Y-52000D02*
X53000Y-52000D01*
X48500Y-52500D02*
X49000Y-52000D01*
X55500Y-53500D02*
X55500Y-54500D01*
X56000Y-53000D02*
X55500Y-53500D01*
X60000Y-53000D02*
X56000Y-53000D01*
X61000Y-52000D02*
X60000Y-53000D01*
X42500Y-39000D02*
X45500Y-39000D01*
X66000Y-43500D02*
X66000Y-42500D01*
X68000Y-40500D02*
X66000Y-42500D01*
X68000Y-40500D02*
X69500Y-40500D01*
X45500Y-34000D02*
X45500Y-35000D01*
X46000Y-32500D02*
X46000Y-33500D01*
X46000Y-33500D02*
X45500Y-34000D01*
X44000Y-32500D02*
X46000Y-32500D01*
X40710Y-29992D02*
X40710Y-30710D01*
X42500Y-32500D02*
X44000Y-32500D01*
X40710Y-30710D02*
X42500Y-32500D01*
X39000Y-15000D02*
X39000Y-13000D01*
X42000Y-57500D02*
X43000Y-58500D01*
X43000Y-58500D02*
X43500Y-58500D01*
X66000Y-57000D02*
X66000Y-59500D01*
X75500Y-39500D02*
X77500Y-39500D01*
X70500Y-60000D02*
X75000Y-60000D01*
X75500Y-59500D02*
X75500Y-59000D01*
X75000Y-60000D02*
X75500Y-59500D01*
X75500Y-58000D02*
X77500Y-58000D01*
X75500Y-57000D02*
X77500Y-57000D01*
X75500Y-56000D02*
X77500Y-56000D01*
X75500Y-55000D02*
X77500Y-55000D01*
X75500Y-54000D02*
X77500Y-54000D01*
X75500Y-53000D02*
X77500Y-53000D01*
X75500Y-52000D02*
X77500Y-52000D01*
X77984Y-15000D02*
X78000Y-15000D01*
X78000Y-40500D02*
X75500Y-40500D01*
X78500Y-40000D02*
X78000Y-40500D01*
X78500Y-28000D02*
X78500Y-40000D01*
X77500Y-27000D02*
X78500Y-28000D01*
X77500Y-26000D02*
X77500Y-27000D01*
X79000Y-24500D02*
X77500Y-26000D01*
X79000Y-16000D02*
X79000Y-24500D01*
X78000Y-15000D02*
X79000Y-16000D01*
X45500Y-36000D02*
X47000Y-34500D01*
X47000Y-32500D02*
X46000Y-31500D01*
X47000Y-34500D02*
X47000Y-32500D01*
X60000Y-33000D02*
X60000Y-34000D01*
X59500Y-31500D02*
X60000Y-32000D01*
X60000Y-32000D02*
X60000Y-33000D01*
X46000Y-31500D02*
X59500Y-31500D01*
X60500Y-34500D02*
X61000Y-34500D01*
X60000Y-34000D02*
X60500Y-34500D01*
X43500Y-27000D02*
X44500Y-28000D01*
X44500Y-28000D02*
X45000Y-28500D01*
X45000Y-28500D02*
X45000Y-29500D01*
X45000Y-44000D02*
X47500Y-44000D01*
X47500Y-44000D02*
X50000Y-44000D01*
X50000Y-44000D02*
X52500Y-44000D01*
X52500Y-44000D02*
X55000Y-44000D01*
X55000Y-44000D02*
X57500Y-44000D01*
X57500Y-44000D02*
X60000Y-44000D01*
X60000Y-44000D02*
X62500Y-44000D01*
X62500Y-44000D02*
X63500Y-45000D01*
X62500Y-54000D02*
X62500Y-54500D01*
X63500Y-53000D02*
X62500Y-54000D01*
X63500Y-45000D02*
X63500Y-53000D01*
X45000Y-31000D02*
X45500Y-31500D01*
X45500Y-31500D02*
X46000Y-31500D01*
X45000Y-29500D02*
X45000Y-31000D01*
X44500Y-31500D02*
X44000Y-31500D01*
X45000Y-31000D02*
X44500Y-31500D01*
X68000Y-39500D02*
X69500Y-39500D01*
X64000Y-34500D02*
X65000Y-34500D01*
X61000Y-34500D02*
X64000Y-34500D01*
X41000Y-59500D02*
X41000Y-57500D01*
X60500Y-50000D02*
X62500Y-50000D01*
X60500Y-50000D02*
X44000Y-50000D01*
X44000Y-50000D02*
X43500Y-49500D01*
X43500Y-48000D02*
X43500Y-49500D01*
X61500Y-54000D02*
X61500Y-54500D01*
X63000Y-52500D02*
X61500Y-54000D01*
X63000Y-50500D02*
X63000Y-52500D01*
X62500Y-50000D02*
X63000Y-50500D01*
X60000Y-50500D02*
X62000Y-50500D01*
X43500Y-52500D02*
X43500Y-51000D01*
X44000Y-50500D02*
X60000Y-50500D01*
X43500Y-51000D02*
X44000Y-50500D01*
X60500Y-54000D02*
X60500Y-54500D01*
X62500Y-52000D02*
X60500Y-54000D01*
X62500Y-51000D02*
X62500Y-52000D01*
X62000Y-50500D02*
X62500Y-51000D01*
X69500Y-27000D02*
X69500Y-17000D01*
X69500Y-30500D02*
X69500Y-27000D01*
X50500Y-16000D02*
X50500Y-11500D01*
X51000Y-16500D02*
X50500Y-16000D01*
X69000Y-16500D02*
X51000Y-16500D01*
X69500Y-17000D02*
X69000Y-16500D01*
X68000Y-26500D02*
X68000Y-17500D01*
X68500Y-31500D02*
X68000Y-31000D01*
X68000Y-31000D02*
X68000Y-26500D01*
X69500Y-31500D02*
X68500Y-31500D01*
X48500Y-16500D02*
X48500Y-11500D01*
X49000Y-17000D02*
X48500Y-16500D01*
X67500Y-17000D02*
X49000Y-17000D01*
X68000Y-17500D02*
X67500Y-17000D01*
X61000Y-32500D02*
X64000Y-32500D01*
X68000Y-33500D02*
X68000Y-33000D01*
X68000Y-33000D02*
X68500Y-32500D01*
X68500Y-32500D02*
X69500Y-32500D01*
X43500Y-54500D02*
X44000Y-54500D01*
X72000Y-34500D02*
X72500Y-34000D01*
X72000Y-48500D02*
X72000Y-34500D01*
X69000Y-51500D02*
X72000Y-48500D01*
X69000Y-52500D02*
X69000Y-51500D01*
X68000Y-53500D02*
X69000Y-52500D01*
X65000Y-53500D02*
X68000Y-53500D01*
X64000Y-54500D02*
X65000Y-53500D01*
X64000Y-55500D02*
X64000Y-54500D01*
X63500Y-56000D02*
X64000Y-55500D01*
X54500Y-56000D02*
X63500Y-56000D01*
X54000Y-55500D02*
X54500Y-56000D01*
X54000Y-52000D02*
X54000Y-55500D01*
X53500Y-51500D02*
X54000Y-52000D01*
X45500Y-51500D02*
X53500Y-51500D01*
X45000Y-52000D02*
X45500Y-51500D01*
X45000Y-53500D02*
X45000Y-52000D01*
X44000Y-54500D02*
X45000Y-53500D01*
X66000Y-31000D02*
X66000Y-34000D01*
X66500Y-34500D02*
X68000Y-34500D01*
X66000Y-34000D02*
X66500Y-34500D01*
X68000Y-34500D02*
X69500Y-34500D01*
X69500Y-35500D02*
X47000Y-35500D01*
X40100Y-38900D02*
X39500Y-38900D01*
X40500Y-38500D02*
X40100Y-38900D01*
X40500Y-37500D02*
X40500Y-38500D01*
X41000Y-37000D02*
X40500Y-37500D01*
X45500Y-37000D02*
X41000Y-37000D01*
X47000Y-35500D02*
X45500Y-37000D01*
X47000Y-36500D02*
X69500Y-36500D01*
X46000Y-37500D02*
X47000Y-36500D01*
X42000Y-37500D02*
X46000Y-37500D01*
X41500Y-38000D02*
X42000Y-37500D01*
X38500Y-40500D02*
X38000Y-40500D01*
X67000Y-38500D02*
X68000Y-37500D01*
X64500Y-38500D02*
X67000Y-38500D01*
X63500Y-39500D02*
X64500Y-38500D01*
X62500Y-39500D02*
X63500Y-39500D01*
X62000Y-40000D02*
X62500Y-39500D01*
X62000Y-42000D02*
X62000Y-40000D01*
X61500Y-42500D02*
X62000Y-42000D01*
X41000Y-42500D02*
X61500Y-42500D01*
X40500Y-43000D02*
X41000Y-42500D01*
X38500Y-43000D02*
X40500Y-43000D01*
X37500Y-42000D02*
X38500Y-43000D01*
X37500Y-41000D02*
X37500Y-42000D01*
X38000Y-40500D02*
X37500Y-41000D01*
X68000Y-37500D02*
X69500Y-37500D01*
X65000Y-39500D02*
X64500Y-39500D01*
X64000Y-40000D02*
X64000Y-41500D01*
X64500Y-39500D02*
X64000Y-40000D01*
X67000Y-40500D02*
X67000Y-39500D01*
X65000Y-39500D02*
X67000Y-39500D01*
X68000Y-38500D02*
X69500Y-38500D01*
X67000Y-39500D02*
X68000Y-38500D01*
X67000Y-42500D02*
X68000Y-41500D01*
X68000Y-41500D02*
X69500Y-41500D01*
X67000Y-43500D02*
X68000Y-43500D01*
X68000Y-43500D02*
X69000Y-42500D01*
X69000Y-42500D02*
X69500Y-42500D01*
X68000Y-47500D02*
X67500Y-47500D01*
X44000Y-53500D02*
X44500Y-53000D01*
X44500Y-53000D02*
X44500Y-51500D01*
X44500Y-51500D02*
X45000Y-51000D01*
X45000Y-51000D02*
X54000Y-51000D01*
X54000Y-51000D02*
X54500Y-51500D01*
X54500Y-51500D02*
X54500Y-55000D01*
X54500Y-55000D02*
X55000Y-55500D01*
X55000Y-55500D02*
X63000Y-55500D01*
X63000Y-55500D02*
X63500Y-55000D01*
X63500Y-55000D02*
X63500Y-54000D01*
X63500Y-54000D02*
X64500Y-53000D01*
X64500Y-53000D02*
X67500Y-53000D01*
X67500Y-53000D02*
X68500Y-52000D01*
X68500Y-52000D02*
X68500Y-48000D01*
X68500Y-48000D02*
X68000Y-47500D01*
X43500Y-53500D02*
X44000Y-53500D01*
X67500Y-44500D02*
X69500Y-44500D01*
X67000Y-45000D02*
X67500Y-44500D01*
X67000Y-47000D02*
X67000Y-45000D01*
X67500Y-47500D02*
X67000Y-47000D01*
X68000Y-45500D02*
X69500Y-45500D01*
X68000Y-46500D02*
X69500Y-46500D01*
X70500Y-27000D02*
X70500Y-16500D01*
X70000Y-47500D02*
X70500Y-47000D01*
X70500Y-47000D02*
X70500Y-27000D01*
X69500Y-47500D02*
X70000Y-47500D01*
X55500Y-15500D02*
X55500Y-11500D01*
X56000Y-16000D02*
X55500Y-15500D01*
X70000Y-16000D02*
X56000Y-16000D01*
X70500Y-16500D02*
X70000Y-16000D01*
X71000Y-26500D02*
X71000Y-16000D01*
X70000Y-48500D02*
X71000Y-47500D01*
X71000Y-47500D02*
X71000Y-26500D01*
X69500Y-48500D02*
X70000Y-48500D01*
X56500Y-15000D02*
X56500Y-11500D01*
X57000Y-15500D02*
X56500Y-15000D01*
X70500Y-15500D02*
X57000Y-15500D01*
X71000Y-16000D02*
X70500Y-15500D01*
X71500Y-26000D02*
X71500Y-15500D01*
X70000Y-49500D02*
X71500Y-48000D01*
X71500Y-48000D02*
X71500Y-26000D01*
X69500Y-49500D02*
X70000Y-49500D01*
X57500Y-14500D02*
X57500Y-11500D01*
X58000Y-15000D02*
X57500Y-14500D01*
X71000Y-15000D02*
X58000Y-15000D01*
X71500Y-15500D02*
X71000Y-15000D01*
X74500Y-28000D02*
X74500Y-15000D01*
X75000Y-49500D02*
X74500Y-49000D01*
X74500Y-49000D02*
X74500Y-30000D01*
X75500Y-49500D02*
X75000Y-49500D01*
X74500Y-30000D02*
X74500Y-28000D01*
X58500Y-14000D02*
X58500Y-11500D01*
X59000Y-14500D02*
X58500Y-14000D01*
X74000Y-14500D02*
X59000Y-14500D01*
X74500Y-15000D02*
X74000Y-14500D01*
X75500Y-48500D02*
X77500Y-48500D01*
X75500Y-47500D02*
X77500Y-47500D01*
X75500Y-46500D02*
X77500Y-46500D01*
X75500Y-45500D02*
X77500Y-45500D01*
X75500Y-44500D02*
X77500Y-44500D01*
X75500Y-43500D02*
X77500Y-43500D01*
X75500Y-42500D02*
X77500Y-42500D01*
X75500Y-41500D02*
X77500Y-41500D01*
X75500Y-38500D02*
X77500Y-38500D01*
X75500Y-37500D02*
X77500Y-37500D01*
X75500Y-36500D02*
X77500Y-36500D01*
X75500Y-35500D02*
X77500Y-35500D01*
X75500Y-34500D02*
X77500Y-34500D01*
X75500Y-33500D02*
X77500Y-33500D01*
X75500Y-32500D02*
X77500Y-32500D01*
X75500Y-31500D02*
X77500Y-31500D01*
X75500Y-30500D02*
X77500Y-30500D01*
X46500Y-54500D02*
X48500Y-54500D01*
X42000Y-59500D02*
X43000Y-60500D01*
X46000Y-58500D02*
X46500Y-58500D01*
X44000Y-60500D02*
X46000Y-58500D01*
X43000Y-60500D02*
X44000Y-60500D01*
X48500Y-56500D02*
X46500Y-56500D01*
X48500Y-55500D02*
X46500Y-55500D01*
X48500Y-59000D02*
X48000Y-59500D01*
X48000Y-59500D02*
X46500Y-59500D01*
X48500Y-58000D02*
X48000Y-57500D01*
X48000Y-57500D02*
X46500Y-57500D01*
X44000Y-29500D02*
X43500Y-30000D01*
X41508Y-30000D02*
X41500Y-29992D01*
X43500Y-30000D02*
X41508Y-30000D01*
X37000Y-41000D02*
X37000Y-40975D01*
X37500Y-40475D02*
X37500Y-38000D01*
X37000Y-40975D02*
X37500Y-40475D01*
X38500Y-30000D02*
X38000Y-30500D01*
X39492Y-29008D02*
X38500Y-30000D01*
X38500Y-32500D02*
X39500Y-33500D01*
X39500Y-33500D02*
X41000Y-33500D01*
X41500Y-34000D02*
X41000Y-33500D01*
X39492Y-29008D02*
X40710Y-29008D01*
X38000Y-32000D02*
X38500Y-32500D01*
X38000Y-30500D02*
X38000Y-32000D01*
X65000Y-45500D02*
X62500Y-43000D01*
X41500Y-34000D02*
X42500Y-34000D01*
X37500Y-38000D02*
X41500Y-34000D01*
X37000Y-42500D02*
X37000Y-42000D01*
X37000Y-42000D02*
X37000Y-41000D01*
X38000Y-43500D02*
X37000Y-42500D01*
X41000Y-43500D02*
X38000Y-43500D01*
X41500Y-43000D02*
X41000Y-43500D01*
X62500Y-43000D02*
X41500Y-43000D01*
X42500Y-35000D02*
X42500Y-36000D01*
X67500Y-60000D02*
X68000Y-60500D01*
X77500Y-60000D02*
X77500Y-59000D01*
X77000Y-60500D02*
X77500Y-60000D01*
X71500Y-60500D02*
X77000Y-60500D01*
X71000Y-61000D02*
X71500Y-60500D01*
X70000Y-61000D02*
X71000Y-61000D01*
X69500Y-60500D02*
X70000Y-61000D01*
X68000Y-60500D02*
X69500Y-60500D01*
X67000Y-57000D02*
X67000Y-59500D01*
X67000Y-59500D02*
X67500Y-60000D01*
X43500Y-56500D02*
X43000Y-56500D01*
X43000Y-56500D02*
X39500Y-53000D01*
X37500Y-54500D02*
X37500Y-55500D01*
X38000Y-56000D02*
X39000Y-56000D01*
X37500Y-55500D02*
X38000Y-56000D01*
X38500Y-52450D02*
X38050Y-52450D01*
X43000Y-57500D02*
X43500Y-57500D01*
X39000Y-56000D02*
X41500Y-56000D01*
X41500Y-56000D02*
X43000Y-57500D01*
X37500Y-53000D02*
X37500Y-54500D01*
X38050Y-52450D02*
X37500Y-53000D01*
X42500Y-41000D02*
X45500Y-41000D01*
X43500Y-26000D02*
X46000Y-28500D01*
X42000Y-26000D02*
X43500Y-26000D01*
X41500Y-25500D02*
X42000Y-26000D01*
X46000Y-29500D02*
X46000Y-28500D01*
X40500Y-19000D02*
X41000Y-19000D01*
X38000Y-18500D02*
X38500Y-19000D01*
X38500Y-19000D02*
X40500Y-19000D01*
X38000Y-18500D02*
X38000Y-15000D01*
X41500Y-19500D02*
X41500Y-20000D01*
X41000Y-19000D02*
X41500Y-19500D01*
X41500Y-20000D02*
X41500Y-25500D01*
X43500Y-55500D02*
X43000Y-55500D01*
X42500Y-55000D02*
X42500Y-48000D01*
X43000Y-55500D02*
X42500Y-55000D01*
X47500Y-11500D02*
X47500Y-17000D01*
X66500Y-17500D02*
X67000Y-18000D01*
X48000Y-17500D02*
X66500Y-17500D01*
X47500Y-17000D02*
X48000Y-17500D01*
X59500Y-11500D02*
X59500Y-13500D01*
X60016Y-14016D02*
X77000Y-14016D01*
X59500Y-13500D02*
X60016Y-14016D01*
X45000Y-45000D02*
X45000Y-46000D01*
X47500Y-45000D02*
X47500Y-46000D01*
X50000Y-45000D02*
X50000Y-46000D01*
X52500Y-45000D02*
X52500Y-46000D01*
X55000Y-45000D02*
X55000Y-46000D01*
X57500Y-45000D02*
X57500Y-46000D01*
X60000Y-45000D02*
X60000Y-46000D01*
X62500Y-45000D02*
X62500Y-46000D01*
X65000Y-37500D02*
X62500Y-37500D01*
X46500Y-27000D02*
X48500Y-27000D01*
X65000Y-57000D02*
X65000Y-59500D01*
X40000Y-13000D02*
X40000Y-15000D01*
M02*
